<svg width="56" height="56" viewBox="0 0 56 56" fill="none" xmlns="http://www.w3.org/2000/svg">
<path d="M30.1605 21.2769H25.5309V16.6473H30.1605M30.1605 39.7953H25.5309V25.9065H30.1605M27.8457 5.07337C24.8059 5.07337 21.7958 5.67211 18.9874 6.8354C16.1789 7.9987 13.6271 9.70376 11.4776 11.8532C7.13655 16.1943 4.69775 22.0821 4.69775 28.2213C4.69775 34.3605 7.13655 40.2483 11.4776 44.5894C13.6271 46.7388 16.1789 48.4439 18.9874 49.6072C21.7958 50.7705 24.8059 51.3692 27.8457 51.3692C33.9849 51.3692 39.8727 48.9304 44.2137 44.5894C48.5548 40.2483 50.9936 34.3605 50.9936 28.2213C50.9936 25.1815 50.3949 22.1714 49.2316 19.363C48.0683 16.5545 46.3632 14.0027 44.2137 11.8532C42.0643 9.70376 39.5124 7.9987 36.704 6.8354C33.8956 5.67211 30.8855 5.07337 27.8457 5.07337Z" fill="#93C0A4"/>
</svg>
