<svg width="56" height="57" viewBox="0 0 56 57" fill="none" xmlns="http://www.w3.org/2000/svg">
<path d="M27.9142 49.4982C25.4451 49.4982 23.111 49.0931 20.9119 48.2829C18.7129 47.4728 16.726 46.3539 14.9513 44.9265L10.3796 49.4982L7.08105 46.1996L11.6528 41.6279C10.2253 39.8532 9.1065 37.8563 8.29632 35.6372C7.48614 33.4196 7.08105 31.0956 7.08105 28.6651C7.08105 22.8781 9.11653 17.9592 13.1875 13.9083C17.2569 9.85738 22.1658 7.83193 27.9142 7.83193H48.7473V28.6651C48.7473 34.4135 46.7219 39.3231 42.671 43.3941C38.6201 47.4635 33.7012 49.4982 27.9142 49.4982ZM24.8471 39.9497L36.8261 29.2438C37.2119 28.8965 37.3277 28.4814 37.1734 27.9984C37.019 27.5169 36.6718 27.2376 36.1317 27.1605L26.7568 26.2345L32.3702 18.5378C32.5245 18.3449 32.5916 18.142 32.5716 17.9291C32.553 17.7176 32.4666 17.5155 32.3123 17.3226C32.1194 17.1297 31.8979 17.0332 31.6479 17.0332C31.3964 17.0332 31.1742 17.1297 30.9813 17.3226L19.0601 28.0285C18.6743 28.3757 18.5586 28.7901 18.7129 29.2715C18.8672 29.7546 19.2144 30.0347 19.7545 30.1118L29.1295 31.0377L23.4582 38.7344C23.3425 38.9273 23.2846 39.1302 23.2846 39.3432C23.2846 39.5546 23.3811 39.7568 23.574 39.9497C23.7669 40.1426 23.979 40.239 24.2105 40.239C24.442 40.239 24.6542 40.1426 24.8471 39.9497Z" fill="#93C0A4"/>
</svg>
