<svg width="36" height="36" viewBox="0 0 36 36" fill="none" xmlns="http://www.w3.org/2000/svg">
<path d="M28.0328 17.6311C28.0328 14.7541 27.0305 12.3132 25.0259 10.3086C23.0223 8.30504 20.5819 7.30324 17.7049 7.30324V4.35242C19.5492 4.35242 21.2769 4.70258 22.888 5.40291C24.4982 6.10422 25.8998 7.05143 27.0929 8.24455C28.2851 9.43668 29.2318 10.8383 29.9331 12.4495C30.6334 14.0596 30.9836 15.7868 30.9836 17.6311H28.0328ZM22.1311 17.6311C22.1311 16.4016 21.7008 15.3565 20.8401 14.4959C19.9795 13.6352 18.9344 13.2049 17.7049 13.2049V10.2541C19.7459 10.2541 21.4859 10.9731 22.9249 12.4111C24.3629 13.8501 25.0819 15.5901 25.0819 17.6311H22.1311ZM29.4344 30.9836C26.2623 30.9836 23.1703 30.2764 20.1585 28.8619C17.1457 27.4485 14.4777 25.5796 12.1544 23.2554C9.83014 20.9321 7.96129 18.2641 6.54785 15.2513C5.13342 12.2395 4.42621 9.1475 4.42621 5.97537C4.42621 5.53275 4.57375 5.16389 4.86883 4.86881C5.16391 4.57373 5.53277 4.42619 5.97539 4.42619H11.9508C12.2951 4.42619 12.6024 4.53684 12.8729 4.75815C13.1434 4.97947 13.3033 5.26225 13.3524 5.60652L14.3115 10.7705C14.3606 11.1147 14.3547 11.428 14.2937 11.7103C14.2318 11.9936 14.0901 12.2459 13.8688 12.4672L10.3278 16.0819C11.3606 17.8524 12.6516 19.5123 14.2008 21.0614C15.75 22.6106 17.459 23.9508 19.3278 25.0819L22.7951 21.6147C23.0164 21.3934 23.3056 21.2272 23.6626 21.116C24.0187 21.0059 24.3688 20.9754 24.7131 21.0245L29.8033 22.0573C30.1475 22.1311 30.4303 22.2968 30.6516 22.5545C30.8729 22.8132 30.9836 23.1147 30.9836 23.459V29.4344C30.9836 29.877 30.836 30.2459 30.541 30.5409C30.2459 30.836 29.877 30.9836 29.4344 30.9836Z" fill="#93C0A4"/>
</svg>
