<svg width="378" height="327" viewBox="0 0 378 327" fill="none" xmlns="http://www.w3.org/2000/svg">
<path d="M1 321.947H377.194" stroke="black" stroke-width="0.235427" stroke-linecap="round" stroke-linejoin="round"/>
<path d="M290.513 195.045V195.141C290.513 195.298 290.548 195.465 290.618 195.64C291.009 197.556 291.301 199.492 291.493 201.439C291.659 203.11 291.79 205.017 291.825 207.143C291.908 212.055 291.572 216.966 290.819 221.821C290.627 223.099 290.399 224.446 290.128 225.793C289.7 228.015 289.175 230.342 288.527 232.747C288.239 233.867 287.906 235.013 287.556 236.168L287.145 237.576C286.988 238.145 286.83 238.713 286.682 239.325C285.676 243.212 284.873 247.148 284.276 251.117C283.533 256.06 283.069 260.967 282.815 265.612C282.474 271.806 282.492 277.527 282.64 282.233C282.636 282.311 282.636 282.39 282.64 282.469C282.798 287.254 283.095 291.007 283.296 293.141C283.41 294.392 283.489 295.101 283.498 295.144" stroke="black" stroke-width="0.235427" stroke-linecap="round" stroke-linejoin="round"/>
<path d="M290.539 195.167C289.23 194.003 287.652 193.183 285.947 192.779L290.539 195.167Z" fill="white"/>
<path d="M290.539 195.167C289.23 194.003 287.652 193.183 285.947 192.779" stroke="black" stroke-width="0.235427" stroke-linecap="round" stroke-linejoin="round"/>
<path d="M291.519 201.465L293.846 199.357" stroke="black" stroke-width="0.235427" stroke-linecap="round" stroke-linejoin="round"/>
<path d="M288.554 232.756C288.432 232.142 288.25 231.541 288.011 230.963C287.667 230.114 287.198 229.321 286.621 228.609C286.189 228.075 285.699 227.591 285.16 227.166" stroke="black" stroke-width="0.235427" stroke-linecap="round" stroke-linejoin="round"/>
<path d="M286.69 239.317C287.02 238.5 287.514 237.759 288.141 237.141C288.769 236.522 289.517 236.039 290.338 235.721" stroke="black" stroke-width="0.235427" stroke-linecap="round" stroke-linejoin="round"/>
<path d="M282.649 271.858C283.428 270.913 284.014 267.335 284.329 265.411C284.407 264.956 284.469 264.536 284.53 264.282" fill="white"/>
<path d="M282.649 271.858C283.428 270.913 284.014 267.335 284.329 265.411C284.407 264.956 284.469 264.536 284.53 264.282" stroke="black" stroke-width="0.235427" stroke-linecap="round" stroke-linejoin="round"/>
<path d="M276.657 278.349C276.916 278.323 277.177 278.323 277.436 278.349C278.581 278.46 279.675 278.881 280.6 279.567C281.524 280.253 282.245 281.177 282.684 282.241" fill="white"/>
<path d="M276.657 278.349C276.916 278.323 277.177 278.323 277.436 278.349C278.581 278.46 279.675 278.881 280.6 279.567C281.524 280.253 282.245 281.177 282.684 282.241" stroke="black" stroke-width="0.235427" stroke-linecap="round" stroke-linejoin="round"/>
<path d="M290.155 225.863C290.155 225.863 290.566 211.665 282.771 206.513" stroke="black" stroke-width="0.235427" stroke-linecap="round" stroke-linejoin="round"/>
<path d="M290.707 256.33L290.707 256.331C290.949 257.115 290.712 258.095 290.189 259.146C289.669 260.191 288.878 261.283 288.051 262.275C287.225 263.267 286.367 264.156 285.714 264.797C285.388 265.118 285.114 265.376 284.921 265.554C284.825 265.644 284.749 265.713 284.697 265.759L284.658 265.795L284.606 265.788C284.537 265.778 284.435 265.764 284.306 265.745C284.047 265.706 283.675 265.647 283.226 265.566C282.327 265.404 281.118 265.154 279.877 264.801C278.634 264.448 277.365 263.994 276.343 263.424C275.316 262.852 274.561 262.177 274.311 261.395C273.794 259.781 274.125 257.627 275.161 255.698C276.196 253.771 277.925 252.085 280.182 251.396C282.438 250.707 284.828 251.124 286.778 252.126C288.731 253.13 290.224 254.712 290.707 256.33Z" fill="#92E3A9" stroke="black" stroke-width="0.235427"/>
<path d="M298.657 216.088L298.657 216.089C298.446 216.934 297.875 217.728 297.123 218.448C296.373 219.167 295.451 219.803 294.552 220.333C293.653 220.863 292.782 221.284 292.134 221.573C291.811 221.717 291.544 221.829 291.358 221.904C291.266 221.94 291.194 221.969 291.144 221.988C291.111 221.947 291.062 221.888 291.001 221.812C290.876 221.658 290.698 221.432 290.488 221.15C290.066 220.587 289.513 219.8 288.988 218.903C288.462 218.007 287.966 217.004 287.656 216.011C287.345 215.015 287.223 214.039 287.435 213.189C287.866 211.457 289.013 209.631 290.446 208.34C291.881 207.047 293.575 206.313 295.103 206.706C296.63 207.098 297.747 208.554 298.369 210.379C298.99 212.2 299.106 214.354 298.657 216.088Z" fill="#92E3A9" stroke="black" stroke-width="0.235427"/>
<path d="M271.618 268.774L271.619 268.775C273.699 269.581 275.392 271.835 276.571 273.915C277.158 274.951 277.613 275.936 277.922 276.663C278.076 277.026 278.194 277.324 278.273 277.531C278.309 277.628 278.338 277.704 278.357 277.758C278.306 277.785 278.233 277.822 278.141 277.869C277.943 277.968 277.654 278.108 277.294 278.271C276.575 278.597 275.572 279.015 274.438 279.382C272.162 280.117 269.389 280.633 267.313 279.822C265.215 279.003 263.044 277.438 261.552 275.694C260.806 274.822 260.233 273.91 259.922 273.029C259.611 272.148 259.564 271.305 259.857 270.563C260.15 269.82 260.758 269.228 261.585 268.786C262.412 268.343 263.45 268.053 264.588 267.911C266.864 267.627 269.517 267.938 271.618 268.774Z" fill="#92E3A9" stroke="black" stroke-width="0.235427"/>
<path d="M281.037 227.286L281.037 227.286L281.03 227.281C280.007 226.531 278.252 224.853 277.331 223.15C276.87 222.297 276.629 221.457 276.771 220.731C276.911 220.016 277.43 219.382 278.562 218.948C280.107 218.363 281.909 219.086 283.491 220.301C285.066 221.511 286.382 223.18 286.942 224.406C287.505 225.698 287.691 227.219 286.866 228.206C286.484 228.583 286.007 228.847 285.485 228.972C284.962 229.096 284.414 229.075 283.902 228.909C282.855 228.549 281.884 227.999 281.037 227.286Z" fill="#92E3A9" stroke="black" stroke-width="0.235427"/>
<path d="M290.543 233.81L290.543 233.81L290.545 233.808C290.562 233.786 290.579 233.764 290.597 233.742C291.225 232.94 292.244 231.64 293.365 230.792C293.941 230.356 294.533 230.048 295.102 229.98C295.664 229.913 296.215 230.079 296.726 230.615C297.243 231.157 297.419 231.694 297.383 232.212C297.346 232.736 297.09 233.255 296.709 233.753C295.946 234.749 294.713 235.614 293.893 236.185L293.892 236.184L293.886 236.19C293.23 236.722 292.464 237.099 291.643 237.295C291.247 237.374 290.836 237.32 290.474 237.142C290.113 236.965 289.821 236.673 289.642 236.313C289.488 235.894 289.555 235.461 289.743 235.033C289.932 234.601 290.238 234.184 290.543 233.81Z" fill="#92E3A9" stroke="black" stroke-width="0.235427"/>
<path d="M276.769 202.125L276.769 202.125L276.775 202.125C277.295 202.068 278.068 202.133 278.924 202.315C279.777 202.496 280.704 202.792 281.531 203.189C282.359 203.587 283.078 204.082 283.526 204.66C283.97 205.232 284.145 205.881 283.902 206.607L283.902 206.607C283.643 207.385 283.167 207.754 282.575 207.868C281.971 207.984 281.232 207.837 280.458 207.543C278.914 206.956 277.296 205.806 276.484 205.178L276.484 205.177C276.165 204.932 275.845 204.639 275.624 204.312C275.404 203.988 275.285 203.64 275.346 203.275C275.433 202.96 275.616 202.68 275.87 202.474C276.126 202.266 276.44 202.144 276.769 202.125Z" fill="#92E3A9" stroke="black" stroke-width="0.235427"/>
<path d="M285.774 191.4L285.788 191.399L285.788 191.399C286.464 191.635 287.163 191.802 287.873 191.897C288.193 191.996 288.503 192.231 288.684 192.508C288.865 192.784 288.905 193.08 288.74 193.328C288.514 193.582 288.199 193.741 287.86 193.773L287.86 193.772L287.848 193.775C286.29 194.09 284.698 194.198 283.111 194.096L283.111 194.096C282.651 194.07 282.154 194.003 281.748 193.826C281.346 193.65 281.044 193.372 280.945 192.92C280.847 192.476 281.042 192.063 281.399 191.746C281.756 191.428 282.262 191.22 282.744 191.191C283.22 191.162 283.695 191.23 284.184 191.3C284.201 191.303 284.219 191.305 284.236 191.308C284.739 191.38 285.255 191.45 285.774 191.4Z" fill="#92E3A9" stroke="black" stroke-width="0.235427"/>
<path d="M298.442 200.859L298.441 200.859C296.866 201.067 295.27 201.067 293.695 200.859L293.695 200.858L293.683 200.858C293.34 200.85 293.014 200.711 292.771 200.469C292.593 200.236 292.614 199.94 292.777 199.65C292.939 199.361 293.23 199.104 293.538 198.981C294.252 198.847 294.95 198.632 295.616 198.341L295.628 198.338C296.14 198.336 296.643 198.233 297.134 198.133L297.141 198.132C297.638 198.03 298.123 197.931 298.615 197.927C299.096 197.922 299.616 198.098 299.994 198.393C300.371 198.687 300.592 199.087 300.518 199.539C300.443 200.001 300.161 200.3 299.776 200.501C299.387 200.704 298.902 200.802 298.442 200.859Z" fill="#92E3A9" stroke="black" stroke-width="0.235427"/>
<path d="M294.693 272.857L294.693 272.857C292.021 275.15 289.888 278.004 288.442 281.214L288.442 281.215C288.062 282.04 287.231 283.911 286.625 285.793C286.322 286.734 286.077 287.674 285.972 288.484C285.866 289.301 285.906 289.96 286.144 290.36L294.693 272.857ZM294.693 272.857L294.701 272.849M294.693 272.857L294.701 272.849M294.701 272.849C294.911 272.63 295.19 272.492 295.491 272.457C295.684 272.479 295.865 272.565 296.002 272.702C296.142 272.843 296.23 273.027 296.248 273.225L296.248 273.225M294.701 272.849L296.248 273.225M296.248 273.225L296.248 273.227M296.248 273.225L296.248 273.227M296.248 273.227C296.295 273.641 296.243 274.06 296.098 274.45L296.097 274.45M296.248 273.227L296.097 274.45M296.097 274.45L296.095 274.457M296.097 274.45L296.095 274.457M296.095 274.457C295.925 275.023 295.318 276.485 294.471 278.321M296.095 274.457L294.471 278.321M294.471 278.321C293.625 280.153 292.544 282.35 291.429 284.381M294.471 278.321L291.429 284.381M291.429 284.381C290.313 286.413 289.168 288.273 288.193 289.438M291.429 284.381L288.193 289.438M288.193 289.438C287.704 290.023 287.269 290.418 286.913 290.58M288.193 289.438L286.913 290.58M286.913 290.58C286.737 290.659 286.592 290.677 286.473 290.645M286.913 290.58L286.473 290.645M286.473 290.645C286.356 290.613 286.244 290.528 286.144 290.36L286.473 290.645Z" fill="#92E3A9" stroke="black" stroke-width="0.235427"/>
<path d="M290.863 196.121C290.863 196.121 290.4 192.088 291.371 191.747" stroke="black" stroke-width="0.235427" stroke-linecap="round" stroke-linejoin="round"/>
<path d="M296.445 188.562L296.445 188.562C296.909 189.198 296.915 190.006 296.613 190.754C296.31 191.502 295.705 192.175 294.976 192.524C293.53 193.218 291.822 193.03 290.185 192.799V192.798V192.797V192.795V192.794V192.792V192.791V192.79V192.788V192.787V192.785V192.784V192.782V192.781V192.78V192.778V192.777V192.775V192.774V192.772V192.771V192.77V192.768V192.767V192.765V192.764V192.762V192.761V192.759V192.758V192.757V192.755V192.754V192.752V192.751V192.749V192.748V192.747V192.745V192.744V192.742V192.741V192.739V192.738V192.737V192.735V192.734V192.732V192.731V192.729V192.728V192.726V192.725V192.724V192.722V192.721V192.719V192.718V192.716V192.715V192.714V192.712V192.711V192.709V192.708V192.706V192.705V192.703V192.702V192.701V192.699V192.698V192.696V192.695V192.693V192.692V192.691V192.689V192.688V192.686V192.685V192.683V192.682V192.681V192.679V192.678V192.676V192.675V192.673V192.672V192.67V192.669V192.668V192.666V192.665V192.663V192.662V192.66V192.659V192.658V192.656V192.655V192.653V192.652V192.65V192.649V192.648V192.646V192.645V192.643V192.642V192.64V192.639V192.637V192.636V192.635V192.633V192.632V192.63V192.629V192.627V192.626V192.625V192.623V192.622V192.62V192.619V192.617V192.616V192.615V192.613V192.612V192.61V192.609V192.607V192.606V192.604V192.603V192.602V192.6V192.599V192.597V192.596V192.594V192.593V192.592V192.59V192.589V192.587V192.586V192.584V192.583V192.582V192.58V192.579V192.577V192.576V192.574V192.573V192.571V192.57V192.569V192.567V192.566V192.564V192.563V192.561V192.56V192.559V192.557V192.556V192.554V192.553V192.551V192.55V192.548V192.547V192.546V192.544V192.543V192.541V192.54V192.538V192.537V192.536V192.534V192.533V192.531V192.53V192.528V192.527V192.526V192.524V192.523V192.521V192.52V192.518V192.517V192.515V192.514V192.513V192.511V192.51V192.508V192.507V192.505V192.504V192.503V192.501V192.5V192.498V192.497V192.495V192.494V192.493V192.491V192.49V192.488V192.487V192.485V192.484V192.482V192.481V192.48V192.478V192.477V192.475V192.474V192.472V192.471V192.47V192.468V192.467V192.465V192.464V192.462V192.461V192.46V192.458V192.457V192.455V192.454V192.452V192.451V192.449V192.448V192.447V192.445V192.444V192.442V192.441V192.439V192.438V192.437V192.435V192.434V192.432V192.431V192.429V192.428V192.427V192.425V192.424V192.422V192.421V192.419V192.418V192.416V192.415V192.414V192.412V192.411V192.409V192.408V192.406V192.405V192.404V192.402V192.401V192.399V192.398V192.396V192.395V192.394V192.392V192.391V192.389V192.388V192.386V192.385V192.383V192.382V192.381V192.379V192.378V192.376V192.375V192.373V192.372V192.371V192.369V192.368V192.366V192.365V192.363V192.362V192.36V192.359V192.358V192.356V192.355V192.353V192.352V192.35V192.349V192.348V192.346V192.345V192.343V192.342V192.34V192.339V192.338V192.336V192.335V192.333V192.332V192.33V192.329V192.327V192.326V192.325V192.323V192.322V192.32V192.319V192.317V192.316V192.315V192.313V192.312V192.31V192.309V192.307V192.306V192.305V192.303V192.302V192.3V192.299V192.297V192.296V192.294V192.293V192.292V192.29V192.289V192.287V192.286V192.284V192.283V192.282V192.28V192.279V192.277V192.276V192.274V192.273V192.272V192.27V192.269V192.267V192.266V192.264V192.263V192.261V192.26V192.259V192.257V192.256V192.254V192.253V192.251V192.25V192.249V192.247V192.246V192.244V192.243V192.241V192.24V192.239V192.237V192.236V192.234V192.233V192.231V192.23V192.228V192.227V192.226V192.224V192.223V192.221V192.22V192.218V192.217V192.216V192.214V192.213V192.211V192.21V192.208V192.207V192.205V192.204V192.203V192.201V192.2V192.198V192.197V192.195V192.194V192.193V192.191V192.19V192.188V192.187V192.185V192.184V192.183V192.181V192.18V192.178V192.177V192.175V192.174V192.172V192.171V192.17V192.168V192.167V192.153L290.182 192.139L290.128 191.919C290.619 190.529 291.457 189.288 292.564 188.314C293.149 187.894 293.913 187.667 294.636 187.691C295.36 187.715 296.03 187.991 296.445 188.562Z" fill="#92E3A9" stroke="black" stroke-width="0.235427"/>
<path d="M294.152 321.746C285.906 323.137 277.485 323.137 269.239 321.746L259.546 293.15H303.845L294.152 321.746Z" fill="white" stroke="black" stroke-width="0.235427" stroke-linecap="round" stroke-linejoin="round"/>
<path d="M125.095 115.143V115.24C125.13 115.397 125.165 115.563 125.2 115.738C125.596 117.654 125.888 119.59 126.074 121.538C126.241 123.209 126.363 125.116 126.407 127.241C126.496 132.142 126.169 137.04 125.427 141.885C125.235 143.162 125.007 144.509 124.736 145.856C124.307 148.078 123.774 150.405 123.135 152.811C122.838 153.931 122.514 155.076 122.164 156.231C122.024 156.704 121.884 157.167 121.753 157.64C121.622 158.112 121.429 158.777 121.281 159.389" stroke="black" stroke-width="0.235427" stroke-linecap="round" stroke-linejoin="round"/>
<path d="M125.112 115.266C124.485 114.716 123.798 114.238 123.065 113.84C122.257 113.414 121.399 113.091 120.511 112.878" fill="white"/>
<path d="M125.112 115.266C124.485 114.716 123.798 114.238 123.065 113.84C122.257 113.414 121.399 113.091 120.511 112.878" stroke="black" stroke-width="0.235427" stroke-linecap="round" stroke-linejoin="round"/>
<path d="M126.092 121.564L128.427 119.456" stroke="black" stroke-width="0.235427" stroke-linecap="round" stroke-linejoin="round"/>
<path d="M123.135 152.855C123.01 152.24 122.826 151.64 122.584 151.061C122.239 150.213 121.77 149.42 121.193 148.708C120.762 148.174 120.272 147.69 119.732 147.265" stroke="black" stroke-width="0.235427" stroke-linecap="round" stroke-linejoin="round"/>
<path d="M121.272 159.38C121.598 158.563 122.09 157.822 122.716 157.203C123.342 156.584 124.09 156.102 124.911 155.785" stroke="black" stroke-width="0.235427" stroke-linecap="round" stroke-linejoin="round"/>
<path d="M117.222 191.957C118 191.012 118.595 187.434 118.91 185.51C118.98 185.055 119.05 184.635 119.102 184.381" fill="white"/>
<path d="M117.222 191.957C118 191.012 118.595 187.434 118.91 185.51C118.98 185.055 119.05 184.635 119.102 184.381" stroke="black" stroke-width="0.235427" stroke-linecap="round" stroke-linejoin="round"/>
<path d="M111.23 198.412C111.491 198.386 111.755 198.386 112.017 198.412C113.162 198.527 114.254 198.949 115.178 199.634C116.103 200.32 116.824 201.243 117.265 202.305" fill="white"/>
<path d="M111.23 198.412C111.491 198.386 111.755 198.386 112.017 198.412C113.162 198.527 114.254 198.949 115.178 199.634C116.103 200.32 116.824 201.243 117.265 202.305" stroke="black" stroke-width="0.235427" stroke-linecap="round" stroke-linejoin="round"/>
<path d="M124.727 145.927C124.727 145.927 125.147 131.729 117.344 126.577" stroke="black" stroke-width="0.235427" stroke-linecap="round" stroke-linejoin="round"/>
<path d="M119.274 185.893L119.222 185.886C119.153 185.877 119.051 185.863 118.922 185.843C118.662 185.805 118.29 185.746 117.841 185.665C116.941 185.503 115.731 185.253 114.49 184.9C113.247 184.547 111.977 184.092 110.955 183.523C109.929 182.951 109.176 182.276 108.927 181.494C108.415 179.88 108.747 177.726 109.784 175.796C110.819 173.869 112.546 172.184 114.798 171.495C117.05 170.806 119.431 171.224 121.378 172.228C123.327 173.233 124.824 174.815 125.323 176.429C125.563 177.213 125.325 178.194 124.802 179.244C124.281 180.29 123.49 181.381 122.664 182.374C121.839 183.365 120.981 184.255 120.329 184.896C120.004 185.217 119.73 185.475 119.537 185.653C119.441 185.742 119.365 185.811 119.313 185.858L119.274 185.893Z" fill="#92E3A9" stroke="black" stroke-width="0.235427"/>
<path d="M125.948 142.002C125.856 142.039 125.783 142.068 125.734 142.087C125.7 142.046 125.651 141.987 125.589 141.911C125.462 141.756 125.283 141.53 125.07 141.249C124.644 140.685 124.085 139.898 123.556 139.002C123.026 138.105 122.526 137.103 122.216 136.109C121.905 135.114 121.787 134.139 122.007 133.289C122.455 131.555 123.601 129.729 125.027 128.439C126.456 127.145 128.139 126.412 129.667 126.804C131.193 127.197 132.308 128.653 132.933 130.478C133.556 132.299 133.678 134.454 133.247 136.188C133.036 137.032 132.465 137.827 131.713 138.547C130.963 139.266 130.041 139.902 129.142 140.432C128.244 140.962 127.372 141.383 126.725 141.672C126.401 141.816 126.134 141.927 125.948 142.002Z" fill="#92E3A9" stroke="black" stroke-width="0.235427"/>
<path d="M112.863 197.631C112.899 197.727 112.928 197.803 112.947 197.857C112.896 197.884 112.823 197.921 112.731 197.967C112.533 198.067 112.244 198.207 111.884 198.37C111.165 198.696 110.162 199.114 109.027 199.48C106.75 200.216 103.975 200.732 101.895 199.921C99.7922 199.102 97.6212 197.537 96.1309 195.793C95.3859 194.921 94.815 194.009 94.506 193.128C94.1971 192.247 94.1523 191.404 94.4472 190.662C94.7423 189.919 95.3506 189.33 96.1759 188.89C97.0013 188.45 98.0375 188.163 99.1732 188.023C101.445 187.744 104.094 188.054 106.201 188.874C108.281 189.684 109.976 191.938 111.157 194.017C111.745 195.053 112.201 196.037 112.511 196.763C112.666 197.126 112.783 197.424 112.863 197.631Z" fill="#92E3A9" stroke="black" stroke-width="0.235427"/>
<path d="M115.618 147.385L115.618 147.384L115.612 147.38C114.584 146.621 112.829 144.938 111.908 143.235C111.447 142.383 111.206 141.544 111.347 140.82C111.487 140.107 112.004 139.476 113.134 139.047C114.684 138.462 116.486 139.185 118.066 140.399C119.641 141.609 120.955 143.278 121.514 144.505C122.078 145.796 122.264 147.318 121.439 148.305C121.057 148.681 120.579 148.946 120.057 149.07C119.534 149.195 118.987 149.173 118.475 149.008C117.431 148.647 116.462 148.097 115.618 147.385Z" fill="#92E3A9" stroke="black" stroke-width="0.235427"/>
<path d="M128.466 156.292L128.465 156.291L128.458 156.297C127.804 156.831 127.037 157.209 126.216 157.402C125.82 157.481 125.409 157.428 125.047 157.25C124.686 157.072 124.393 156.781 124.214 156.42C124.066 156.024 124.134 155.592 124.322 155.156C124.512 154.718 124.817 154.291 125.116 153.917C125.169 153.852 125.224 153.783 125.281 153.712C125.933 152.901 126.9 151.697 127.954 150.896C128.528 150.46 129.115 150.153 129.681 150.086C130.239 150.02 130.788 150.186 131.299 150.723C131.815 151.264 131.992 151.802 131.955 152.321C131.919 152.845 131.663 153.365 131.282 153.863C130.519 154.861 129.286 155.726 128.466 156.292Z" fill="#92E3A9" stroke="black" stroke-width="0.235427"/>
<path d="M111.342 122.224L111.342 122.224C111.014 122.244 110.7 122.367 110.444 122.574C110.191 122.78 110.007 123.06 109.919 123.374C109.858 123.739 109.976 124.087 110.197 124.411C110.42 124.737 110.741 125.03 111.065 125.276L111.065 125.276C111.877 125.905 113.493 127.055 115.036 127.642C115.809 127.936 116.548 128.083 117.153 127.966C117.745 127.852 118.223 127.483 118.483 126.706L111.342 122.224ZM111.342 122.224L111.347 122.223M111.342 122.224L111.347 122.223M111.347 122.223C111.87 122.166 112.644 122.232 113.5 122.413M111.347 122.223L113.5 122.413M113.5 122.413C114.354 122.595 115.281 122.89 116.108 123.287M113.5 122.413L116.108 123.287M116.108 123.287C116.936 123.685 117.655 124.181 118.103 124.758M116.108 123.287L118.103 124.758M118.103 124.758C118.548 125.331 118.725 125.98 118.483 126.705L118.103 124.758Z" fill="#92E3A9" stroke="black" stroke-width="0.235427"/>
<path d="M120.347 111.499L120.36 111.498L120.361 111.498C121.04 111.734 121.741 111.901 122.454 111.996C122.769 112.094 123.077 112.329 123.259 112.606C123.44 112.883 123.482 113.179 123.322 113.427C123.092 113.681 122.775 113.84 122.433 113.872L122.433 113.871L122.421 113.873C120.866 114.189 119.276 114.297 117.693 114.195L117.692 114.195C117.228 114.169 116.733 114.102 116.33 113.925C115.93 113.749 115.629 113.47 115.526 113.018C115.425 112.574 115.621 112.163 115.98 111.845C116.339 111.527 116.848 111.318 117.325 111.289C117.796 111.261 118.269 111.329 118.755 111.399C118.774 111.401 118.792 111.404 118.81 111.407C119.312 111.479 119.828 111.549 120.347 111.499Z" fill="#92E3A9" stroke="black" stroke-width="0.235427"/>
<path d="M133.014 120.957L133.013 120.958C131.438 121.166 129.843 121.166 128.268 120.958L128.268 120.957L128.255 120.957C127.913 120.949 127.586 120.809 127.344 120.568C127.165 120.335 127.187 120.038 127.35 119.749C127.513 119.459 127.807 119.202 128.119 119.08C128.835 118.943 129.533 118.727 130.202 118.437L130.205 118.436C130.719 118.434 131.223 118.332 131.713 118.232L131.727 118.229C132.222 118.128 132.702 118.029 133.187 118.025C133.664 118.021 134.185 118.196 134.565 118.491C134.945 118.786 135.169 119.187 135.099 119.639C135.028 120.099 134.745 120.398 134.357 120.599C133.965 120.802 133.474 120.901 133.014 120.957Z" fill="#92E3A9" stroke="black" stroke-width="0.235427"/>
<path d="M129.265 192.956L129.265 192.956L129.273 192.948C129.484 192.731 129.762 192.593 130.063 192.557C130.254 192.582 130.433 192.67 130.57 192.807C130.709 192.946 130.798 193.129 130.821 193.326C130.864 193.74 130.81 194.159 130.662 194.548L130.662 194.548L130.659 194.556C130.491 195.122 129.885 196.584 129.039 198.42C128.194 200.252 127.112 202.448 125.997 204.479C124.882 206.512 123.736 208.372 122.762 209.537C122.273 210.122 121.838 210.517 121.483 210.679C121.307 210.758 121.163 210.776 121.044 210.744C120.928 210.712 120.816 210.627 120.717 210.459L120.717 210.459C120.476 210.058 120.434 209.4 120.539 208.583C120.644 207.772 120.888 206.833 121.19 205.892C121.795 204.01 122.626 202.139 123.006 201.314L123.006 201.313C124.454 198.102 126.591 195.249 129.265 192.956Z" fill="#92E3A9" stroke="black" stroke-width="0.235427"/>
<path d="M125.436 116.237C125.436 116.237 124.972 112.204 125.952 111.863" stroke="black" stroke-width="0.235427" stroke-linecap="round" stroke-linejoin="round"/>
<path d="M131.044 108.661L131.044 108.661C131.508 109.297 131.514 110.104 131.212 110.852C130.909 111.601 130.304 112.273 129.575 112.623C128.129 113.317 126.43 113.129 124.792 112.898V112.897V112.895V112.894V112.893V112.891V112.89V112.888V112.887V112.885V112.884V112.882V112.881V112.88V112.878V112.877V112.875V112.874V112.872V112.871V112.87V112.868V112.867V112.865V112.864V112.862V112.861V112.86V112.858V112.857V112.855V112.854V112.852V112.851V112.849V112.848V112.847V112.845V112.844V112.842V112.841V112.839V112.838V112.837V112.835V112.834V112.832V112.831V112.829V112.828V112.827V112.825V112.824V112.822V112.821V112.819V112.818V112.816V112.815V112.814V112.812V112.811V112.809V112.808V112.806V112.805V112.804V112.802V112.801V112.799V112.798V112.796V112.795V112.794V112.792V112.791V112.789V112.788V112.786V112.785V112.783V112.782V112.781V112.779V112.778V112.776V112.775V112.773V112.772V112.771V112.769V112.768V112.766V112.765V112.763V112.762V112.76V112.759V112.758V112.756V112.755V112.753V112.752V112.75V112.749V112.748V112.746V112.745V112.743V112.742V112.74V112.739V112.738V112.736V112.735V112.733V112.732V112.73V112.729V112.727V112.726V112.725V112.723V112.722V112.72V112.719V112.717V112.716V112.715V112.713V112.712V112.71V112.709V112.707V112.706V112.705V112.703V112.702V112.7V112.699V112.697V112.696V112.694V112.693V112.692V112.69V112.689V112.687V112.686V112.684V112.683V112.682V112.68V112.679V112.677V112.676V112.674V112.673V112.672V112.67V112.669V112.667V112.666V112.664V112.663V112.661V112.66V112.659V112.657V112.656V112.654V112.653V112.651V112.65V112.649V112.647V112.646V112.644V112.643V112.641V112.64V112.639V112.637V112.636V112.634V112.633V112.631V112.63V112.628V112.627V112.626V112.624V112.623V112.621V112.62V112.618V112.617V112.616V112.614V112.613V112.611V112.61V112.608V112.607V112.605V112.604V112.603V112.601V112.6V112.598V112.597V112.595V112.594V112.593V112.591V112.59V112.588V112.587V112.585V112.584V112.583V112.581V112.58V112.578V112.577V112.575V112.574V112.572V112.571V112.57V112.568V112.567V112.565V112.564V112.562V112.561V112.56V112.558V112.557V112.555V112.554V112.552V112.551V112.55V112.548V112.547V112.545V112.544V112.542V112.541V112.539V112.538V112.537V112.535V112.534V112.532V112.531V112.529V112.528V112.527V112.525V112.524V112.522V112.521V112.519V112.518V112.517V112.515V112.514V112.512V112.511V112.509V112.508V112.506V112.505V112.504V112.502V112.501V112.499V112.498V112.496V112.495V112.494V112.492V112.491V112.489V112.488V112.486V112.485V112.484V112.482V112.481V112.479V112.478V112.476V112.475V112.473V112.472V112.471V112.469V112.468V112.466V112.465V112.463V112.462V112.461V112.459V112.458V112.456V112.455V112.453V112.452V112.451V112.449V112.448V112.446V112.445V112.443V112.442V112.44V112.439V112.438V112.436V112.435V112.433V112.432V112.43V112.429V112.428V112.426V112.425V112.423V112.422V112.42V112.419V112.417V112.416V112.415V112.413V112.412V112.41V112.409V112.407V112.406V112.405V112.403V112.402V112.4V112.399V112.397V112.396V112.395V112.393V112.392V112.39V112.389V112.387V112.386V112.384V112.383V112.382V112.38V112.379V112.377V112.376V112.374V112.373V112.372V112.37V112.369V112.367V112.366V112.364V112.363V112.362V112.36V112.359V112.357V112.356V112.354V112.353V112.351V112.35V112.349V112.347V112.346V112.344V112.343V112.341V112.34V112.339V112.337V112.336V112.334V112.333V112.331V112.33V112.329V112.327V112.326V112.324V112.323V112.321V112.32V112.318V112.317V112.316V112.314V112.313V112.311V112.31V112.308V112.307V112.306V112.304V112.303V112.301V112.3V112.298V112.297V112.296V112.294V112.293V112.291V112.29V112.288V112.287V112.285V112.284V112.283V112.281V112.28V112.278V112.277V112.275V112.274V112.273V112.271V112.27V112.268V112.267V112.265V112.251L124.789 112.238L124.736 112.018C125.22 110.625 126.059 109.382 127.171 108.413C127.757 107.993 128.519 107.765 129.239 107.789C129.961 107.814 130.629 108.089 131.044 108.661Z" fill="#92E3A9" stroke="black" stroke-width="0.235427"/>
<path d="M14.2614 211.84V125.405" stroke="black" stroke-width="0.235427" stroke-linecap="round" stroke-linejoin="round"/>
<path d="M284.127 211.84H273.446" stroke="black" stroke-width="0.235427" stroke-linecap="round" stroke-linejoin="round"/>
<path d="M367.886 211.84H346.131" stroke="black" stroke-width="0.235427" stroke-linecap="round" stroke-linejoin="round"/>
<path d="M272.467 80.5289H311.018V43.8062" stroke="black" stroke-width="0.235427" stroke-linecap="round" stroke-linejoin="round"/>
<path d="M47.7738 69.3143H88.7304V99.1877H133.624" stroke="black" stroke-width="0.235427" stroke-linecap="round" stroke-linejoin="round"/>
<path d="M23.6127 170.481V104.471" stroke="black" stroke-width="0.235427" stroke-linecap="round" stroke-linejoin="round"/>
<path d="M41.9129 75.8226V127.556" stroke="black" stroke-width="0.235427" stroke-linecap="round" stroke-linejoin="round"/>
<path d="M60.2043 75.8226V121.556" stroke="black" stroke-width="0.235427" stroke-linecap="round" stroke-linejoin="round"/>
<path d="M78.4957 75.8226V155.82" stroke="black" stroke-width="0.235427" stroke-linecap="round" stroke-linejoin="round"/>
<path d="M166.121 64.4769V11.8771H240.59V64.4769" stroke="black" stroke-width="0.235427" stroke-linecap="round" stroke-linejoin="round"/>
<path d="M171.58 38.0064V18.1229H185.349" stroke="black" stroke-width="0.235427" stroke-linecap="round" stroke-linejoin="round"/>
<path d="M188.375 38.0064V18.1229H202.144" stroke="black" stroke-width="0.235427" stroke-linecap="round" stroke-linejoin="round"/>
<path d="M205.171 38.0064V18.1229H218.94" stroke="black" stroke-width="0.235427" stroke-linecap="round" stroke-linejoin="round"/>
<path d="M221.966 38.0064V18.1229H235.735" stroke="black" stroke-width="0.235427" stroke-linecap="round" stroke-linejoin="round"/>
<path d="M171.58 64.4769V44.5934H185.349" stroke="black" stroke-width="0.235427" stroke-linecap="round" stroke-linejoin="round"/>
<path d="M188.375 64.4769V44.5934H202.144" stroke="black" stroke-width="0.235427" stroke-linecap="round" stroke-linejoin="round"/>
<path d="M205.171 64.4769V44.5934H218.94" stroke="black" stroke-width="0.235427" stroke-linecap="round" stroke-linejoin="round"/>
<path d="M221.966 64.4769V44.5934H235.735" stroke="black" stroke-width="0.235427" stroke-linecap="round" stroke-linejoin="round"/>
<path d="M316.984 48.3547V114.269" stroke="black" stroke-width="0.235427" stroke-linecap="round" stroke-linejoin="round"/>
<path d="M344.023 207.011H346.131" stroke="black" stroke-width="0.235427" stroke-linecap="round" stroke-linejoin="round"/>
<path d="M333.193 67.2849V141.08" stroke="black" stroke-width="0.235427" stroke-linecap="round" stroke-linejoin="round"/>
<path d="M349.411 188.169V207.011H362.349" stroke="black" stroke-width="0.235427" stroke-linecap="round" stroke-linejoin="round"/>
<path d="M349.411 91.3409V141.456" stroke="black" stroke-width="0.235427" stroke-linecap="round" stroke-linejoin="round"/>
<path d="M365.621 129.367V207.012H368.569" stroke="black" stroke-width="0.235427" stroke-linecap="round" stroke-linejoin="round"/>
<path d="M168.081 213.424H1V321.947H168.081V213.424Z" fill="white" stroke="black" stroke-width="0.235427" stroke-linecap="round" stroke-linejoin="round"/>
<path d="M1 213.424L84.5404 267.685L168.081 213.424H1Z" fill="white" stroke="black" stroke-width="0.235427" stroke-linecap="round" stroke-linejoin="round"/>
<path d="M59.4258 251.371L1 321.947" stroke="black" stroke-width="0.235427" stroke-linecap="round" stroke-linejoin="round"/>
<path d="M110.11 251.371L168.536 321.947" stroke="black" stroke-width="0.235427" stroke-linecap="round" stroke-linejoin="round"/>
<path d="M257.491 75.0655L257.492 75.0655C259.613 75.0378 261.657 75.8532 263.177 77.3323C264.696 78.8111 265.566 80.8325 265.596 82.9524V301.967C265.564 304.086 264.693 306.106 263.174 307.585C261.655 309.063 259.612 309.879 257.492 309.854H257.491L149.579 309.854L149.578 309.854C147.459 309.879 145.417 309.063 143.899 307.584C142.382 306.105 141.513 304.085 141.483 301.967V82.9089C141.497 81.8597 141.717 80.8234 142.131 79.8593C142.545 78.8949 143.145 78.0215 143.897 77.289C144.648 76.5565 145.537 75.9793 146.512 75.5903C147.486 75.2012 148.528 75.008 149.578 75.0217V75.0217H149.579H188.375C189.482 75.0217 190.568 75.3208 191.518 75.8874C192.468 76.454 193.248 77.267 193.774 78.2404L193.775 78.2414C194.739 79.9824 196.152 81.4333 197.867 82.4436C199.582 83.4539 201.536 83.9867 203.526 83.9867C205.517 83.9867 207.471 83.4539 209.185 82.4436C210.9 81.4333 212.313 79.9824 213.278 78.2414L213.278 78.2413C213.808 77.2803 214.587 76.479 215.531 75.9205C216.476 75.362 217.554 75.0668 218.651 75.0655L257.491 75.0655Z" fill="#92E3A9" stroke="black" stroke-width="0.235427"/>
<path d="M269.384 80.5285V80.5288V310.715C269.381 313.657 268.211 316.477 266.13 318.556C264.05 320.635 261.228 321.803 258.287 321.803H148.783C145.843 321.803 143.022 320.635 140.943 318.556C138.863 316.476 137.695 313.656 137.695 310.715V80.4851C137.695 79.0282 137.982 77.5857 138.54 76.2399C139.098 74.894 139.915 73.6713 140.946 72.6416C141.977 71.6118 143.2 70.7953 144.546 70.2386C145.892 69.6818 147.335 69.3959 148.792 69.397H148.792H258.287C259.747 69.397 261.193 69.6852 262.541 70.245C263.89 70.8048 265.115 71.6253 266.146 72.6594C267.177 73.6935 267.993 74.9209 268.549 76.2712C269.105 77.6216 269.388 79.0683 269.384 80.5285ZM265.831 301.969V301.968L265.831 82.9957L265.831 82.9941C265.817 81.9138 265.591 80.8467 265.164 79.8539C264.738 78.8611 264.12 77.962 263.347 77.2079C262.573 76.4538 261.658 75.8596 260.654 75.4591C259.651 75.0587 258.579 74.8599 257.499 74.8738H218.66C217.52 74.8733 216.4 75.1791 215.419 75.7592C214.438 76.3392 213.63 77.1722 213.081 78.1711C212.137 79.8753 210.753 81.2956 209.075 82.2846C207.396 83.2735 205.483 83.7951 203.535 83.7951C201.587 83.7951 199.674 83.2735 197.995 82.2846C196.317 81.2957 194.934 79.8757 193.99 78.1718C193.446 77.1614 192.638 76.3172 191.653 75.7288C190.667 75.1403 189.541 74.8297 188.393 74.8301H149.58C148.5 74.8161 147.428 75.015 146.424 75.4154C145.421 75.8159 144.506 76.4101 143.732 77.1642C142.958 77.9182 142.341 78.8173 141.914 79.8101C141.488 80.803 141.262 81.87 141.248 82.9504H141.248V82.9519L141.248 301.968L141.248 301.969C141.278 304.15 142.173 306.23 143.735 307.753C145.297 309.275 147.4 310.116 149.581 310.089H257.489C259.671 310.116 261.775 309.275 263.338 307.753C264.902 306.231 265.799 304.151 265.831 301.969Z" fill="#263238" stroke="black" stroke-width="0.235427"/>
<path opacity="0.2" d="M258.333 69.432L188.356 321.795L159.717 321.821L232.386 69.432H258.333Z" fill="white" stroke="black" stroke-width="0.235427"/>
<path opacity="0.2" d="M224.057 69.432L148.669 321.804L144.709 321.829L221.538 69.432H224.057Z" fill="white" stroke="black" stroke-width="0.235427"/>
<path d="M223.156 257.118C223.21 259.622 222.762 262.112 221.839 264.44C220.916 266.768 219.536 268.888 217.781 270.675C216.026 272.462 213.931 273.88 211.619 274.844C209.308 275.809 206.827 276.302 204.322 276.293C199.212 276.274 194.311 274.258 190.667 270.675C187.022 267.093 184.922 262.228 184.815 257.118C184.763 254.615 185.211 252.126 186.135 249.799C187.059 247.472 188.439 245.353 190.194 243.567C191.949 241.781 194.043 240.364 196.354 239.4C198.665 238.436 201.145 237.943 203.649 237.952C208.758 237.969 213.659 239.983 217.304 243.564C220.949 247.145 223.049 252.01 223.156 257.118Z" fill="white" stroke="black" stroke-width="0.235427" stroke-linecap="round" stroke-linejoin="round"/>
<path d="M197.7 271.429C195.92 270.771 194.288 269.766 192.898 268.473C191.497 267.127 190.412 265.486 189.722 263.67C188.936 261.634 188.547 259.467 188.577 257.285C188.566 255.424 188.895 253.577 189.548 251.835C190.141 250.225 191.031 248.742 192.172 247.461C194.42 245.001 197.325 243.235 200.543 242.37C202.123 241.944 203.753 241.729 205.39 241.731C206.748 241.725 208.103 241.887 209.422 242.212C210.695 242.525 211.914 243.029 213.035 243.708C214.145 244.375 215.141 245.217 215.983 246.201C216.861 247.262 217.531 248.479 217.96 249.788C218.45 251.281 218.693 252.844 218.677 254.415C218.659 257.452 217.565 260.384 215.589 262.691C214.74 263.654 213.734 264.467 212.615 265.096C211.65 265.65 210.561 265.951 209.449 265.971C208.68 265.981 207.93 265.738 207.314 265.28C207.005 265.051 206.753 264.753 206.578 264.41C206.404 264.067 206.311 263.688 206.308 263.303C205.734 264.175 204.947 264.887 204.02 265.369C203.094 265.851 202.06 266.089 201.016 266.058C200.195 266.095 199.376 265.948 198.619 265.627C197.862 265.306 197.186 264.82 196.642 264.204C195.55 262.935 194.972 261.303 195.024 259.629C195.031 258.251 195.27 256.885 195.732 255.587C196.192 254.28 196.843 253.047 197.665 251.931C198.485 250.834 199.528 249.924 200.727 249.263C201.925 248.587 203.279 248.234 204.655 248.239C205.611 248.23 206.555 248.458 207.402 248.904C208.223 249.342 208.889 250.024 209.309 250.855L209.483 250.269C209.623 249.858 209.92 249.52 210.308 249.328C210.697 249.136 211.146 249.106 211.557 249.245C211.716 249.299 211.866 249.376 212.003 249.473C212.133 249.577 212.237 249.71 212.305 249.863C212.374 250.015 212.405 250.181 212.396 250.348C212.397 250.511 212.37 250.674 212.318 250.829L209.483 260.259C209.234 260.977 209.072 261.723 209.002 262.481C208.976 262.622 208.985 262.768 209.029 262.904C209.072 263.041 209.149 263.166 209.252 263.266C209.355 263.366 209.481 263.44 209.619 263.48C209.757 263.52 209.903 263.525 210.043 263.495C211.046 263.431 211.986 262.983 212.668 262.244C213.613 261.31 214.339 260.178 214.793 258.929C215.336 257.565 215.615 256.111 215.616 254.643C215.627 253.35 215.438 252.063 215.056 250.829C214.734 249.764 214.225 248.766 213.551 247.881C212.913 247.075 212.141 246.385 211.268 245.843C210.398 245.294 209.448 244.883 208.451 244.627C207.429 244.358 206.376 244.223 205.32 244.224C203.979 244.226 202.645 244.415 201.357 244.784C200.03 245.16 198.766 245.729 197.604 246.472C196.433 247.211 195.373 248.112 194.455 249.149C193.509 250.241 192.774 251.499 192.286 252.858C191.736 254.339 191.46 255.907 191.472 257.486C191.443 259.356 191.782 261.213 192.469 262.953C193.062 264.459 193.996 265.806 195.199 266.889C196.36 267.898 197.702 268.678 199.152 269.19C200.683 269.732 202.296 270.004 203.92 269.995C205.655 269.995 207.381 269.732 209.037 269.216C209.203 269.157 209.378 269.127 209.553 269.129C209.718 269.126 209.88 269.159 210.031 269.223C210.182 269.288 210.317 269.384 210.428 269.505C210.54 269.621 210.627 269.758 210.686 269.908C210.745 270.059 210.773 270.219 210.769 270.38C210.79 270.634 210.719 270.888 210.568 271.093C210.417 271.299 210.196 271.443 209.947 271.499C207.883 272.131 205.738 272.461 203.579 272.479C201.573 272.477 199.583 272.121 197.7 271.429ZM204.926 262.358C205.791 261.737 206.432 260.854 206.754 259.839L208.582 253.409L208.46 253.147C208.346 252.936 208.208 252.739 208.049 252.561C207.83 252.308 207.59 252.074 207.332 251.861C207.004 251.599 206.634 251.395 206.238 251.257C205.203 250.896 204.069 250.936 203.063 251.371C202.511 251.605 202.005 251.933 201.567 252.342C201.112 252.767 200.707 253.242 200.36 253.759C200.012 254.297 199.719 254.869 199.485 255.465C199.239 256.061 199.049 256.679 198.916 257.311C198.784 257.911 198.717 258.524 198.715 259.139C198.707 259.534 198.731 259.929 198.785 260.32C198.825 260.668 198.902 261.011 199.013 261.343C199.108 261.653 199.247 261.947 199.424 262.218C199.582 262.463 199.784 262.676 200.019 262.848C200.269 263.029 200.551 263.163 200.85 263.242C201.199 263.344 201.562 263.391 201.926 263.382C203.02 263.395 204.088 263.044 204.961 262.384L204.926 262.358Z" fill="#92E3A9" stroke="black" stroke-width="0.235427" stroke-linecap="round" stroke-linejoin="round"/>
<path d="M222.727 191.397C222.78 193.9 222.331 196.389 221.407 198.716C220.484 201.043 219.104 203.162 217.349 204.948C215.594 206.734 213.499 208.151 211.189 209.115C208.878 210.08 206.398 210.572 203.894 210.563C198.784 210.546 193.884 208.532 190.239 204.951C186.594 201.37 184.494 196.506 184.386 191.397C184.331 188.893 184.779 186.403 185.701 184.074C186.624 181.745 188.004 179.624 189.759 177.837C191.514 176.05 193.61 174.633 195.922 173.668C198.234 172.704 200.715 172.212 203.22 172.222C208.331 172.241 213.231 174.258 216.876 177.84C220.52 181.423 222.62 186.288 222.727 191.397Z" fill="white" stroke="black" stroke-width="0.235427" stroke-linecap="round" stroke-linejoin="round"/>
<path d="M215.589 189.647C209.58 185.711 197.797 185.711 192.067 189.647C191.019 189.844 190.077 190.411 189.412 191.244C188.747 192.077 188.404 193.122 188.445 194.187C188.533 196.733 199.109 196.733 199.021 194.187C198.97 193.123 198.563 192.107 197.867 191.301C201.833 190.443 205.937 190.443 209.903 191.301C209.258 192.121 208.923 193.144 208.959 194.187C209.046 196.733 219.622 196.733 219.526 194.187C219.476 193.098 219.061 192.058 218.346 191.234C217.632 190.41 216.661 189.851 215.589 189.647Z" fill="#92E3A9" stroke="black" stroke-width="0.235427" stroke-linecap="round" stroke-linejoin="round"/>
<path d="M222.728 127.556C222.832 132.271 220.261 136.488 216.132 139.296V150.746L207.918 142.524C206.59 142.761 205.243 142.878 203.894 142.874C193.309 142.874 184.57 136.015 184.386 127.556C184.203 119.097 192.627 112.248 203.22 112.248C213.814 112.248 222.588 119.141 222.728 127.556Z" fill="white" stroke="black" stroke-width="0.235427" stroke-linecap="round" stroke-linejoin="round"/>
<path d="M195.391 127.556C195.393 128.048 195.248 128.529 194.977 128.939C194.705 129.349 194.317 129.668 193.863 129.858C193.41 130.047 192.91 130.098 192.427 130.003C191.945 129.908 191.501 129.672 191.153 129.325C190.805 128.978 190.567 128.535 190.471 128.053C190.374 127.571 190.423 127.071 190.611 126.616C190.798 126.162 191.117 125.773 191.526 125.5C191.934 125.227 192.415 125.081 192.907 125.081C193.564 125.081 194.195 125.341 194.66 125.805C195.126 126.269 195.389 126.899 195.391 127.556Z" fill="#92E3A9" stroke="black" stroke-width="0.235427" stroke-linecap="round" stroke-linejoin="round"/>
<path d="M206.019 127.556C206.021 128.048 205.877 128.529 205.605 128.939C205.333 129.349 204.946 129.668 204.492 129.858C204.038 130.047 203.538 130.098 203.056 130.003C202.573 129.908 202.13 129.672 201.782 129.325C201.433 128.978 201.196 128.535 201.099 128.053C201.003 127.571 201.051 127.071 201.239 126.616C201.427 126.162 201.745 125.773 202.154 125.5C202.563 125.227 203.043 125.081 203.535 125.081C204.192 125.081 204.823 125.341 205.289 125.805C205.754 126.269 206.017 126.899 206.019 127.556Z" fill="#92E3A9" stroke="black" stroke-width="0.235427" stroke-linecap="round" stroke-linejoin="round"/>
<path d="M216.648 127.556C216.65 128.048 216.505 128.529 216.233 128.939C215.962 129.349 215.574 129.668 215.12 129.858C214.667 130.047 214.167 130.098 213.684 130.003C213.202 129.908 212.758 129.672 212.41 129.325C212.062 128.978 211.824 128.535 211.728 128.053C211.631 127.571 211.68 127.071 211.867 126.616C212.055 126.162 212.374 125.773 212.782 125.5C213.191 125.227 213.672 125.081 214.164 125.081C214.821 125.081 215.451 125.341 215.917 125.805C216.383 126.269 216.646 126.899 216.648 127.556Z" fill="#92E3A9" stroke="black" stroke-width="0.235427" stroke-linecap="round" stroke-linejoin="round"/>
<path d="M96.4459 162.469C96.1355 163.046 95.6879 163.539 95.1425 163.903C91.1069 167.122 86.978 170.21 82.7558 173.167C81.2075 174.252 79.5979 175.371 78.1021 176.587C69.1094 182.606 74.603 184.075 69.1094 196.812C67.8148 199.856 68.051 214.771 68.051 214.771H67.6048C66.5518 213.732 65.4327 212.762 64.2545 211.867C64.0917 211.757 63.9223 211.658 63.7471 211.569C63.5828 211.485 63.4053 211.428 63.2223 211.403C62.3475 211.351 59.0146 211.753 55.6468 211.534L54.772 211.464C54.2821 211.412 53.801 211.351 53.3199 211.263C52.8388 211.176 52.3751 211.079 51.929 210.957C48.7329 209.932 45.5989 208.723 42.5427 207.335L41.0206 206.679L40.2683 206.356L39.586 206.058L39.0961 205.848L38.6238 205.647C37.8277 205.315 37.0842 205.009 36.4019 204.772C36.0891 204.66 35.7709 204.564 35.4484 204.484C35.4484 205.201 35.3347 205.936 35.2384 206.653C34.8185 210.073 33.8825 213.231 32.2117 213.651C32.1773 213.66 32.1412 213.66 32.1068 213.651C31.9596 213.679 31.8103 213.693 31.6606 213.695H31.5294C31.1593 213.688 30.7929 213.62 30.4447 213.494C28.9283 212.847 27.6892 211.685 26.9456 210.213C26.6134 209.593 26.4278 208.905 26.4033 208.201C26.4033 205.656 25.6947 190.636 25.6947 186.262C25.6947 181.888 26.5695 174.234 28.7476 171.391C29.5989 170.186 30.674 169.155 31.9143 168.356C33.5103 167.025 35.3408 166.005 37.3116 165.347C39.6385 164.586 44.8434 162.644 48.4737 161.27L42.9889 163.387C44.3798 165.766 47.3627 169.51 52.7425 169.992C57.7987 170.42 60.9304 165.845 62.5312 162.504C62.6712 162.556 71.4713 160.885 73.5095 160.981C80.149 161.27 85.5638 157.675 88.0132 156.249C88.752 155.808 89.581 155.539 90.4383 155.463C91.2956 155.387 92.159 155.505 92.964 155.81C93.7689 156.114 94.4947 156.597 95.0871 157.221C95.6794 157.846 96.123 158.596 96.3847 159.416V159.494C96.7674 160.445 96.7892 161.503 96.4459 162.469Z" fill="#92E3A9" stroke="black" stroke-width="0.235427" stroke-linecap="round" stroke-linejoin="round"/>
<path d="M62.435 162.556L62.0326 162.416L62.435 162.556Z" fill="white" stroke="black" stroke-width="0.235427" stroke-linecap="round" stroke-linejoin="round"/>
<path d="M69.8967 218.62C69.9009 218.655 69.9009 218.69 69.8967 218.725C69.8612 218.81 69.8072 218.885 69.7386 218.946C69.67 219.007 69.5886 219.051 69.5004 219.077C69.4123 219.102 69.3196 219.107 69.2292 219.092C69.1388 219.076 69.053 219.041 68.9782 218.988C68.5758 218.76 67.9547 217.299 67.9547 217.299L67.2637 216.582L66.8088 216.101C66.8788 216.276 67.4299 217.614 67.1412 218.235C67.1265 218.278 67.1026 218.317 67.0712 218.349C66.8779 218.607 66.6271 218.817 66.3385 218.961C66.05 219.105 65.7318 219.18 65.4092 219.18C65.033 219.18 63.9308 219.311 62.9686 219.372H62.8636C62.5722 219.389 62.2802 219.389 61.9888 219.372C61.2121 219.273 60.4629 219.02 59.7844 218.629C58.2455 218.403 56.7293 218.043 55.2531 217.553L54.9907 217.413L54.7545 217.273C54.5992 217.179 54.4553 217.068 54.3259 216.941C53.7928 216.496 53.34 215.964 52.9875 215.366C52.9875 215.366 49.4359 215.217 44.6684 214.85C42.9189 214.719 41.0294 214.552 39.0699 214.36C36.0607 214.054 33.5763 214.071 31.6256 213.8H31.4857C31.1008 213.748 30.7421 213.678 30.4009 213.599C29.5684 213.436 28.7985 213.042 28.1797 212.462C27.5608 211.882 27.1179 211.139 26.9019 210.319C26.7873 209.93 26.6939 209.536 26.6219 209.138L28.144 206.513C28.9374 205.877 29.8221 205.364 30.7683 204.991C32.2365 204.377 33.8576 204.227 35.4134 204.563C35.7358 204.643 36.0541 204.739 36.3669 204.851C37.0492 205.114 37.7927 205.42 38.5888 205.726L39.0699 205.927L39.5598 206.137L40.2421 206.435C44.1348 208.044 48.7798 210.117 51.8853 210.992C52.818 211.236 53.7686 211.406 54.7282 211.5L55.603 211.57C58.9709 211.788 62.295 211.386 63.1785 211.438C64.062 211.491 66.2227 213.546 67.6048 214.815C67.981 215.165 68.3134 215.453 68.5408 215.628L68.6458 215.716L68.7245 215.786C69.2255 216.3 69.5764 216.941 69.7393 217.64C69.8081 217.875 69.855 218.115 69.8792 218.358C69.8951 218.444 69.901 218.532 69.8967 218.62Z" fill="white" stroke="black" stroke-width="0.235427" stroke-linecap="round" stroke-linejoin="round"/>
<path d="M69.8967 218.62C69.9009 218.655 69.9009 218.69 69.8967 218.725C69.8603 218.809 69.8056 218.883 69.7367 218.943C69.6677 219.003 69.5862 219.047 69.4981 219.071C69.41 219.096 69.3176 219.1 69.2277 219.084C69.1377 219.068 69.0525 219.032 68.9782 218.979C68.5457 218.477 68.1998 217.906 67.9547 217.29L67.2637 216.582L66.8088 216.109C66.87 216.249 67.4386 217.614 67.15 218.244C67.1353 218.286 67.1114 218.325 67.08 218.358C66.983 218.487 66.8714 218.604 66.7476 218.707C66.3704 219.011 65.9017 219.177 65.4179 219.18C65.033 219.18 63.9396 219.302 62.9861 219.372H62.8636C62.5722 219.389 62.2802 219.389 61.9888 219.372C61.2169 219.269 60.4717 219.02 59.7932 218.638C58.2543 218.407 56.7382 218.044 55.2619 217.553L55.0082 217.43L54.772 217.29C54.6207 217.191 54.4774 217.08 54.3433 216.958C53.8024 216.51 53.3436 215.971 52.9875 215.366C52.9875 215.366 49.5409 215.217 44.8696 214.859C43.1201 214.727 41.0994 214.552 39.0699 214.351C36.3056 214.08 34.0225 214.001 32.1767 213.713L31.6081 213.608L30.9521 213.459C30.8008 212.387 30.9119 211.294 31.2757 210.275C31.6148 209.414 32.1407 208.64 32.8154 208.008C33.4901 207.376 34.2967 206.901 35.1772 206.618C36.2698 206.216 37.3894 205.892 38.5275 205.647L38.9999 205.848L39.4898 206.058L40.1721 206.356C44.1348 208.062 48.7273 210.126 51.8415 210.975C52.7736 211.22 53.7246 211.387 54.6845 211.473L55.5593 211.543C58.9271 211.771 62.2513 211.368 63.1348 211.421C64.0183 211.473 66.1702 213.52 67.5086 214.789C67.8123 215.079 68.1305 215.353 68.4621 215.611L68.5671 215.69L68.6458 215.76C69.1564 216.266 69.5089 216.911 69.6605 217.614C69.7294 217.848 69.7762 218.088 69.8005 218.331C69.8453 218.423 69.8776 218.52 69.8967 218.62Z" fill="white" stroke="black" stroke-width="0.235427" stroke-linecap="round" stroke-linejoin="round"/>
<path d="M59.4258 216.293C59.4258 216.293 61.4115 217.325 62.1988 217.684C62.9861 218.043 62.9161 219.486 62.9161 219.486" fill="white"/>
<path d="M59.4258 216.293C59.4258 216.293 61.4115 217.325 62.1988 217.684C62.9861 218.043 62.9161 219.486 62.9161 219.486" stroke="black" stroke-width="0.235427" stroke-linecap="round" stroke-linejoin="round"/>
<path d="M61.5515 214.894C62.8007 215.785 64.0036 216.74 65.1555 217.754C65.3238 217.952 65.4335 218.192 65.4721 218.449C65.5107 218.706 65.4768 218.968 65.3742 219.206" fill="white"/>
<path d="M61.5515 214.894C62.8007 215.785 64.0036 216.74 65.1555 217.754C65.3238 217.952 65.4335 218.192 65.4721 218.449C65.5107 218.706 65.4768 218.968 65.3742 219.206" stroke="black" stroke-width="0.235427" stroke-linecap="round" stroke-linejoin="round"/>
<path d="M66.7825 216.092C65.7475 214.983 64.6524 213.932 63.5022 212.943L66.7825 216.092Z" fill="white"/>
<path d="M66.7825 216.092C65.7475 214.983 64.6524 213.932 63.5022 212.943" stroke="black" stroke-width="0.235427" stroke-linecap="round" stroke-linejoin="round"/>
<path d="M62.4262 162.574C60.8429 165.907 57.7025 170.447 52.6463 170.053C47.2927 169.598 44.2835 165.828 42.8926 163.44C44.8171 162.705 46.7679 161.953 48.3687 161.323C48.3687 159.696 48.3162 157.745 48.1412 155.812C48.1412 155.392 48.0538 154.937 48.01 154.543C47.9663 154.15 47.9138 153.87 47.8613 153.546H58.0349C58.0349 153.546 57.9736 153.949 57.8949 154.622C57.8337 155.226 57.7549 156.03 57.6937 156.94C57.615 158.147 57.5625 159.565 57.5975 160.903C58.0874 161.069 58.586 161.253 59.0846 161.445L60.0468 161.778C60.4317 161.918 60.8079 162.04 61.2103 162.171L62.085 162.434C62.2016 162.473 62.3156 162.52 62.4262 162.574Z" fill="white" stroke="black" stroke-width="0.235427" stroke-linecap="round" stroke-linejoin="round"/>
<mask id="path-98-inside-1_77_455" fill="white">
<path d="M48.01 154.508C48.01 154.508 49.9083 159.442 52.6638 160.282C55.4193 161.122 57.9124 154.622 57.9124 154.622C57.9124 154.622 54.0284 158.768 52.5851 158.121C51.1417 157.474 48.0275 154.543 48.0275 154.543"/>
</mask>
<path d="M48.01 154.508C48.01 154.508 49.9083 159.442 52.6638 160.282C55.4193 161.122 57.9124 154.622 57.9124 154.622C57.9124 154.622 54.0284 158.768 52.5851 158.121C51.1417 157.474 48.0275 154.543 48.0275 154.543" fill="#263238"/>
<path d="M57.9124 154.622L58.1322 154.706L57.7406 154.461L57.9124 154.622ZM48.01 154.508C47.7903 154.593 47.7903 154.593 47.7904 154.593C47.7904 154.593 47.7904 154.593 47.7905 154.593C47.7906 154.593 47.7907 154.594 47.7908 154.594C47.7911 154.595 47.7915 154.596 47.792 154.597C47.793 154.6 47.7945 154.604 47.7964 154.609C47.8003 154.618 47.806 154.633 47.8135 154.652C47.8285 154.689 47.8507 154.744 47.8799 154.813C47.9382 154.952 48.0243 155.151 48.1362 155.392C48.3598 155.873 48.6874 156.524 49.1028 157.203C49.5177 157.881 50.0237 158.592 50.6055 159.19C51.1859 159.786 51.854 160.281 52.5952 160.507L52.7324 160.057C52.0958 159.863 51.4934 159.426 50.9428 158.861C50.3937 158.297 49.9085 157.618 49.5044 156.957C49.1008 156.298 48.7816 155.663 48.5632 155.193C48.4541 154.958 48.3704 154.765 48.3141 154.631C48.2859 154.564 48.2647 154.512 48.2505 154.476C48.2435 154.459 48.2382 154.445 48.2347 154.436C48.233 154.432 48.2317 154.429 48.2309 154.427C48.2305 154.426 48.2302 154.425 48.23 154.424C48.2299 154.424 48.2298 154.424 48.2298 154.424C48.2298 154.424 48.2298 154.424 48.2298 154.424C48.2298 154.424 48.2298 154.424 48.01 154.508ZM52.5952 160.507C53.3882 160.749 54.1406 160.452 54.7924 159.936C55.4439 159.421 56.0305 158.662 56.52 157.893C57.0114 157.122 57.414 156.325 57.6934 155.724C57.8332 155.422 57.9426 155.169 58.0171 154.99C58.0544 154.901 58.083 154.831 58.1024 154.782C58.1121 154.758 58.1194 154.739 58.1244 154.726C58.1269 154.72 58.1288 154.715 58.1301 154.712C58.1308 154.71 58.1313 154.709 58.1316 154.708C58.1318 154.707 58.1319 154.707 58.132 154.707C58.1321 154.707 58.1321 154.707 58.1322 154.707C58.1322 154.706 58.1322 154.706 57.9124 154.622C57.6926 154.538 57.6926 154.538 57.6926 154.538C57.6926 154.538 57.6926 154.538 57.6926 154.538C57.6925 154.538 57.6924 154.538 57.6923 154.539C57.692 154.539 57.6916 154.54 57.6911 154.542C57.6899 154.545 57.6882 154.549 57.6859 154.555C57.6813 154.567 57.6744 154.584 57.6651 154.607C57.6466 154.654 57.6189 154.722 57.5827 154.809C57.5101 154.983 57.4032 155.23 57.2663 155.525C56.9921 156.116 56.5992 156.892 56.1228 157.64C55.6446 158.391 55.0914 159.1 54.5004 159.567C53.9097 160.034 53.3172 160.235 52.7324 160.057L52.5952 160.507ZM57.9124 154.622C57.7406 154.461 57.7406 154.461 57.7406 154.461C57.7406 154.461 57.7405 154.461 57.7405 154.461C57.7404 154.461 57.7403 154.461 57.7401 154.462C57.7396 154.462 57.739 154.463 57.7381 154.464C57.7364 154.466 57.7337 154.468 57.7301 154.472C57.7229 154.48 57.7122 154.491 57.698 154.506C57.6697 154.536 57.6279 154.579 57.5739 154.635C57.466 154.746 57.3101 154.904 57.1183 155.092C56.7344 155.467 56.2088 155.961 55.6396 156.433C55.0687 156.907 54.4626 157.353 53.917 157.639C53.6441 157.782 53.3953 157.881 53.1799 157.926C52.9635 157.972 52.8003 157.96 52.6814 157.906L52.4887 158.336C52.7307 158.444 53.0046 158.444 53.2769 158.387C53.5502 158.329 53.8416 158.21 54.1358 158.056C54.7244 157.747 55.3599 157.277 55.9404 156.795C56.5227 156.312 57.0583 155.809 57.4477 155.428C57.6426 155.237 57.8013 155.076 57.9115 154.963C57.9666 154.906 58.0095 154.862 58.0388 154.831C58.0535 154.816 58.0647 154.804 58.0724 154.796C58.0762 154.792 58.0791 154.788 58.0811 154.786C58.0821 154.785 58.0828 154.784 58.0834 154.784C58.0836 154.784 58.0838 154.783 58.084 154.783C58.084 154.783 58.0841 154.783 58.0841 154.783C58.0842 154.783 58.0842 154.783 57.9124 154.622ZM52.6814 157.906C52.3449 157.755 51.8966 157.464 51.404 157.1C50.9149 156.738 50.3947 156.315 49.9173 155.91C49.4403 155.505 49.0079 155.12 48.6947 154.837C48.5382 154.695 48.4115 154.579 48.324 154.498C48.2803 154.457 48.2464 154.426 48.2235 154.404C48.2121 154.394 48.2033 154.385 48.1975 154.38C48.1946 154.377 48.1924 154.375 48.191 154.374C48.1902 154.373 48.1897 154.373 48.1894 154.372C48.1892 154.372 48.1891 154.372 48.189 154.372C48.1889 154.372 48.1889 154.372 48.1889 154.372C48.1889 154.372 48.1889 154.372 48.0275 154.543C47.8662 154.715 47.8662 154.715 47.8663 154.715C47.8663 154.715 47.8663 154.715 47.8664 154.715C47.8665 154.715 47.8666 154.715 47.8668 154.715C47.8672 154.716 47.8678 154.716 47.8686 154.717C47.8702 154.718 47.8725 154.721 47.8755 154.723C47.8816 154.729 47.8905 154.738 47.9022 154.748C47.9256 154.77 47.96 154.802 48.0043 154.843C48.0928 154.925 48.2207 155.043 48.3786 155.186C48.6944 155.472 49.1308 155.86 49.6127 156.269C50.0944 156.678 50.6234 157.108 51.1241 157.478C51.6214 157.846 52.1035 158.163 52.4887 158.336L52.6814 157.906Z" fill="black" mask="url(#path-98-inside-1_77_455)"/>
<path d="M46.3742 127.259C43.8035 129.574 41.7651 132.418 40.3996 135.596C39.1487 138.22 38.0902 141.238 39.0524 143.985C39.6283 145.349 40.4429 146.599 41.4581 147.676C43.3475 149.942 45.9981 156.267 47.8876 158.532C48.0101 154.5 44.6335 147.983 44.9921 144.597C45.4265 141.982 46.2864 139.455 47.5377 137.118C48.8102 134.053 50.4745 131.165 52.4889 128.528C53.6348 127.146 57.3176 124.688 53.5998 124.39C51.133 124.189 48.2375 125.729 46.3742 127.259Z" fill="#263238" stroke="black" stroke-width="0.235427" stroke-linecap="round" stroke-linejoin="round"/>
<path d="M43.9949 141.011C43.9949 141.011 42.6914 138.483 41.3181 140.879C40.3296 142.629 41.7555 145.385 42.3678 146.408C42.571 146.699 42.8462 146.933 43.1666 147.086C43.487 147.24 43.8417 147.307 44.1961 147.283L43.9949 141.011Z" fill="white" stroke="black" stroke-width="0.235427" stroke-linecap="round" stroke-linejoin="round"/>
<path d="M61.1228 150.143C60.2869 151.795 59.1978 153.306 57.8949 154.622L57.1076 155.435C55.4806 157.045 53.7223 158.322 52.5676 158.06C51.5616 157.859 50.2495 156.826 48.9635 155.505C48.6399 155.182 48.325 154.832 48.01 154.482C46.6099 152.95 45.4079 151.249 44.4322 149.417C44.1612 148.73 43.9875 148.009 43.9161 147.274C43.6954 145.083 43.6194 142.879 43.6887 140.678C43.6887 139.9 43.6887 139.278 43.6887 138.929C43.6887 137.406 49.3922 132.114 49.3922 132.114C49.5459 132.058 49.711 132.04 49.8733 132.062C50.8543 132.24 51.7997 132.577 52.6726 133.059C56.1279 134.738 60.9479 138.071 61.2978 139.34C61.8314 141.185 61.6302 148.499 61.1228 150.143Z" fill="white" stroke="black" stroke-width="0.235427" stroke-linecap="round" stroke-linejoin="round"/>
<path d="M49.6768 143.128C49.6768 143.421 49.6222 143.682 49.5414 143.865C49.5009 143.957 49.4561 144.025 49.4129 144.067C49.3698 144.11 49.336 144.121 49.3134 144.121C49.2888 144.121 49.2526 144.109 49.207 144.067C49.1616 144.025 49.1141 143.959 49.0708 143.868C48.9845 143.688 48.9238 143.428 48.9238 143.128C48.9238 142.825 48.9786 142.56 49.0621 142.376C49.1503 142.18 49.2481 142.117 49.3134 142.117C49.3441 142.117 49.381 142.13 49.4237 142.173C49.4673 142.216 49.5112 142.285 49.5502 142.379C49.6281 142.567 49.6768 142.833 49.6768 143.128Z" fill="#263238" stroke="black" stroke-width="0.235427"/>
<path d="M56.3116 142.126C56.377 142.126 56.4749 142.189 56.5631 142.384C56.6465 142.567 56.7013 142.83 56.7013 143.128C56.7013 143.425 56.6465 143.686 56.5633 143.867C56.4755 144.058 56.378 144.121 56.3116 144.121C56.246 144.121 56.1482 144.057 56.06 143.864C55.9766 143.681 55.9219 143.421 55.9219 143.128C55.9219 142.834 55.9766 142.572 56.0602 142.387C56.1021 142.294 56.1489 142.226 56.1949 142.182C56.2404 142.14 56.2796 142.126 56.3116 142.126Z" fill="#263238" stroke="black" stroke-width="0.235427"/>
<path d="M46.5405 140.372C46.5405 140.372 47.4152 138.623 50.5119 139.156" stroke="black" stroke-width="0.235427" stroke-linecap="round" stroke-linejoin="round"/>
<path d="M59.1896 140.372C59.1896 140.372 58.3148 138.623 55.2181 139.156" stroke="black" stroke-width="0.235427" stroke-linecap="round" stroke-linejoin="round"/>
<path d="M53.4598 147.405C53.7745 147.385 54.0744 147.265 54.3154 147.062C54.5564 146.859 54.7257 146.583 54.7982 146.277C54.7982 146.277 53.1012 143.652 53.6173 141.081" stroke="black" stroke-width="0.235427" stroke-linecap="round" stroke-linejoin="round"/>
<path d="M42.8927 134.887C42.1879 135.843 41.6551 136.915 41.3181 138.054" stroke="black" stroke-width="0.235427" stroke-linecap="round" stroke-linejoin="round"/>
<path d="M50.2057 127.889C50.2057 127.889 49.2347 129.499 44.9571 132.779C44.6814 132.978 44.4185 133.194 44.1698 133.426" stroke="black" stroke-width="0.235427" stroke-linecap="round" stroke-linejoin="round"/>
<path d="M36.4894 179.177C35.9062 187.493 35.323 195.815 34.7398 204.143V203.504" fill="#263238"/>
<path d="M36.4894 179.177C35.9062 187.493 35.323 195.815 34.7398 204.143V203.504" stroke="black" stroke-width="0.235427" stroke-linecap="round" stroke-linejoin="round"/>
<path d="M91.7484 151.718C92.5391 151.409 93.3935 151.298 94.2368 151.396C95.0801 151.494 95.8867 151.796 96.5859 152.278C97.981 153.266 98.9964 154.701 99.4639 156.345C100.022 157.983 99.9656 159.767 99.3064 161.366C98.9654 162.155 98.4166 162.836 97.7187 163.337C97.0207 163.837 96.1998 164.139 95.3437 164.209C94.0677 164.193 92.8347 163.746 91.8447 162.941C88.573 160.492 86.9372 153.791 91.7484 151.718Z" fill="white" stroke="black" stroke-width="0.235427" stroke-linecap="round" stroke-linejoin="round"/>
<path d="M98.9915 123.786C98.9915 123.891 98.9915 124.582 99.0528 124.705C99.3589 126.052 100.006 129.42 98.3704 130.102C98.9915 132.315 100.514 146.775 100.312 154.15C100.26 156.354 99.875 158.97 97.8981 159.914C94.5652 161.498 91.3985 157.64 91.7747 154.622C92.3608 150.502 92.1596 146.303 92.6495 142.139C93.1831 137.818 94.1628 133.391 93.0868 129.166C92.8244 128.878 91.1449 125.545 90.5937 124.626C90.3465 124.234 90.1523 123.81 90.0164 123.367C89.801 121.857 89.6958 120.334 89.7015 118.809C90.2001 117.864 90.8474 118.739 91.1886 119.36C91.4668 120.117 91.5627 120.929 91.4685 121.731C91.4362 121.927 91.4636 122.128 91.5472 122.308C91.6207 122.411 91.72 122.493 91.8352 122.545C91.9505 122.597 92.0774 122.618 92.2033 122.605C93.2793 122.448 93.2355 121.547 93.2181 120.856C93.2181 118.538 93.2181 116.22 93.2181 113.919C93.2181 113.534 93.3405 112.493 93.7079 112.458C94.0753 112.423 94.6264 112.721 94.6789 113.954C94.7401 115.345 94.7402 119.631 94.7402 119.631C94.7748 119.666 94.818 119.692 94.8655 119.706C94.9129 119.72 94.9632 119.721 95.0113 119.71C95.0988 119.71 95.1338 119.553 95.1688 119.465C95.6849 117.313 96.2098 115.161 96.7259 113.009C96.7871 112.756 97.1633 112.231 97.4344 112.231C98.0818 112.231 98.0993 112.983 98.1342 113.202C98.3617 114.356 96.7434 119.115 96.4722 120.2C96.4722 120.392 96.4722 120.681 96.6734 120.628L99.2102 115.511C99.3278 115.212 99.5129 114.944 99.7512 114.729C99.9895 114.513 100.274 114.356 100.584 114.269C100.626 114.255 100.672 114.255 100.715 114.269C100.76 114.295 100.797 114.335 100.82 114.383C101.065 114.82 100.82 115.424 100.68 115.905C100.54 116.386 98.6416 119.92 97.968 121.346C97.8718 121.547 97.7144 122.002 97.9068 122.221C98.0993 122.439 98.4492 122.019 98.5891 121.731C99.0178 120.856 99.4202 120.034 99.8138 119.176C99.9363 118.923 100.12 118.564 100.409 118.625C102.114 118.993 99.6913 122.57 98.9915 123.786Z" fill="white" stroke="black" stroke-width="0.235427" stroke-linecap="round" stroke-linejoin="round"/>
<path d="M94.2853 123.034C95.1659 123.732 95.9306 124.564 96.5509 125.501C96.8568 125.972 97.0614 126.501 97.1517 127.055C97.2421 127.61 97.2162 128.177 97.0758 128.72C97.0333 128.862 96.9777 129 96.9096 129.131" fill="white"/>
<path d="M94.2853 123.034C95.1659 123.732 95.9306 124.564 96.5509 125.501C96.8568 125.972 97.0614 126.501 97.1517 127.055C97.2421 127.61 97.2162 128.177 97.0758 128.72C97.0333 128.862 96.9777 129 96.9096 129.131" stroke="black" stroke-width="0.235427" stroke-linecap="round" stroke-linejoin="round"/>
<path d="M69.6431 177.681C70.5688 179.548 71.1918 181.55 71.4888 183.612C71.7425 185.676 71.8212 187.295 70.4129 193.094" stroke="black" stroke-width="0.235427" stroke-linecap="round" stroke-linejoin="round"/>
<path d="M49.8996 130.802C49.7798 131.16 49.7498 131.541 49.8121 131.913C49.9781 132.381 50.2833 132.787 50.6869 133.076C53.4828 135.527 56.6103 137.57 59.9769 139.147C60.3992 139.257 60.7651 139.521 61.003 139.887C61.2409 140.252 61.3336 140.694 61.2628 141.124V147.886C61.3058 148.584 61.2379 149.283 61.0616 149.959C60.5717 151.534 59.487 152.802 58.6997 154.255C57.8994 155.632 57.4938 157.202 57.5276 158.795C57.3089 157.124 63.1523 153.887 64.7357 147.309C64.9543 146.382 69.5031 140.862 66.7739 134.38C64.1496 128.16 60.0206 125.483 58.6298 125.16C57.6857 124.884 56.6894 124.837 55.7234 125.022C54.7575 125.208 53.8496 125.621 53.075 126.227C51.5464 127.365 50.4314 128.972 49.8996 130.802Z" fill="#263238" stroke="black" stroke-width="0.235427" stroke-linecap="round" stroke-linejoin="round"/>
<path d="M55.6293 149.758C55.1307 149.863 54.6233 149.96 54.1159 150.021C52.3664 150.24 50.4944 149.968 49.3484 148.691C49.4359 149.837 50.2232 154.167 52.5763 154.29C54.9295 154.412 55.6293 149.758 55.6293 149.758Z" stroke="black" stroke-width="0.235427" stroke-linecap="round" stroke-linejoin="round"/>
<path d="M53.3549 128.16C54.3638 130.451 55.9714 132.427 58.0086 133.881C59.487 134.94 61.1753 135.701 62.5312 136.908C64.2807 138.509 65.4267 141.045 64.7531 143.346" stroke="black" stroke-width="0.235427" stroke-linecap="round" stroke-linejoin="round"/>
<path d="M71.6375 163.501C69.9522 164.853 68.8425 166.795 68.5321 168.933C68.2305 170.781 68.4579 172.676 69.1882 174.4" stroke="black" stroke-width="0.235427" stroke-linecap="round" stroke-linejoin="round"/>
<path d="M39.0524 177.935C38.9124 180.226 37.4866 182.212 36.1044 184.058L39.0524 177.935Z" fill="#263238"/>
<path d="M39.0524 177.935C38.9124 180.226 37.4866 182.212 36.1044 184.058" stroke="black" stroke-width="0.235427" stroke-linecap="round" stroke-linejoin="round"/>
<path d="M35.6408 195.456C36.3356 196.62 37.2656 197.625 38.3712 198.408C39.4768 199.192 40.7338 199.735 42.0616 200.005" stroke="black" stroke-width="0.235427" stroke-linecap="round" stroke-linejoin="round"/>
<path d="M69.1094 196.821C69.1094 196.821 66.7563 200.32 58.7609 201.055" stroke="black" stroke-width="0.235427" stroke-linecap="round" stroke-linejoin="round"/>
<path d="M277.836 156.92L277.859 157.033L277.973 157.012L302.854 152.456C302.855 152.46 302.857 152.464 302.858 152.468C302.88 152.541 302.913 152.649 302.954 152.788C303.036 153.066 303.15 153.468 303.277 153.962C303.533 154.95 303.845 156.309 304.068 157.788C304.292 159.269 304.428 160.867 304.334 162.337C304.241 163.792 303.924 165.108 303.256 166.059L303.207 166.074C303.149 166.092 303.063 166.118 302.951 166.151C302.727 166.219 302.397 166.316 301.975 166.438C301.131 166.682 299.919 167.021 298.446 167.406C295.5 168.174 291.514 169.121 287.349 169.835C283.183 170.549 278.843 171.029 275.191 170.866C273.364 170.784 271.714 170.542 270.345 170.091C268.993 169.645 267.922 168.997 267.223 168.106L267.998 130.202H272.414L277.836 156.92Z" fill="white" stroke="black" stroke-width="0.235427"/>
<path d="M290.531 167.599L290.531 167.599L290.539 167.595C291.678 167.034 292.719 166.271 293.742 165.517L293.791 165.481C294.8 164.736 295.794 164.003 296.864 163.466C297.166 163.317 297.393 163.217 297.577 163.165C297.759 163.114 297.887 163.114 297.996 163.154C298.106 163.195 298.214 163.283 298.343 163.446C298.472 163.609 298.612 163.835 298.792 164.137C298.989 164.483 299.336 165.095 299.617 165.716C299.758 166.027 299.882 166.338 299.961 166.617C300.03 166.856 300.063 167.062 300.055 167.222C297.266 167.689 294.511 168.34 291.808 169.17L291.808 169.17L291.807 169.171C291.636 169.225 291.464 169.281 291.291 169.336C290.42 169.618 289.537 169.903 288.654 170.075C287.681 170.264 286.718 170.314 285.786 170.071C287.279 169.088 288.869 168.259 290.531 167.599Z" fill="#92E3A9" stroke="black" stroke-width="0.235427"/>
<path d="M303.329 166.16C303.329 166.16 272.843 175.607 267.105 168.146L267.883 130.084H272.511L277.952 156.896L302.935 152.321C302.935 152.321 306.137 162.241 303.329 166.16Z" stroke="black" stroke-width="0.235427" stroke-linecap="round" stroke-linejoin="round"/>
<path d="M300.45 167.117L300.439 167.098L300.337 167.157L300.439 167.098L300.438 167.098L300.438 167.097L300.436 167.093L300.427 167.077C300.419 167.064 300.407 167.043 300.392 167.015C300.362 166.96 300.317 166.878 300.262 166.771C300.151 166.556 299.997 166.243 299.825 165.846C299.48 165.053 299.061 163.929 298.766 162.608C298.175 159.964 298.08 156.542 300.043 153.389C300.125 153.257 300.273 153.123 300.492 152.988C300.709 152.854 300.989 152.725 301.325 152.601C301.999 152.353 302.887 152.131 303.931 151.933C306.017 151.538 308.708 151.244 311.501 151.038C317.088 150.626 323.067 150.567 325.407 150.75L325.408 150.75L339.543 151.826L337.205 197.401L337.203 197.431L337.216 197.458C338.729 200.594 339.089 203.443 338.659 205.953C338.228 208.463 337.004 210.642 335.335 212.435C331.992 216.025 326.875 218.056 322.818 218.091C322.034 218.098 321.212 218.143 320.373 218.189C320.262 218.195 320.15 218.202 320.039 218.208C319.083 218.26 318.108 218.306 317.139 218.294C315.198 218.27 313.287 218.011 311.605 217.094C308.25 215.267 305.738 210.791 305.808 200.119L305.808 200.109L305.807 200.1L300.453 167.138L300.45 167.117Z" fill="white" stroke="black" stroke-width="0.235427"/>
<path d="M320.343 204.26C318.619 203.592 316.982 202.716 315.467 201.651C315.041 201.39 314.681 201.034 314.417 200.609L314.411 200.599L314.406 200.587C314.304 200.304 314.258 200.004 314.271 199.704C314.285 199.403 314.357 199.108 314.485 198.836C314.613 198.563 314.793 198.319 315.015 198.116C315.237 197.913 315.497 197.757 315.78 197.655L315.786 197.653L315.786 197.653C316.924 197.303 318.15 197.37 319.243 197.841C320.114 198.212 321.019 198.493 321.946 198.681C311.705 192.065 304.279 181.881 301.114 170.098C301.068 170.143 301.018 170.195 300.973 170.245C300.952 170.269 300.934 170.292 300.917 170.313L300.94 170.311L300.953 170.424C301.675 176.829 302.715 183.184 304.073 189.49C304.466 191.124 304.777 192.777 305.002 194.443L305.002 194.443C305.193 195.878 305.214 197.334 305.235 198.782C305.245 199.468 305.255 200.152 305.283 200.831M320.343 204.26L305.166 200.836M320.343 204.26C318.847 204.192 317.348 204.349 315.896 204.728L315.825 204.747L315.81 204.818C315.641 205.634 316.016 206.328 316.582 206.901C317.146 207.472 317.918 207.94 318.587 208.312M320.343 204.26L318.587 208.312M305.283 200.831L305.166 200.836M305.283 200.831C305.283 200.831 305.283 200.831 305.283 200.831L305.166 200.836M305.283 200.831C305.44 204.603 306.043 208.344 307.081 211.974L307.085 211.987L307.084 211.987C307.202 212.697 307.589 213.335 308.164 213.767M305.166 200.836C305.323 204.617 305.928 208.367 306.968 212.007C307.092 212.751 307.499 213.419 308.105 213.87M308.164 213.767C308.16 213.765 308.156 213.764 308.152 213.762L308.105 213.87M308.164 213.767C308.717 214.004 309.33 214.061 309.916 213.93L309.929 213.927L309.929 213.928C314.527 213.41 319.149 213.141 323.776 213.123M308.164 213.767C308.168 213.77 308.172 213.773 308.175 213.775L308.105 213.87M308.105 213.87C308.683 214.121 309.327 214.183 309.942 214.045M309.942 214.045C314.562 213.524 319.208 213.255 323.857 213.24C323.83 213.201 323.803 213.162 323.776 213.123M309.942 214.045L315.925 204.842C315.61 206.364 317.307 207.466 318.646 208.21C320.74 209.445 322.54 211.122 323.919 213.122C323.872 213.123 323.824 213.123 323.776 213.123M309.942 214.045L318.587 208.312M323.776 213.123C322.413 211.166 320.643 209.525 318.587 208.312M300.809 170.32C300.809 170.32 300.81 170.32 300.811 170.321L300.809 170.32Z" fill="#92E3A9" stroke="black" stroke-width="0.235427"/>
<path d="M337.507 169.682L337.507 169.682L337.506 169.681C336.949 169.341 336.183 168.611 335.52 167.798C335.189 167.392 334.886 166.969 334.65 166.568C334.495 166.303 334.37 166.051 334.284 165.821C335.18 166.491 336.18 167.009 337.246 167.355L338.631 168.97C338.599 169.007 338.571 169.048 338.545 169.089C338.496 169.168 338.45 169.258 338.407 169.345C338.403 169.353 338.399 169.36 338.395 169.368C338.355 169.448 338.317 169.524 338.277 169.593C338.233 169.669 338.191 169.728 338.151 169.766C338.082 169.832 337.987 169.852 337.868 169.832C337.748 169.811 337.618 169.751 337.507 169.682Z" fill="#92E3A9" stroke="black" stroke-width="0.235427"/>
<path d="M300.337 167.157L305.691 200.119C305.551 221.48 315.742 218.27 322.819 218.209C330.998 218.139 343.411 210.03 337.322 197.407L339.667 151.718L325.417 150.633C320.719 150.265 301.474 150.869 299.943 153.327C295.972 159.704 300.337 167.157 300.337 167.157Z" stroke="black" stroke-width="0.235427" stroke-linecap="round" stroke-linejoin="round"/>
<path d="M310.756 149.959C309.222 152.767 308.484 155.94 308.621 159.136C308.619 159.414 308.673 159.691 308.779 159.949C309.172 160.728 310.248 160.728 311.114 160.824C314.482 161.252 316.573 164.804 319.748 165.994C319.859 166.062 319.983 166.108 320.113 166.127C320.242 166.147 320.374 166.14 320.501 166.108C320.627 166.075 320.746 166.017 320.85 165.937C320.953 165.858 321.04 165.758 321.104 165.644C322.486 163.894 322.976 161.436 324.866 160.308C325.688 159.818 326.729 159.617 327.297 158.847C327.945 157.972 327.656 156.712 327.341 155.645C326.825 153.896 326.248 152.076 324.909 150.86C323.483 149.747 321.732 149.133 319.923 149.111C317.276 148.894 314.611 149.143 312.05 149.846C312.085 150.178 310.756 149.959 310.756 149.959Z" fill="#92E3A9" stroke="black" stroke-width="0.235427" stroke-linecap="round" stroke-linejoin="round"/>
<path d="M348.325 162.114L348.324 162.114L348.326 162.122C349.258 165.746 350.811 169.18 352.915 172.274C352.712 172.377 352.506 172.567 352.303 172.812C352.048 173.119 351.784 173.529 351.52 174.009C350.991 174.97 350.455 176.227 349.986 177.548C349.517 178.871 349.115 180.261 348.854 181.491C348.638 182.513 348.518 183.434 348.544 184.112C346.283 181.422 343.49 176.856 341.161 172.68C339.957 170.519 338.878 168.465 338.064 166.834C337.248 165.198 336.703 163.997 336.56 163.536C335.706 160.776 335.545 157.848 336.091 155.011L336.091 155.011C336.216 154.353 336.416 153.669 336.738 153.093C337.059 152.518 337.497 152.057 338.096 151.829C338.686 151.641 339.316 151.612 339.921 151.745L339.921 151.745L339.926 151.746C341.376 152.003 342.747 152.593 343.93 153.47C345.112 154.347 346.074 155.485 346.741 156.797C347.453 158.509 347.984 160.291 348.325 162.114Z" fill="white" stroke="black" stroke-width="0.235427"/>
<path d="M337.435 167.175L337.432 167.171C336.953 166.535 336.627 165.798 336.479 165.015C336.346 164.314 336.359 163.594 336.517 162.9C337.316 164.009 338.182 165.15 339.178 166.097C340.236 167.103 341.447 167.896 342.888 168.2L342.889 168.2C343.094 168.241 343.336 168.261 343.556 168.22C343.704 168.192 343.849 168.135 343.965 168.034C343.979 168.07 343.995 168.107 344.013 168.144C344.048 168.215 344.096 168.297 344.155 168.351C344.184 168.378 344.226 168.407 344.279 168.415C344.622 169.727 344.773 171.081 344.728 172.437L344.727 172.437L344.728 172.445C344.82 175.163 345.229 177.86 345.949 180.482C344.923 179.94 344.29 178.822 343.707 177.73L339.386 169.587C339.386 169.587 339.386 169.587 339.386 169.587C339.363 169.543 339.314 169.472 339.252 169.39C339.189 169.305 339.106 169.198 339.011 169.079C338.822 168.841 338.583 168.549 338.349 168.266C338.115 167.983 337.885 167.709 337.714 167.505C337.628 167.403 337.557 167.319 337.507 167.261L337.45 167.193L337.435 167.175Z" fill="#92E3A9" stroke="black" stroke-width="0.235427"/>
<path d="M353.094 172.327C350.956 169.214 349.381 165.75 348.44 162.092C348.098 160.26 347.564 158.469 346.848 156.748C346.173 155.418 345.198 154.264 344 153.376C342.802 152.488 341.415 151.89 339.946 151.63C339.32 151.492 338.668 151.522 338.057 151.718C336.789 152.199 336.229 153.66 335.975 154.989C335.426 157.845 335.588 160.792 336.447 163.571C337.033 165.46 344.075 179.159 348.694 184.469C348.292 181.792 351.371 172.843 353.094 172.327Z" stroke="black" stroke-width="0.235427" stroke-linecap="round" stroke-linejoin="round"/>
<path d="M347.023 182.124C342.317 173.106 344.591 152.321 344.452 148.98L350.662 148.647C351.283 148.647 354.161 166.37 356.121 173.727C357.87 180.427 356.191 187.207 353.094 187.207C350.522 187.207 348.012 184.023 347.023 182.124Z" fill="white" stroke="black" stroke-width="0.235427" stroke-linecap="round" stroke-linejoin="round"/>
<path d="M290.942 158.707C295.316 152.321 303.897 151.814 303.897 151.814" stroke="black" stroke-width="0.235427" stroke-linecap="round" stroke-linejoin="round"/>
<path d="M274.068 162.285C275.391 161.069 276.427 159.575 277.103 157.911L274.068 162.285Z" fill="white"/>
<path d="M274.068 162.285C275.391 161.069 276.427 159.575 277.103 157.911" stroke="black" stroke-width="0.235427" stroke-linecap="round" stroke-linejoin="round"/>
<path d="M306.565 192.464C309.058 196.549 325.207 200.914 331.645 199.978" stroke="black" stroke-width="0.235427" stroke-linecap="round" stroke-linejoin="round"/>
<path d="M311.132 203.994C315.783 204.794 320.551 204.612 325.128 203.46" stroke="black" stroke-width="0.235427" stroke-linecap="round" stroke-linejoin="round"/>
<path d="M332.555 164.358L335.634 168.531C336.054 169.099 336.64 169.738 337.331 169.58" stroke="black" stroke-width="0.235427" stroke-linecap="round" stroke-linejoin="round"/>
<path d="M355.439 322.638C355.167 323.749 355.08 325.07 355.876 325.901C356.672 326.732 357.827 326.715 358.903 326.697L362.603 326.627C364.03 326.699 365.456 326.475 366.793 325.971C367.462 325.711 368.034 325.252 368.433 324.656C368.832 324.06 369.038 323.356 369.024 322.638C368.933 322.084 368.756 321.547 368.499 321.046C368.167 320.329 367.834 319.603 367.51 318.886C363.425 309.884 357.188 315.36 355.439 322.638Z" fill="white" stroke="black" stroke-width="0.235427" stroke-linecap="round" stroke-linejoin="round"/>
<path d="M350.225 312.027C350.354 316.159 350.008 320.292 349.193 324.344C349 325.263 349.193 326.653 350.068 326.566C350.411 326.513 350.722 326.336 350.942 326.067C354.157 322.896 356.457 318.916 357.599 314.547C357.771 314.093 357.851 313.609 357.835 313.124C357.818 312.639 357.705 312.162 357.503 311.721C357.263 311.367 356.968 311.054 356.628 310.794C353.663 308.423 349.954 306.07 350.225 312.027Z" fill="white" stroke="black" stroke-width="0.235427" stroke-linecap="round" stroke-linejoin="round"/>
<path d="M339.264 240.813C339.363 240.749 339.363 240.749 339.363 240.749L339.364 240.75L339.366 240.753L339.374 240.766L339.407 240.817L339.536 241.016C339.649 241.191 339.814 241.448 340.025 241.776C340.446 242.432 341.049 243.373 341.774 244.512C343.225 246.79 345.165 249.861 347.123 253.032C349.082 256.204 351.06 259.477 352.586 262.159C353.348 263.5 353.999 264.694 354.477 265.654C354.953 266.61 355.267 267.348 355.344 267.769C355.421 268.185 355.448 269.155 355.438 270.518C355.429 271.886 355.382 273.664 355.31 275.707C355.166 279.791 354.918 284.934 354.651 289.976C354.384 295.019 354.098 299.96 353.88 303.641C353.77 305.482 353.678 307.007 353.612 308.072C353.58 308.605 353.554 309.023 353.536 309.307L353.516 309.632L353.514 309.669L356.827 311.542L356.953 311.195C357.065 310.883 357.23 310.425 357.44 309.841C357.86 308.672 358.459 306.999 359.175 304.979C360.607 300.94 362.509 295.514 364.387 289.97C366.266 284.425 368.12 278.763 369.458 274.251C370.127 271.994 370.666 270.027 371.015 268.506C371.189 267.746 371.315 267.099 371.386 266.584C371.457 266.065 371.47 265.694 371.428 265.478C369.429 255.51 363.217 243.67 357.373 234.08C354.452 229.287 351.626 225.06 349.467 221.914C348.606 220.659 347.851 219.576 347.239 218.698C347.084 218.476 346.938 218.266 346.802 218.071C346.132 217.107 345.691 216.467 345.563 216.225C345.07 215.296 343.672 212.829 342.395 210.592C341.757 209.474 341.15 208.414 340.703 207.634C340.479 207.244 340.295 206.923 340.167 206.701L340.065 206.524L327.283 227.182C329.045 230.806 332.043 234.181 334.613 236.658C335.904 237.902 337.085 238.917 337.943 239.622C338.372 239.974 338.72 240.248 338.96 240.434C339.081 240.527 339.174 240.598 339.238 240.646C339.269 240.67 339.293 240.688 339.31 240.7L339.328 240.713L339.332 240.717L339.333 240.717L339.334 240.718L339.264 240.813ZM339.264 240.813L339.363 240.749L339.351 240.73L339.334 240.718L339.264 240.813Z" fill="#263238" stroke="black" stroke-width="0.235427"/>
<path d="M308 213.312C309.706 213.459 311.419 213.503 313.13 213.445L313.13 213.445C317.305 213.303 321.439 212.57 325.41 211.27L325.41 211.27C330.037 209.716 333.353 207.45 335.512 205.572C336.592 204.633 337.383 203.79 337.904 203.182C338.165 202.878 338.358 202.632 338.486 202.462C338.509 202.432 338.53 202.404 338.548 202.379L338.571 202.439C338.634 202.611 338.726 202.857 338.838 203.157C339.061 203.755 339.365 204.566 339.688 205.414C340.322 207.082 341.032 208.905 341.341 209.538L340.451 226.342L340.431 226.388L340.347 226.575C340.275 226.737 340.173 226.968 340.05 227.249C339.804 227.81 339.475 228.568 339.147 229.351C338.819 230.135 338.49 230.946 338.243 231.614C338.119 231.948 338.016 232.248 337.943 232.491C337.872 232.73 337.826 232.929 337.826 233.053C337.826 233.08 337.832 233.115 337.838 233.148C337.846 233.186 337.857 233.233 337.871 233.289C337.898 233.402 337.94 233.556 337.993 233.748C338.1 234.131 338.257 234.67 338.459 235.345C338.862 236.694 339.443 238.586 340.152 240.865C341.572 245.425 343.509 251.535 345.578 257.948C349.716 270.773 354.387 284.817 356.51 290.097C359.191 296.887 361.555 303.835 363.601 310.94L363.607 310.962L363.62 310.979L363.62 310.979L363.62 310.979L363.621 310.98L363.624 310.984L363.636 311.001C363.648 311.017 363.664 311.04 363.684 311.071C363.726 311.132 363.783 311.222 363.849 311.338C363.981 311.57 364.144 311.901 364.269 312.3C364.518 313.097 364.614 314.155 364.014 315.224C363.716 315.755 363.191 316.248 362.547 316.658C361.904 317.067 361.149 317.39 360.402 317.583C359.653 317.777 358.919 317.839 358.315 317.735C357.711 317.632 357.253 317.366 357.022 316.916C356.889 316.658 356.615 316.273 356.237 315.784C355.857 315.293 355.366 314.688 354.793 313.988C354.673 313.841 354.549 313.69 354.422 313.535C353.337 312.21 352.006 310.586 350.596 308.756C347.444 304.667 343.898 299.555 341.796 294.461C340.236 290.681 338.442 285.963 336.628 281.194C335.992 279.52 335.352 277.839 334.72 276.191C332.289 269.852 329.96 263.986 328.267 260.798L328.267 260.797C323.846 252.675 319.922 244.293 316.516 235.696C314.395 230.269 312.25 224.629 310.635 220.346C309.827 218.205 309.153 216.403 308.68 215.136C308.443 214.503 308.257 214.003 308.13 213.662L308 213.312Z" fill="#263238" stroke="black" stroke-width="0.235427"/>
<path d="M370.003 269.365C369.1 270.913 367.885 272.257 366.434 273.31" stroke="black" stroke-width="0.235427" stroke-linecap="round" stroke-linejoin="round"/>
<path d="M371.132 266.819C371 267.246 370.843 267.663 370.66 268.07" stroke="black" stroke-width="0.235427" stroke-linecap="round" stroke-linejoin="round"/>
<path d="M332.231 212.741C334.558 216.748 336.736 222.512 336.386 227.131C336.199 227.97 335.905 228.781 335.511 229.545" stroke="black" stroke-width="0.235427" stroke-linecap="round" stroke-linejoin="round"/>
<path d="M318.147 217.194C318.401 219.425 318.742 223.134 318.252 225.32C317.838 227.557 316.555 229.539 314.683 230.831" stroke="black" stroke-width="0.235427" stroke-linecap="round" stroke-linejoin="round"/>
<path d="M337.987 208.752C338.495 209.386 338.908 210.09 339.212 210.843C339.804 211.925 340.618 212.869 341.601 213.614C342.584 214.358 343.714 214.887 344.915 215.164" stroke="black" stroke-width="0.235427" stroke-linecap="round" stroke-linejoin="round"/>
<path d="M330.56 217.693C333.648 224.446 336.01 231.217 340.804 242.693" stroke="black" stroke-width="0.235427" stroke-linecap="round" stroke-linejoin="round"/>
<path d="M328.916 214.237C329.178 214.762 329.432 215.287 329.685 215.812" stroke="black" stroke-width="0.235427" stroke-linecap="round" stroke-linejoin="round"/>
<path d="M354.616 265.901C356.032 268.629 357.832 271.139 359.961 273.354" stroke="black" stroke-width="0.235427" stroke-linecap="round" stroke-linejoin="round"/>
<path d="M356.077 268.42C357.004 272.701 358.696 276.778 361.072 280.457" stroke="black" stroke-width="0.235427" stroke-linecap="round" stroke-linejoin="round"/>
<path d="M334.33 268.639C327.516 254.1 320.247 239.676 311.315 217.693" stroke="black" stroke-width="0.235427" stroke-linecap="round" stroke-linejoin="round"/>
<path d="M335.87 272.864C335.704 272.357 335.529 271.849 335.345 271.333" stroke="black" stroke-width="0.235427" stroke-linecap="round" stroke-linejoin="round"/>
<path d="M359.428 317.565C357.678 315.282 344.924 297.445 341.757 289.362C339.649 283.974 338.057 280.168 336.509 274.797" stroke="black" stroke-width="0.235427" stroke-linecap="round" stroke-linejoin="round"/>
<path d="M354.616 283.239L360.678 301.058" stroke="black" stroke-width="0.235427" stroke-linecap="round" stroke-linejoin="round"/>
<path d="M350.531 148.656L348.694 148.805C346.366 149.218 343.976 149.108 341.696 148.481C340.235 148.122 336.85 147.073 336.447 147.003C335.442 146.787 334.426 146.624 333.403 146.513C330.315 146.329 331.881 145.174 333.167 145.227C334.864 145.305 335.433 145.27 336.736 145.367C336.579 145.279 336.097 145.183 336.089 144.807C336.089 143.888 337.296 143.932 337.296 143.932C337.296 143.932 335.975 143.372 336.159 142.681C336.342 141.99 337.226 141.806 337.786 141.859C337.786 141.859 337.042 141.5 337.077 141.115C337.235 139.628 340.288 139.523 340.288 139.523C339.549 139.193 338.858 138.767 338.232 138.255C338.003 138.009 337.843 137.707 337.768 137.38C337.752 137.224 337.778 137.067 337.843 136.924C337.908 136.782 338.01 136.659 338.139 136.57C338.268 136.481 338.418 136.427 338.575 136.416C338.731 136.405 338.888 136.435 339.028 136.505C339.818 137.031 340.58 137.598 341.311 138.202C342.256 138.876 343.349 139.305 344.346 139.908C345.318 140.74 346.103 141.769 346.647 142.926C346.805 143.171 350.531 148.656 350.531 148.656Z" fill="white" stroke="black" stroke-width="0.235427" stroke-linecap="round" stroke-linejoin="round"/>
<path d="M267.883 130.084V125.264C267.872 122.846 268.226 120.439 268.933 118.126C269.335 116.849 269.808 115.738 270.236 115.572C271.032 115.283 271.382 118.511 271.382 118.511C270.784 115.923 270.401 113.29 270.236 110.638C270.236 107.83 274.015 119.491 274.015 119.491L272.511 130.084H267.883Z" fill="white" stroke="black" stroke-width="0.235427" stroke-linecap="round" stroke-linejoin="round"/>
<path d="M272.449 122.247C272.906 121.894 273.248 121.412 273.429 120.864L272.449 122.247Z" fill="white"/>
<path d="M272.449 122.247C272.906 121.894 273.248 121.412 273.429 120.864" stroke="black" stroke-width="0.235427" stroke-linecap="round" stroke-linejoin="round"/>
<path d="M309.085 140.136C310.718 142.886 311.622 146.009 311.709 149.207C311.866 154.526 318.025 161.97 319.783 162.328C321.541 162.687 323.168 153.931 323.09 151.28C323.011 148.63 322.031 141.308 322.031 141.308C322.031 141.308 313.607 134.939 309.085 140.136Z" fill="white" stroke="black" stroke-width="0.235427" stroke-linecap="round" stroke-linejoin="round"/>
<path d="M312.073 147.639C312.313 147.702 312.583 147.701 312.871 147.653C313.44 147.557 314.105 147.272 314.814 146.892C315.725 146.403 316.731 145.744 317.717 145.097C318.262 144.739 318.802 144.385 319.316 144.066C320.042 143.615 320.72 143.234 321.303 142.999C321.893 142.762 322.355 142.69 322.67 142.813C322.966 142.929 323.176 143.242 323.207 143.91C323.237 144.578 323.083 145.566 322.688 146.962C321.9 149.749 320.815 151.118 319.66 151.639C318.508 152.159 317.244 151.851 316.051 151.182C314.859 150.514 313.76 149.497 312.957 148.643C312.595 148.258 312.295 147.907 312.073 147.639Z" fill="#263238" stroke="black" stroke-width="0.235427"/>
<path d="M325.189 139.261C324.76 145.795 321.777 149.469 318.34 150.117C315.199 150.694 310.607 147.492 308.315 142.742C308.14 142.629 305.349 140.695 304.685 140.223C304.337 139.98 304.054 139.657 303.859 139.28C303.664 138.904 303.563 138.486 303.565 138.062C303.587 137.656 303.731 137.265 303.977 136.941C304.223 136.616 304.561 136.373 304.947 136.243H305.026C305.42 136.157 305.83 136.187 306.207 136.33C305.629 134.1 305.157 131.834 304.798 129.551C304.964 124.302 306.705 120.016 312.304 119.596C317.902 119.176 322.582 122.308 322.801 124.565C322.958 126.314 323.527 130.942 324.034 135.727C324.174 136.969 325.285 137.791 325.189 139.261Z" fill="white" stroke="black" stroke-width="0.235427" stroke-linecap="round" stroke-linejoin="round"/>
<path d="M322.801 131.703C322.801 131.703 319.197 130.05 319.809 135.421C319.932 136.479 321.9 138.045 321.9 138.045C321.9 138.045 321.393 139.628 320.457 139.628" fill="white"/>
<path d="M322.801 131.703C322.801 131.703 319.197 130.05 319.809 135.421C319.932 136.479 321.9 138.045 321.9 138.045C321.9 138.045 321.393 139.628 320.457 139.628" stroke="black" stroke-width="0.235427" stroke-linecap="round" stroke-linejoin="round"/>
<path d="M315.838 133.54C315.838 133.54 314.001 132.42 312.741 133.111C312.084 133.397 311.525 133.868 311.132 134.467" fill="white"/>
<path d="M315.838 133.54C315.838 133.54 314.001 132.42 312.741 133.111C312.084 133.397 311.525 133.868 311.132 134.467" stroke="black" stroke-width="0.235427" stroke-linecap="round" stroke-linejoin="round"/>
<path d="M314.673 136.66L314.673 136.66L314.673 136.661C314.74 136.972 314.738 137.258 314.68 137.47C314.621 137.685 314.514 137.798 314.388 137.825C314.261 137.851 314.116 137.79 313.974 137.617C313.834 137.446 313.715 137.185 313.653 136.876C313.589 136.564 313.591 136.277 313.65 136.065C313.708 135.851 313.815 135.738 313.946 135.711C314.078 135.684 314.222 135.745 314.359 135.914C314.495 136.084 314.61 136.344 314.673 136.66Z" fill="#263238" stroke="black" stroke-width="0.235427"/>
<path d="M321.776 134.771L321.776 134.771L321.776 134.772C321.843 135.082 321.841 135.369 321.783 135.581C321.724 135.795 321.617 135.909 321.491 135.935C321.364 135.962 321.218 135.9 321.077 135.728C320.937 135.559 320.818 135.3 320.756 134.994C320.693 134.688 320.694 134.399 320.752 134.184C320.81 133.965 320.916 133.853 321.038 133.83C321.167 133.807 321.314 133.87 321.455 134.04C321.595 134.209 321.713 134.465 321.776 134.771Z" fill="#263238" stroke="black" stroke-width="0.235427"/>
<path d="M304.378 122.771C303.739 123.398 303.295 124.197 303.101 125.072C302.577 126.922 302.426 128.857 302.656 130.765C302.885 132.674 303.492 134.518 304.44 136.19C305.023 136.119 305.614 136.142 306.189 136.26C306.802 136.418 307.589 137.467 307.878 138.01C308.131 138.588 308.276 139.208 308.306 139.838C308.166 138.176 308.035 136.523 307.895 134.861C307.801 134.196 307.831 133.52 307.983 132.866C308.411 131.502 307.939 128.282 308.061 125.404C311.692 129.839 316.966 129.052 318.716 128.903C321.34 128.685 323.58 125.999 323.44 124.083C323.3 122.168 322.784 117.234 314.132 116.727C312.226 116.524 310.305 116.925 308.639 117.873C308.11 118.221 307.662 118.676 307.323 119.21C306.984 119.744 306.761 120.343 306.67 120.969C306.548 121.774 306.854 121.844 306.242 122.238C305.629 122.631 304.982 122.255 304.378 122.771Z" fill="#263238" stroke="black" stroke-width="0.235427" stroke-linecap="round" stroke-linejoin="round"/>
<path d="M315.838 142.707C315.838 142.707 317.124 144.125 319.809 143.189L315.838 142.707Z" fill="white"/>
<path d="M315.838 142.707C315.838 142.707 317.124 144.125 319.809 143.189" stroke="black" stroke-width="0.235427" stroke-linecap="round" stroke-linejoin="round"/>
</svg>
