<svg width="36" height="36" viewBox="0 0 36 36" fill="none" xmlns="http://www.w3.org/2000/svg">
<path d="M17.7049 32.9015C15.6885 32.9015 13.7828 32.514 11.9877 31.7389C10.1926 30.9648 8.62523 29.9074 7.28556 28.5668C5.9449 27.2271 4.88753 25.6597 4.11343 23.8646C3.33835 22.0695 2.95081 20.1638 2.95081 18.1474C2.95081 16.1064 3.33835 14.1948 4.11343 12.4125C4.88753 10.6292 5.9449 9.06774 7.28556 7.72806C8.62523 6.38741 10.1926 5.32954 11.9877 4.55446C13.7828 3.78036 15.6885 3.39331 17.7049 3.39331C19.7459 3.39331 21.6575 3.78036 23.4398 4.55446C25.2231 5.32954 26.7846 6.38741 28.1242 7.72806C29.4649 9.06774 30.5223 10.6292 31.2964 12.4125C32.0715 14.1948 32.459 16.1064 32.459 18.1474V20.2868C32.459 21.7376 31.9613 22.973 30.9659 23.993C29.9695 25.014 28.7459 25.5245 27.2951 25.5245C26.4098 25.5245 25.5861 25.3277 24.8238 24.9343C24.0615 24.5409 23.4344 24.0245 22.9426 23.3851C22.2787 24.049 21.4982 24.5718 20.6011 24.9535C19.7031 25.3341 18.7377 25.5245 17.7049 25.5245C15.6639 25.5245 13.9244 24.8049 12.4864 23.3659C11.0474 21.9279 10.3279 20.1884 10.3279 18.1474C10.3279 16.1064 11.0474 14.3664 12.4864 12.9274C13.9244 11.4894 15.6639 10.7704 17.7049 10.7704C19.7459 10.7704 21.4859 11.4894 22.9249 12.9274C24.3629 14.3664 25.082 16.1064 25.082 18.1474V20.2868C25.082 20.9999 25.3033 21.559 25.7459 21.9643C26.1885 22.3705 26.7049 22.5736 27.2951 22.5736C27.8852 22.5736 28.4016 22.3705 28.8442 21.9643C29.2869 21.559 29.5082 20.9999 29.5082 20.2868V18.1474C29.5082 14.9261 28.346 12.1533 26.0218 9.82905C23.6985 7.50577 20.9262 6.34413 17.7049 6.34413C14.4836 6.34413 11.7108 7.50577 9.38654 9.82905C7.06326 12.1533 5.90163 14.9261 5.90163 18.1474C5.90163 21.3687 7.06326 24.141 9.38654 26.4643C11.7108 28.7886 14.4836 29.9507 17.7049 29.9507H25.082V32.9015H17.7049ZM17.7049 22.5736C18.9344 22.5736 19.9795 22.1433 20.8401 21.2827C21.7008 20.422 22.1311 19.3769 22.1311 18.1474C22.1311 16.9179 21.7008 15.8728 20.8401 15.0122C19.9795 14.1515 18.9344 13.7212 17.7049 13.7212C16.4754 13.7212 15.4303 14.1515 14.5697 15.0122C13.709 15.8728 13.2787 16.9179 13.2787 18.1474C13.2787 19.3769 13.709 20.422 14.5697 21.2827C15.4303 22.1433 16.4754 22.5736 17.7049 22.5736Z" fill="#93C0A4"/>
</svg>
