<svg width="25" height="25" viewBox="0 0 25 25" fill="none" xmlns="http://www.w3.org/2000/svg">
<path d="M10.2917 8.20833H12.375L13.4167 10.8125L14.4583 8.20833H16.5417L14.4583 13.4167L16.5417 18.625H14.4583L13.4167 16.0208L12.375 18.625H10.2917L12.375 13.4167L10.2917 8.20833ZM13.4167 3C14.7846 3 16.1391 3.26944 17.403 3.79292C18.6668 4.31641 19.8151 5.08369 20.7824 6.05097C21.7496 7.01825 22.5169 8.16657 23.0404 9.43038C23.5639 10.6942 23.8333 12.0487 23.8333 13.4167C23.8333 16.1793 22.7359 18.8289 20.7824 20.7824C18.8289 22.7359 16.1793 23.8333 13.4167 23.8333C12.0487 23.8333 10.6942 23.5639 9.43038 23.0404C8.16657 22.5169 7.01825 21.7496 6.05097 20.7824C4.09747 18.8289 3 16.1793 3 13.4167C3 10.654 4.09747 8.00448 6.05097 6.05097C8.00448 4.09747 10.654 3 13.4167 3M13.4167 5.08333C11.2065 5.08333 9.08691 5.96131 7.52411 7.52411C5.96131 9.08691 5.08333 11.2065 5.08333 13.4167C5.08333 15.6268 5.96131 17.7464 7.52411 19.3092C9.08691 20.872 11.2065 21.75 13.4167 21.75C15.6268 21.75 17.7464 20.872 19.3092 19.3092C20.872 17.7464 21.75 15.6268 21.75 13.4167C21.75 11.2065 20.872 9.08691 19.3092 7.52411C17.7464 5.96131 15.6268 5.08333 13.4167 5.08333V5.08333Z" fill="#93C0A4"/>
</svg>
