<svg width="460" height="260" viewBox="0 0 460 260" fill="none" xmlns="http://www.w3.org/2000/svg">
<g opacity="0.3">
<path d="M367.03 6.88344C381.067 6.88344 394.53 12.4598 404.456 22.3857C414.382 32.3116 419.958 45.774 419.958 59.8114V239.188C419.958 245.264 415.033 250.188 408.958 250.188H325.095C319.02 250.188 314.095 245.264 314.095 239.188V59.8114C314.095 45.774 319.672 32.3116 329.598 22.3857C339.524 12.4598 352.986 6.88344 367.023 6.88344H367.03Z" stroke="black" stroke-linecap="round" stroke-linejoin="round"/>
<path d="M326.05 249.616V61.5211C326.05 50.6526 330.368 40.2292 338.053 32.544C345.738 24.8587 356.162 20.5412 367.03 20.5412L-nan -nanL-nan -nanL367.03 20.5412C377.897 20.543 388.319 24.8613 396.003 32.5463C403.687 40.2313 408.003 50.6537 408.003 61.5211V249.616" stroke="black" stroke-linecap="round" stroke-linejoin="round"/>
<path d="M367.03 6.88345V249.902" stroke="black" stroke-linecap="round" stroke-linejoin="round"/>
<path d="M314.668 53.6977H419.246" stroke="black" stroke-linecap="round" stroke-linejoin="round"/>
<path d="M314.668 86.7078H419.246" stroke="black" stroke-linecap="round" stroke-linejoin="round"/>
<path d="M314.668 119.718H419.246" stroke="black" stroke-linecap="round" stroke-linejoin="round"/>
<path d="M314.668 152.721H419.246" stroke="black" stroke-linecap="round" stroke-linejoin="round"/>
<path d="M314.668 185.732H419.246" stroke="black" stroke-linecap="round" stroke-linejoin="round"/>
<path d="M314.668 218.742H419.246" stroke="black" stroke-linecap="round" stroke-linejoin="round"/>
<path d="M328.651 23.4018L338.131 32.0369" stroke="black" stroke-linecap="round" stroke-linejoin="round"/>
<path d="M405.01 23.4018L395.523 32.0369" stroke="black" stroke-linecap="round" stroke-linejoin="round"/>
</g>
<path d="M315.123 113.547C312.92 113.687 307.527 110.197 309.413 109.05C310.368 108.47 311.264 107.906 312.087 107.377C313.356 106.56 315.845 104.052 314.377 104.402C312.807 104.776 308.414 103.079 309.694 102.095C312.354 100.052 314.794 97.9944 316.858 96.1672C318.417 94.7862 320.885 90.983 318.967 91.7955C316.97 92.6416 311.128 91.509 312.559 89.8793C313.2 89.1493 313.833 88.4125 314.459 87.669C315.934 85.9166 314.785 84.5994 312.817 85.7717C311.569 86.5158 310.167 87.358 308.654 88.2775C306.308 89.7037 305.381 81.5857 306.718 79.1871C307.964 76.951 307.178 75.8545 305.246 77.5337C303.16 79.3465 294.643 79.7193 295.601 77.1271C295.743 76.7439 295.88 76.366 296.014 75.9941C296.855 73.6574 297.335 68.1676 295.814 70.1304C294.189 72.2276 286.616 74.2651 287.064 71.65C287.138 71.2189 287.208 70.7948 287.276 70.3787C287.657 68.0232 287.105 62.8333 286.008 64.9521C284.847 67.1937 278.385 70.4163 278.384 67.8919C278.384 67.6224 278.383 67.3559 278.382 67.0927C278.367 64.7045 276.914 59.8201 276.183 62.0939C275.419 64.4726 269.964 68.6118 269.57 66.1445C269.197 63.8085 268.762 61.4823 268.264 59.1685C267.832 57.1577 267.03 57.1832 266.714 59.2155C266.449 60.9133 266.122 63.0769 265.767 65.5552C265.36 68.4018 258.654 68.9193 257.607 66.2413C257.454 65.8521 257.303 65.4703 257.153 65.0963C256.286 62.9335 253.217 59.0026 253.364 61.3283C253.517 63.7581 250.065 69.4655 248.837 67.3633C247.407 64.916 245.9 62.5139 244.317 60.1608C243.509 58.9603 242.733 57.0972 243.028 58.5136C243.835 62.3878 238.051 67.361 235.371 64.4495C234.97 64.0149 234.567 63.5828 234.162 63.1534C233.54 62.4957 233.362 62.5986 233.686 63.4435C234.31 65.0668 235.484 68.0855 237.015 71.8589C238.095 74.5212 232.648 78.2828 230.399 76.4959C230.151 76.2995 229.907 76.1065 229.665 75.917C227.774 74.4357 222.884 72.3393 224.219 74.3356C225.64 76.4599 225.274 83.8843 223.037 82.6477C222.822 82.5287 222.609 82.4114 222.397 82.2959C220.24 81.1176 214.92 79.7833 216.607 81.5709C218.414 83.4843 219.251 91.2481 216.76 90.3992C216.435 90.2882 216.113 90.18 215.796 90.0744C213.463 89.2978 207.97 88.9032 209.946 90.3681C212.067 91.9414 214.246 99.5366 211.634 99.1415C210.958 99.0392 210.299 98.9445 209.661 98.8571C207.46 98.5555 202.723 99.211 204.713 100.197C206.796 101.229 209.896 106.797 207.572 106.797C204.082 106.798 200.592 106.933 197.11 107.204C197.11 107.204 205.183 109.974 215.202 112.937C217.065 113.488 216.805 116.63 214.886 116.941C213.887 117.103 212.89 117.279 211.895 117.468C210.729 117.69 208.346 118.856 209.517 119.044C210.717 119.238 213.231 121.444 212.06 121.769C210.994 122.066 209.931 122.378 208.874 122.706C207.769 123.048 207.822 123.522 208.976 123.61C213.505 123.954 223.881 124.657 233.539 124.707C234.12 124.707 234.288 125.753 233.742 125.951C231.187 126.881 228.751 127.959 226.707 128.941C225.379 129.579 225.931 131.303 227.391 131.101C231.302 130.557 236.49 129.768 241.389 128.805C249.636 127.18 259.914 123.847 262.655 122.932C262.667 122.928 262.678 122.937 262.678 122.95C262.678 122.969 262.704 122.975 262.712 122.958L262.73 122.92C262.735 122.911 262.744 122.905 262.755 122.905H262.844C262.844 122.905 262.844 122.905 262.844 122.905C262.844 122.905 262.901 122.914 262.901 122.914C262.906 122.902 262.911 122.89 262.917 122.878C262.917 122.878 262.917 122.878 262.917 122.878H262.96C262.99 122.878 263.016 122.897 263.025 122.926C263.043 122.986 263.056 123.036 263.067 123.074C263.073 123.098 263.077 123.124 263.077 123.149L263.816 258.051C263.819 258.689 264.348 259.199 264.987 259.178C265.601 259.159 266.088 258.653 266.084 258.038L265.45 141.348C265.405 133.128 274.061 127.794 281.669 130.908C284.348 132.005 287.042 133.018 289.567 133.821C295.699 135.768 303.195 136.443 309.031 136.639C311.22 136.712 316.117 135.674 314.054 134.937C311.821 134.139 307.932 127.795 310.274 127.422C310.562 127.376 310.846 127.33 311.126 127.283C313.26 126.928 318.037 125.006 315.897 124.692C313.543 124.346 308.239 118.22 310.458 117.362C310.843 117.213 311.221 117.064 311.59 116.917C313.518 116.149 317.194 113.415 315.123 113.547Z" fill="#B2B2B2"/>
<path d="M272.539 155.712C271.502 157.651 265.729 160.396 265.756 158.197C265.769 157.07 265.766 156.002 265.753 155.016C265.732 153.507 264.921 150.064 264.441 151.496C263.929 153.025 260.169 155.858 260.012 154.253C259.685 150.914 259.23 147.754 258.771 145.036C258.424 142.981 256.5 138.873 256.175 140.932C255.837 143.075 251.786 147.437 251.159 145.359C250.427 142.934 249.629 140.529 248.764 138.147C248.307 136.889 247.955 136.94 247.914 138.278C247.851 140.34 247.763 143.706 247.711 147.79C247.677 150.536 240.29 147.026 238.96 144.623C237.721 142.385 236.377 142.468 236.781 144.994C237.217 147.724 233.033 155.148 231.34 152.963C231.114 152.672 230.891 152.386 230.67 152.105C229.128 150.145 224.706 146.833 225.572 149.171C226.496 151.665 224.234 159.169 222.247 157.402C221.903 157.095 221.563 156.796 221.229 156.504C219.433 154.936 214.737 152.66 215.954 154.71C217.243 156.88 216.562 164.07 214.419 162.737C214.168 162.581 213.92 162.427 213.674 162.277C211.642 161.03 206.737 159.677 208.276 161.497C209.888 163.405 210.504 170.228 208.203 169.256C204.972 167.891 201.686 166.653 198.354 165.546C197.997 165.427 197.95 165.488 198.233 165.736C199.24 166.621 201.998 169.029 205.707 172.15C207.904 173.998 204.791 179.976 201.969 179.452C201.564 179.376 201.166 179.304 200.774 179.235C198.483 178.829 193.527 179.352 195.576 180.456C197.718 181.61 200.734 187.558 198.302 187.487C194.675 187.382 191.044 187.424 187.417 187.614C187.417 187.614 188.611 188.058 190.65 188.787C194.199 190.056 193.296 196.553 189.589 197.233C187.56 197.605 187.528 198.414 189.557 198.792C191.251 199.106 193.409 199.498 195.882 199.927C198.714 200.417 199.024 207.019 196.316 207.982C196.027 208.084 195.742 208.187 195.461 208.288C193.198 209.109 188.824 212.147 191.23 212.072C193.791 211.992 199.914 216.24 197.679 217.491C197.464 217.611 197.252 217.73 197.043 217.848C194.904 219.06 190.963 222.877 193.372 222.388C195.95 221.865 202.98 225.25 200.943 226.915C200.698 227.115 200.457 227.313 200.219 227.51C198.317 229.085 195.08 233.559 197.376 232.651C199.837 231.678 207.427 233.822 205.706 235.832C205.252 236.363 204.814 236.883 204.394 237.388C202.973 239.099 201.032 243.475 202.922 242.303C204.897 241.079 211.252 241.382 210.023 243.353C209.042 244.928 208.092 246.523 207.176 248.138C206.064 250.098 206.89 250.778 208.617 249.331C210.793 247.506 213.737 245.006 217.006 242.146C218.892 240.494 222.27 242.993 221.364 245.331C221.133 245.928 220.907 246.526 220.686 247.126C220.248 248.316 219.533 250.391 220.37 249.439C221.417 248.248 224.984 247.778 224.56 249.306C224.349 250.064 224.146 250.825 223.952 251.589C223.74 252.417 223.959 252.523 224.466 251.835C226.794 248.677 233.386 239.611 238.901 230.849C239.222 230.34 240.191 230.747 240.066 231.336C239.516 233.937 239.148 236.518 238.901 238.738C238.734 240.24 240.53 240.695 241.145 239.314C242.747 235.723 244.791 230.963 246.532 226.352C249.518 218.489 252.12 207.999 252.8 205.179C252.803 205.168 252.815 205.165 252.824 205.172C252.838 205.183 252.857 205.166 252.847 205.151L252.822 205.11C252.82 205.106 252.819 205.101 252.819 205.097V205.045C252.819 205.024 252.842 205.01 252.861 205.021C252.888 205.036 252.916 205.002 252.896 204.978L252.848 204.923C252.842 204.915 252.839 204.906 252.839 204.896V204.889C252.839 204.85 252.876 204.822 252.913 204.833L253.051 204.874C253.06 204.876 253.069 204.88 253.078 204.884L262.861 209.718C263.938 210.25 265.169 209.352 264.991 208.164C264.914 207.648 264.572 207.21 264.09 207.01L262.573 206.381C259.247 205.001 258.891 200.407 261.907 198.442C266.6 195.384 271.996 191.632 276.222 188.027C281.14 183.834 285.696 177.793 288.952 172.932C290.162 171.124 291.877 166.439 290.172 167.791C288.323 169.257 280.874 169.191 281.79 167.016C281.899 166.757 282.006 166.501 282.11 166.248C282.934 164.254 283.832 159.189 282.437 160.835C280.901 162.647 272.89 163.902 273.332 161.569C273.402 161.203 273.468 160.844 273.532 160.49C273.899 158.452 273.515 153.885 272.539 155.712Z" fill="#B2B2B2"/>
<path d="M301.421 204.229C300.613 202.998 300.774 198.917 302.05 199.651C303.687 200.593 305.361 201.471 307.069 202.282C307.563 202.517 308.182 202.993 307.814 202.588C306.729 201.389 307.908 198.416 309.419 198.991C310.296 199.324 311.138 199.628 311.926 199.902C313.207 200.348 316.154 200.535 315.08 199.705C313.963 198.841 312.744 195.167 314.125 195.46C315.861 195.829 317.607 196.147 319.362 196.413C320.033 196.515 320.091 196.366 319.507 196.02C318.395 195.361 316.351 194.163 313.797 192.717C312.239 191.835 316.552 188.729 318.343 188.725C320.015 188.721 320.387 187.916 318.813 187.352C317.113 186.742 314.179 182.022 315.964 181.739C316.229 181.697 316.489 181.655 316.745 181.612C318.345 181.344 321.618 179.86 320.014 179.621C318.302 179.367 314.731 175.72 316.363 175.141C316.566 175.069 316.766 174.997 316.964 174.926C318.467 174.381 321.239 172.363 319.641 172.417C317.964 172.474 314.093 169.932 315.563 169.123C315.741 169.025 315.919 168.926 316.097 168.827C317.44 168.074 319.739 165.655 318.23 165.962C316.663 166.281 312.6 164.546 313.857 163.557C315.031 162.634 316.181 161.68 317.305 160.696C318.368 159.766 318.057 159.25 316.734 159.744C315.724 160.12 314.478 160.591 313.073 161.134C311.331 161.808 308.892 158.16 310.075 156.714C310.243 156.508 310.408 156.305 310.569 156.105C311.519 154.923 312.771 151.93 311.498 152.754C310.167 153.615 305.83 153.472 306.633 152.106C307.336 150.909 308.012 149.696 308.658 148.467C309.321 147.205 308.84 146.833 307.776 147.781C307.031 148.444 306.129 149.253 305.12 150.17C303.913 151.268 301.755 149.713 302.352 148.194C302.927 146.731 301.194 145.773 300.214 147.002C300.139 147.096 300.064 147.19 299.987 147.286C298.867 148.694 295.225 146.901 295.524 145.127C295.576 144.819 295.626 144.516 295.673 144.219C295.928 142.61 295.499 139.136 294.762 140.588C293.985 142.117 289.766 144.315 289.765 142.6C289.765 140.812 289.708 139.024 289.594 137.238C289.515 135.992 289.077 135.939 288.699 137.129C288.367 138.172 287.939 139.538 287.458 141.122C286.946 142.812 282.995 139.219 282.604 137.497C282.248 135.926 281.42 135.805 281.219 137.403C281.002 139.115 277.388 142.787 276.777 141.173C276.616 140.748 276.456 140.335 276.298 139.937C275.766 138.589 273.876 136.111 273.951 137.558C274.031 139.071 271.86 142.604 271.119 141.283C270.867 140.834 270.611 140.388 270.352 139.944C269.551 138.574 268.246 139.095 268.565 140.649C268.968 142.616 269.476 145.004 270.059 147.565C270.34 148.798 268.475 149.65 267.688 148.661C267.274 148.142 266.854 147.628 266.427 147.12C265.931 146.532 264.513 145.547 264.778 146.269C265.05 147.009 264.599 149.138 264.044 148.577C264.019 148.552 263.993 148.526 263.967 148.5C263.41 147.938 262.566 148.541 262.906 149.255C264.382 152.363 266.77 157.247 269.25 161.722C269.464 162.11 268.919 162.547 268.585 162.258C266.386 160.362 264.031 158.652 261.545 157.148C261.303 157.002 261.259 157.044 261.426 157.272C262.379 158.578 265.892 163.339 269.423 167.484C272.597 171.058 275.962 174.458 279.504 177.668C279.52 177.683 279.51 177.709 279.489 177.709H279.557C279.569 177.709 279.58 177.713 279.588 177.721L279.604 177.738C279.617 177.75 279.614 177.77 279.599 177.779C279.576 177.793 279.586 177.828 279.612 177.828H279.659C279.669 177.828 279.679 177.832 279.686 177.84L279.689 177.842C279.707 177.86 279.708 177.89 279.69 177.908L279.628 177.974C279.62 177.983 279.61 177.991 279.599 177.998L267.76 185.169C267.411 185.381 267.299 185.835 267.511 186.184C267.722 186.533 268.176 186.644 268.525 186.433L272.461 184.047C275.935 181.942 280.407 184.335 280.811 188.376C281.084 191.106 281.458 193.946 281.97 196.436C282.821 200.55 284.834 205.033 286.585 208.411C287.24 209.672 289.384 212.125 289.145 210.724C288.887 209.206 291.254 204.969 292.211 206.176C292.319 206.313 292.427 206.449 292.534 206.582C293.416 207.68 296.028 209.777 295.525 208.462C294.971 207.016 296.757 202.056 297.952 203.042C298.077 203.145 298.2 203.246 298.323 203.346C299.41 204.232 302.19 205.402 301.421 204.229Z" fill="#B2B2B2"/>
<path d="M257.804 239.34C258.775 238.232 262.753 237.294 262.388 238.721C262.206 239.434 262.035 240.15 261.874 240.868C261.662 241.82 261.684 244.141 262.198 243.311C262.743 242.43 265.532 241.179 265.394 242.207C265.101 244.398 264.918 246.494 264.805 248.304C264.72 249.657 265.329 252.547 265.84 251.291C266.372 249.983 269.587 247.82 269.675 249.229C269.678 249.276 269.681 249.324 269.684 249.371C269.773 250.759 271.543 250.894 271.883 249.545C271.991 249.119 272.102 248.676 272.215 248.218C272.645 246.485 276.816 249.803 277.303 251.521C277.757 253.122 278.616 253.254 278.735 251.594C278.864 249.798 282.627 245.712 283.378 247.349C283.483 247.578 283.588 247.804 283.692 248.025C284.38 249.494 286.689 252.246 286.488 250.637C286.273 248.918 288.831 244.498 289.828 245.914C289.95 246.087 290.071 246.258 290.191 246.425C291.124 247.73 293.816 249.846 293.332 248.317C292.825 246.713 294.233 242.307 295.413 243.506C296.615 244.727 297.853 245.912 299.127 247.06C300.069 247.909 301.244 249.309 300.68 248.173C299.587 245.975 301.995 241.589 304.049 242.933C304.67 243.339 305.296 243.737 305.928 244.127C306.283 244.347 306.348 244.285 306.105 243.946C305.503 243.106 304.2 241.302 302.485 239.006C301.368 237.51 304.233 234.176 305.943 234.926C306.184 235.032 306.421 235.135 306.655 235.235C308.048 235.833 311.27 236.238 310.134 235.234C308.946 234.184 307.916 229.96 309.449 230.365C311.125 230.808 312.814 231.201 314.515 231.543C315.579 231.758 317.001 232.315 316.093 231.72C313.979 230.334 314.142 225.378 316.666 225.495C316.736 225.499 316.806 225.502 316.876 225.505C318.07 225.558 318.159 225.17 317.066 224.687C315.983 224.21 314.511 223.568 312.786 222.835C311.062 222.102 311.844 217.893 313.705 217.687C313.823 217.674 313.94 217.661 314.056 217.647C315.671 217.462 318.911 216.121 317.317 215.802C315.639 215.466 312.377 211.999 314.025 211.539C314.226 211.483 314.426 211.426 314.625 211.369C316.155 210.93 319.221 209.049 317.63 209.002C315.938 208.952 311.989 205.809 313.511 205.068C313.738 204.957 313.962 204.847 314.182 204.738C315.62 204.023 318.338 201.671 316.75 201.905C315.047 202.156 310.552 199.668 311.94 198.65C312.304 198.383 312.657 198.12 312.996 197.864C314.155 196.988 316.036 194.501 314.658 194.962C313.218 195.443 309.231 194.295 310.307 193.224C310.982 192.552 311.646 191.869 312.299 191.175C313.373 190.033 312.797 189.28 311.399 189.99C310.381 190.508 309.189 191.12 307.882 191.804C306.036 192.769 303.662 190.002 304.782 188.245C304.842 188.149 304.903 188.054 304.964 187.958C305.191 187.596 305.115 187.524 304.766 187.771C304.328 188.082 303.65 188.565 302.798 189.181C302.089 189.693 301.114 188.8 301.541 188.037C301.946 187.313 301.2 186.717 300.573 187.262C297.986 189.506 293.828 193.196 290.106 196.868C289.8 197.159 289.236 196.759 289.416 196.376C290.597 193.864 291.575 191.259 292.339 188.588C292.477 188.108 292.367 188.048 292.059 188.441C290.814 190.029 287.449 194.379 284.605 198.598C282.008 202.626 279.633 206.793 277.492 211.081C277.486 211.092 277.471 211.093 277.463 211.083C277.453 211.071 277.433 211.078 277.433 211.094V211.131V211.159C277.433 211.174 277.415 211.182 277.404 211.172C277.389 211.16 277.368 211.177 277.377 211.194L277.4 211.238C277.404 211.246 277.404 211.256 277.399 211.264L277.395 211.271C277.383 211.293 277.356 211.3 277.335 211.288L277.296 211.265C277.263 211.245 277.221 211.249 277.192 211.276L266.596 221.21L265.585 222.281C268.151 219.804 265.695 215.845 262.455 217.334C261.641 217.708 260.851 218.089 260.103 218.476C256.363 220.399 252.584 223.547 249.803 226.143C248.766 227.112 246.984 229.83 248.268 229.225C249.661 228.568 254.373 229.714 253.468 230.959C253.352 231.118 253.239 231.275 253.128 231.43C252.314 232.567 250.994 235.632 252.119 234.799C253.359 233.882 258.632 234.291 258.008 235.702C257.945 235.843 257.884 235.982 257.824 236.12C257.265 237.405 256.881 240.394 257.804 239.34Z" fill="#B2B2B2"/>
<path d="M-nan -nanL49.6286 49.9057V58.8867C49.6286 59.8052 48.884 60.5498 47.9654 60.5498C47.0469 60.5498 46.3023 59.8052 46.3023 58.8867V48.8679C46.3023 47.5411 45.7752 46.2686 44.837 45.3304C43.8988 44.3922 42.6264 43.8652 41.2996 43.8652L-nan -nanL41.2996 43.8652C40.6429 43.8652 39.9927 43.9946 39.3861 44.2461C38.7795 44.4976 38.2284 44.8662 37.7644 45.3308C37.3004 45.7955 36.9325 46.347 36.6819 46.9539C36.4312 47.5609 36.3026 48.2112 36.3035 48.8679V61.8238C36.3035 62.6707 35.6169 63.3572 34.77 63.3572C33.9232 63.3572 33.2366 62.6707 33.2366 61.8238V55.6602C33.2366 55.1884 33.1437 54.7213 32.9632 54.2854C32.7826 53.8496 32.518 53.4536 32.1844 53.12C31.8508 52.7864 31.4548 52.5218 31.019 52.3413C30.5831 52.1607 30.116 52.0678 29.6442 52.0678L-nan -nanL29.6442 52.0678C29.1728 52.0678 28.706 52.1608 28.2705 52.3414C27.835 52.522 27.4394 52.7867 27.1064 53.1204C26.7733 53.4541 26.5093 53.8501 26.3295 54.2859C26.1497 54.7218 26.0576 55.1887 26.0585 55.6602V67.4552C26.0585 68.0675 26.3017 68.6546 26.7346 69.0875C27.1675 69.5205 27.7547 69.7637 28.3669 69.7637H31.9227C34.3385 69.7637 36.2968 71.722 36.2968 74.1378C36.2968 76.5535 38.2551 78.5118 40.6709 78.5118H41.2862C44.0418 78.5118 46.2757 76.278 46.2757 73.5224V72.8571C46.2757 69.7341 48.8074 67.2024 51.9304 67.2024H53.1944C53.9425 67.2024 54.6599 66.9053 55.1889 66.3763C55.7179 65.8473 56.0151 65.1298 56.0151 64.3817L-nan -nanL56.0151 64.3817V49.9057C56.0151 49.0553 55.6772 48.2397 55.0759 47.6383C54.4745 47.037 53.659 46.6992 52.8085 46.6992L-nan -nanL52.8085 46.6992C51.9627 46.7062 51.1539 47.0471 50.5583 47.6477C49.9627 48.2483 49.6286 49.0599 49.6286 49.9057L-nan -nanZ" fill="#92E3A9"/>
<path d="M42.0413 77.7867H40.7574C36.2584 77.7867 32.6113 81.4338 32.6113 85.9328C32.6113 90.4318 36.2584 94.0789 40.7574 94.0789H42.0413C46.5403 94.0789 50.1874 90.4318 50.1874 85.9328C50.1874 81.4338 46.5403 77.7867 42.0413 77.7867Z" fill="#B2B2B2"/>
<path d="M48.6041 73.9216H34.1813C32.7337 73.9216 31.5602 75.0951 31.5602 76.5427C31.5602 77.9903 32.7337 79.1638 34.1813 79.1638H48.6041C50.0517 79.1638 51.2252 77.9903 51.2252 76.5427C51.2252 75.0951 50.0517 73.9216 48.6041 73.9216Z" fill="#B2B2B2"/>
<path d="M46.6097 138.804C45.3668 138.493 44.2928 137.712 43.6133 136.625L39.6995 130.369C39.1122 129.43 39.8595 128.226 40.9615 128.336C41.7844 128.418 42.4825 127.738 42.4229 126.914L42.4006 126.605C42.3112 125.368 43.8772 124.762 44.6434 125.737C45.372 126.665 46.8617 126.169 46.8891 124.99L47.0464 118.198C47.079 116.79 49.0689 116.535 49.4557 117.889C49.7964 119.081 51.4883 119.075 51.8205 117.88L52.2788 116.232C52.7933 114.381 55.4972 114.653 55.6335 116.568L55.9514 121.034C56.0499 122.419 57.7447 123.028 58.7017 122.023C59.9277 120.736 62.0233 122.112 61.3293 123.749L59.6825 127.632C59.3361 128.449 60.1272 129.288 60.9629 128.989C61.9588 128.634 62.77 129.843 62.0628 130.63L54.7452 138.766C53.8075 139.809 52.3703 140.248 51.0101 139.907L46.6097 138.804Z" fill="#92E3A9"/>
<path d="M50.8294 139.716H49.5454C45.0465 139.716 41.3994 143.363 41.3994 147.862C41.3994 152.361 45.0465 156.008 49.5454 156.008H50.8294C55.3284 156.008 58.9755 152.361 58.9755 147.862C58.9755 143.363 55.3284 139.716 50.8294 139.716Z" fill="#B2B2B2"/>
<path d="M57.3922 135.85H42.9694C41.5218 135.85 40.3482 137.024 40.3482 138.472C40.3482 139.919 41.5218 141.093 42.9694 141.093H57.3922C58.8398 141.093 60.0133 139.919 60.0133 138.472C60.0133 137.024 58.8398 135.85 57.3922 135.85Z" fill="#B2B2B2"/>
<path d="M137.645 138.804C136.401 138.493 135.327 137.711 134.647 136.624L130.737 130.367C130.151 129.429 130.898 128.226 131.998 128.336C132.82 128.418 133.517 127.74 133.459 126.916L133.436 126.601C133.348 125.363 134.915 124.759 135.682 125.734C136.411 126.663 137.902 126.166 137.93 124.986L138.087 118.196C138.12 116.788 140.109 116.533 140.496 117.887C140.836 119.079 142.528 119.073 142.86 117.878L143.318 116.229C143.831 114.379 146.534 114.65 146.671 116.564L146.991 121.036C147.09 122.42 148.784 123.029 149.741 122.024C150.968 120.737 153.063 122.113 152.369 123.75L150.723 127.633C150.376 128.45 151.167 129.288 152.003 128.989C152.998 128.634 153.809 129.844 153.102 130.63L145.779 138.767C144.841 139.809 143.405 140.248 142.045 139.907L137.645 138.804Z" fill="#92E3A9"/>
<path d="M141.863 139.716H140.579C136.08 139.716 132.433 143.363 132.433 147.862C132.433 152.361 136.08 156.008 140.579 156.008H141.863C146.362 156.008 150.009 152.361 150.009 147.862C150.009 143.363 146.362 139.716 141.863 139.716Z" fill="#B2B2B2"/>
<path d="M148.433 135.85H134.01C132.562 135.85 131.389 137.024 131.389 138.472C131.389 139.919 132.562 141.093 134.01 141.093H148.433C149.88 141.093 151.054 139.919 151.054 138.472C151.054 137.024 149.88 135.85 148.433 135.85Z" fill="#B2B2B2"/>
<path d="M91.2605 136.183C88.2512 136.138 85.2502 135.853 82.2861 135.332C77.5828 134.473 76.7246 131.48 78.8667 130.628C79.8061 130.255 80.1208 129.023 79.3565 128.362C78.507 127.627 77.8582 126.691 77.5828 125.499C76.2988 119.944 81.0022 120.37 82.2861 121.654C82.6644 122.032 83.3431 121.329 83.022 120.901C81.3217 118.635 79.7182 115.966 79.7182 113.957C79.7182 109.679 84.4216 110.112 85.7056 112.68C85.836 112.94 88.5048 112.342 88.6393 112.083C89.0711 111.253 89.8838 110.902 91.2671 111.396C97.2544 113.531 95.9638 119.944 95.9638 121.221C95.9638 122.642 98.0004 123.178 98.7817 121.991C100.636 119.175 102.928 116.416 104.087 117.809C105.672 119.716 103.346 119.432 104.951 117.541C106.538 115.672 108.649 114.235 111.351 114.396C118.616 114.828 111.784 119.951 110.5 122.086C109.681 123.448 111.19 125.923 112.697 125.42C116.022 124.312 119.572 123.37 122.035 123.37C128.016 123.37 122.468 130.209 119.048 130.635C118.606 130.69 118.114 130.752 117.591 130.819C115.187 131.126 116.697 136.03 114.345 136.616C111.739 137.264 106.152 136.43 103.64 135.996C102.792 135.85 101.936 135.78 101.077 135.813L91.2605 136.183Z" fill="#92E3A9"/>
<path d="M96.985 139.716H95.7011C91.2021 139.716 87.555 143.363 87.555 147.862C87.555 152.361 91.2021 156.008 95.7011 156.008H96.985C101.484 156.008 105.131 152.361 105.131 147.862C105.131 143.363 101.484 139.716 96.985 139.716Z" fill="#B2B2B2"/>
<path d="M103.554 135.85H89.1316C87.684 135.85 86.5105 137.024 86.5105 138.472C86.5105 139.919 87.684 141.093 89.1317 141.093H103.554C105.002 141.093 106.176 139.919 106.176 138.472C106.176 137.024 105.002 135.85 103.554 135.85Z" fill="#B2B2B2"/>
<path d="M117.724 57.3034V63.9726C117.724 64.6542 118.277 65.2067 118.958 65.2067C119.64 65.2067 120.193 64.6542 120.193 63.9726V56.5583C120.193 55.5755 120.583 54.633 121.278 53.9381C121.973 53.2432 122.915 52.8528 123.898 52.8528L-nan -nanL123.898 52.8528C124.881 52.8528 125.823 53.2432 126.518 53.9381C127.213 54.633 127.604 55.5755 127.604 56.5583V66.1513C127.604 66.7796 128.113 67.2889 128.741 67.2889C129.369 67.2889 129.879 66.7796 129.879 66.1513V61.5943C129.879 60.8886 130.159 60.2117 130.658 59.7127C131.157 59.2136 131.834 58.9333 132.54 58.9333C133.245 58.9333 133.922 59.2136 134.421 59.7127C134.92 60.2117 135.201 60.8886 135.201 61.5943V70.3292C135.201 70.7826 135.021 71.2175 134.7 71.5381C134.379 71.8587 133.945 72.0389 133.491 72.0389H130.84C129.053 72.0389 127.604 73.4879 127.604 75.2754C127.604 77.0628 126.155 78.5118 124.367 78.5118H123.891C121.841 78.5118 120.179 76.8499 120.179 74.7997V74.3174C120.179 72.0008 118.301 70.1229 115.985 70.1229H115.063C114.509 70.1229 113.978 69.9028 113.586 69.5111C113.195 69.1194 112.974 68.588 112.974 68.034L-nan -nanL112.974 68.034V57.3034C112.974 56.6735 113.225 56.0694 113.67 55.624C114.115 55.1786 114.72 54.9284 115.349 54.9284C115.979 54.9284 116.583 55.1786 117.029 55.624C117.474 56.0694 117.724 56.6735 117.724 57.3034Z" fill="#92E3A9"/>
<path d="M123.715 77.7867H122.431C117.932 77.7867 114.285 81.4338 114.285 85.9328C114.285 90.4318 117.932 94.0789 122.431 94.0789H123.715C128.214 94.0789 131.861 90.4318 131.861 85.9328C131.861 81.4338 128.214 77.7867 123.715 77.7867Z" fill="#B2B2B2"/>
<path d="M130.278 73.9216H115.855C114.407 73.9216 113.234 75.0951 113.234 76.5427C113.234 77.9903 114.407 79.1638 115.855 79.1638H130.278C131.725 79.1638 132.899 77.9903 132.899 76.5427C132.899 75.0951 131.725 73.9216 130.278 73.9216Z" fill="#B2B2B2"/>
<path d="M-nan -nanL49.8681 181.341V187.99C49.8681 188.672 50.4206 189.224 51.1021 189.224C51.7837 189.224 52.3362 188.672 52.3362 187.99V180.576C52.3362 179.593 52.7266 178.651 53.4215 177.956C54.1164 177.261 55.0589 176.87 56.0417 176.87L-nan -nanL56.0417 176.87C56.528 176.87 57.0095 176.966 57.4587 177.153C57.9079 177.339 58.3159 177.612 58.6595 177.956C59.003 178.3 59.2754 178.709 59.4609 179.158C59.6463 179.608 59.7414 180.09 59.7405 180.576V190.166C59.7405 190.796 60.2513 191.306 60.8814 191.306C61.5115 191.306 62.0223 190.796 62.0223 190.166V185.618C62.0223 184.913 62.3027 184.236 62.8017 183.737C63.3008 183.238 63.9776 182.957 64.6834 182.957C65.3891 182.957 66.066 183.238 66.565 183.737C67.0641 184.236 67.3444 184.913 67.3444 185.618V194.36C67.3444 194.813 67.1643 195.248 66.8436 195.569C66.523 195.89 66.0881 196.07 65.6347 196.07H62.9703C61.1865 196.07 59.7405 197.516 59.7405 199.3C59.7405 201.083 58.2944 202.529 56.5107 202.529H56.0317C53.9834 202.529 52.3229 200.869 52.3229 198.821V198.345C52.3229 196.034 50.4494 194.16 48.1384 194.16H47.207C46.9325 194.161 46.6604 194.108 46.4066 194.003C46.1528 193.899 45.9221 193.745 45.728 193.551C45.5338 193.356 45.38 193.126 45.2753 192.872C45.1707 192.618 45.1172 192.346 45.1181 192.071L-nan -nanL45.1181 192.071V181.341C45.1181 180.711 45.3683 180.107 45.8137 179.662C46.2591 179.216 46.8632 178.966 47.4931 178.966L-nan -nanL47.4931 178.966C48.123 178.966 48.7271 179.216 49.1724 179.662C49.6178 180.107 49.8681 180.711 49.8681 181.341L-nan -nanZ" fill="#92E3A9"/>
<path d="M55.8521 201.818H54.5681C50.0692 201.818 46.4221 205.465 46.4221 209.964C46.4221 214.463 50.0692 218.11 54.5681 218.11H55.8521C60.3511 218.11 63.9982 214.463 63.9982 209.964C63.9982 205.465 60.3511 201.818 55.8521 201.818Z" fill="#B2B2B2"/>
<path d="M62.4215 197.959H47.9987C46.5511 197.959 45.3776 199.133 45.3776 200.58C45.3776 202.028 46.5511 203.201 47.9987 203.201H62.4215C63.8691 203.201 65.0426 202.028 65.0426 200.58C65.0426 199.133 63.8691 197.959 62.4215 197.959Z" fill="#B2B2B2"/>
<path d="M137.017 181.341V187.99C137.017 188.672 137.569 189.224 138.251 189.224C138.933 189.224 139.485 188.672 139.485 187.99V180.576C139.485 179.593 139.875 178.651 140.57 177.956C141.265 177.261 142.208 176.87 143.191 176.87L-nan -nanL143.191 176.87C144.173 176.87 145.116 177.261 145.811 177.956C146.506 178.651 146.896 179.593 146.896 180.576V190.169C146.896 190.797 147.405 191.306 148.034 191.306C148.662 191.306 149.171 190.797 149.171 190.169V185.618C149.171 184.913 149.452 184.236 149.951 183.737C150.45 183.238 151.126 182.957 151.832 182.957C152.538 182.957 153.215 183.238 153.714 183.737C154.213 184.236 154.493 184.913 154.493 185.618V194.36C154.493 194.813 154.313 195.248 153.993 195.569C153.672 195.89 153.237 196.07 152.784 196.07H150.126C148.342 196.07 146.896 197.516 146.896 199.3C146.896 201.083 145.45 202.529 143.666 202.529H143.191C141.144 202.529 139.485 200.87 139.485 198.824V198.345C139.485 196.034 137.612 194.16 135.301 194.16H134.356C133.802 194.16 133.271 193.94 132.879 193.549C132.487 193.157 132.267 192.626 132.267 192.071L-nan -nanL132.267 192.071V181.341C132.267 180.711 132.517 180.107 132.963 179.662C133.408 179.216 134.012 178.966 134.642 178.966C135.272 178.966 135.876 179.216 136.321 179.662C136.767 180.107 137.017 180.711 137.017 181.341Z" fill="#92E3A9"/>
<path d="M143.021 201.818H141.737C137.238 201.818 133.591 205.465 133.591 209.964C133.591 214.463 137.238 218.11 141.737 218.11H143.021C147.52 218.11 151.167 214.463 151.167 209.964C151.167 205.465 147.52 201.818 143.021 201.818Z" fill="#B2B2B2"/>
<path d="M149.584 197.959H135.161C133.713 197.959 132.54 199.133 132.54 200.58C132.54 202.028 133.713 203.201 135.161 203.201H149.584C151.031 203.201 152.205 202.028 152.205 200.58C152.205 199.133 151.031 197.959 149.584 197.959Z" fill="#B2B2B2"/>
<path d="M97.8865 201.512C94.7995 200.177 91.197 199.459 88.9514 196.955C88.0921 195.997 87.1726 195.093 86.1979 194.247C84.6192 192.898 83.497 190.812 82.7207 188.809C81.4859 185.623 83.7794 183.484 86.1979 185.898C87.1806 186.927 90.1132 185.667 89.8981 184.26C89.6934 182.922 89.5574 181.721 89.5574 180.895C89.5574 179.94 90.0116 178.575 90.66 177.113C92.0944 173.879 96.7688 174.577 96.7688 178.114C96.7688 181.309 101.922 182.771 104.282 180.617C104.374 180.534 104.466 180.451 104.559 180.37C105.381 179.648 106.277 179.004 107.192 178.433C111.316 175.86 117.434 180.256 114.012 183.709C112.78 184.953 109.339 187.882 106.508 190.253C105.38 191.198 106.232 193.044 107.682 192.792C109.24 192.522 110.022 194.605 108.671 195.427L102.772 199.015C102.48 199.192 102.226 199.423 101.998 199.677C101.273 200.486 99.484 202.202 97.8865 201.512Z" fill="#92E3A9"/>
<path d="M96.4595 201.818H95.1755C90.6765 201.818 87.0294 205.465 87.0294 209.964C87.0294 214.463 90.6765 218.11 95.1755 218.11H96.4595C100.958 218.11 104.606 214.463 104.606 209.964C104.606 205.465 100.958 201.818 96.4595 201.818Z" fill="#B2B2B2"/>
<path d="M103.022 197.959H88.5995C87.1518 197.959 85.9783 199.133 85.9783 200.58C85.9783 202.028 87.1518 203.201 88.5995 203.201H103.022C104.47 203.201 105.643 202.028 105.643 200.58C105.643 199.133 104.47 197.959 103.022 197.959Z" fill="#B2B2B2"/>
<path d="M149.476 74.8623C148.007 74.4306 146.645 73.6991 145.483 72.7021C143.703 71.1749 141.069 68.8864 139.984 67.8012C138.274 66.0915 133.997 61.3881 137.416 63.0978C138.861 63.8729 140.268 64.7146 141.634 65.6202C143.659 66.9634 144.254 66.5556 143.547 64.2305C142.695 61.4253 141.674 57.7517 141.674 56.2589C141.674 53.6977 145.945 55.4074 148.08 59.6784C148.483 60.4839 150.219 59.931 150.1 59.0382C149.489 54.4322 149.266 49.4382 151.074 48.981C152.659 48.58 157.624 49.2104 158.165 47.6669C159.361 44.2509 160.883 41.9461 162.616 43.8519C164.41 45.8239 164.173 49.148 163.293 52.3436C162.71 54.4601 167.211 57.6019 166.461 59.6651C166.236 60.2835 168.688 65.2453 169.22 65.6329C169.765 66.0303 169.816 66.7051 169.029 67.7879C166.805 70.8471 161.324 73.5433 157.765 75.0545C155.659 75.9482 153.314 75.9899 151.119 75.3451L149.476 74.8623Z" fill="#92E3A9"/>
<path d="M154.018 77.7867H152.734C148.235 77.7867 144.588 81.4338 144.588 85.9328C144.588 90.4318 148.235 94.0789 152.734 94.0789H154.018C158.517 94.0789 162.164 90.4318 162.164 85.9328C162.164 81.4338 158.517 77.7867 154.018 77.7867Z" fill="#B2B2B2"/>
<path d="M160.587 73.9216H146.164C144.717 73.9216 143.543 75.0951 143.543 76.5427C143.543 77.9903 144.717 79.1638 146.164 79.1638H160.587C162.035 79.1638 163.208 77.9903 163.208 76.5427C163.208 75.0951 162.035 73.9216 160.587 73.9216Z" fill="#B2B2B2"/>
<path d="M81.0943 74.861C79.6254 74.4302 78.2631 73.6996 77.1009 72.7034C75.3192 71.1763 72.6809 68.8867 71.5954 67.8012C69.8857 66.0915 65.6081 61.3881 69.0342 63.0978C71.3338 64.3314 74.4687 62.026 73.8553 59.4896C73.5295 58.1422 73.3051 56.9601 73.3051 56.2589C73.3051 53.6977 77.5827 55.4074 79.7182 59.6784C80.1171 60.4761 81.8494 59.9251 81.732 59.041C81.1202 54.4341 80.8971 49.4383 82.7052 48.981C84.2889 48.5805 89.2515 49.211 89.7916 47.6694C90.9887 44.252 92.5098 41.9456 94.2408 43.8519C96.0311 45.8234 95.7957 49.1461 94.9182 52.3409C94.336 54.461 98.8438 57.5987 98.0927 59.6651C97.8681 60.2829 100.321 65.2465 100.85 65.6362C101.391 66.034 101.439 66.7081 100.654 67.7879C98.4298 70.8472 92.9519 73.5434 89.3941 75.0545C87.2899 75.9482 84.9459 75.9907 82.7522 75.3473L81.0943 74.861Z" fill="#92E3A9"/>
<path d="M85.6357 77.7867H84.3517C79.8528 77.7867 76.2057 81.4338 76.2057 85.9328C76.2057 90.4318 79.8528 94.0789 84.3517 94.0789H85.6357C90.1347 94.0789 93.7818 90.4318 93.7818 85.9328C93.7818 81.4338 90.1347 77.7867 85.6357 77.7867Z" fill="#B2B2B2"/>
<path d="M92.2051 73.9216H77.7823C76.3347 73.9216 75.1612 75.0951 75.1612 76.5427C75.1612 77.9903 76.3347 79.1638 77.7823 79.1638H92.2051C93.6528 79.1638 94.8263 77.9903 94.8263 76.5427C94.8263 75.0951 93.6528 73.9216 92.2051 73.9216Z" fill="#B2B2B2"/>
<path d="M26.4842 259.083C28.009 259.083 29.2451 257.847 29.2451 256.322V236.587C29.2451 230.512 34.1699 225.587 40.2451 225.587H163.538C169.613 225.587 174.538 230.512 174.538 236.587V256.322C174.538 257.847 175.774 259.083 177.298 259.083C178.823 259.083 180.059 257.847 180.059 256.322V104.201C180.059 98.1256 175.134 93.2007 169.059 93.2007H34.7234C28.6483 93.2007 23.7234 98.1256 23.7234 104.201V256.322C23.7234 257.847 24.9595 259.083 26.4842 259.083ZM29.2451 112.131C29.2451 106.055 34.1699 101.131 40.2451 101.131H163.538C169.613 101.131 174.538 106.055 174.538 112.131V144.482C174.538 150.557 169.613 155.482 163.538 155.482H40.2451C34.1699 155.482 29.2451 150.557 29.2451 144.482V112.131ZM29.2451 174.379C29.2451 168.304 34.1699 163.379 40.2451 163.379H163.538C169.613 163.379 174.538 168.304 174.538 174.379V206.724C174.538 212.799 169.613 217.724 163.538 217.724H40.2451C34.1699 217.724 29.2451 212.799 29.2451 206.724V174.379Z" fill="#B2B2B2"/>
<path d="M363.484 166.493C363.47 166.179 363.445 165.872 363.427 165.558C363.353 164.249 363.307 160.236 364.861 153.972C365.933 149.456 371.584 149.519 372.661 154.033C372.86 154.869 373.05 155.707 373.23 156.547C373.956 160.186 374.405 163.875 374.572 167.58C374.62 168.645 374.487 169.706 374.181 170.727C373.415 173.272 371.788 178.281 370.256 180.376C368.161 183.244 366.578 181.813 365.181 178.38C363.975 175.419 363.572 168.371 363.484 166.493Z" fill="#92E3A9" stroke="#263238" stroke-linecap="round" stroke-linejoin="round"/>
<path d="M357.363 175.039C357.35 174.961 357.337 174.885 357.325 174.807C357.231 174.216 356.818 171.299 356.818 165.454C356.818 164.067 356.895 162.513 357.016 160.926C357.33 156.793 362.229 156.037 363.444 159.999C363.911 161.607 364.477 163.624 365.057 165.717C365.879 168.687 370.631 168.644 371.667 165.741C372.093 164.557 372.636 163.304 373.236 162.048C374.88 158.611 379.544 159.935 379.544 163.745C379.55 165.345 379.486 166.944 379.352 168.536C378.966 173.138 375.028 181.165 370.662 182.671C364.045 184.954 358.605 182.412 357.363 175.039Z" fill="#92E3A9" stroke="#263238" stroke-linecap="round" stroke-linejoin="round"/>
<path d="M353.126 187.941C352.602 186.384 351.899 184.864 351.304 183.333C350.664 181.69 349.993 179.106 349.993 175.5C350.01 172.815 350.147 170.133 350.401 167.461C350.633 165.036 352.949 164.307 354.37 166.286C356.825 169.706 362.24 178.627 362.24 179.205C362.24 179.784 362.766 176.618 364.861 172.885C365.329 172.052 366.008 170.96 366.779 169.766C368.959 166.392 374.135 167.711 374.135 171.728C374.135 173.755 377.052 174.291 378.024 172.511C378.623 171.415 379.261 170.342 379.909 169.406C380.298 168.862 380.696 168.325 381.102 167.794C383.192 165.064 386.663 166.256 386.555 169.692C386.376 175.447 383.934 186.051 383.229 187.774C382.524 189.497 380.076 192.943 375.352 194.666C370.629 196.389 362.593 197.593 358.388 195.597C355.67 194.307 353.98 190.483 353.126 187.941Z" fill="#92E3A9" stroke="#263238" stroke-linecap="round" stroke-linejoin="round"/>
<path d="M353.267 197.313C351.115 196.83 349.293 195.507 348.182 193.602C347.365 192.199 346.239 190.167 344.744 187.268C342.993 183.875 341.678 180.064 340.764 176.916C339.83 173.698 342.356 171.698 344.744 174.05C346.136 175.421 348.633 178.383 351.134 181.453C352.744 183.428 357.605 181.442 358.049 178.933C358.881 174.635 363.686 174.191 365.241 178.284C365.435 178.794 365.607 179.3 365.746 179.791C366.461 182.305 370.709 182.417 371.746 180.019C372.16 179.059 372.609 178.118 373.091 177.236C373.665 176.196 374.282 175.182 374.939 174.195C377.563 170.259 380.84 171.171 380.802 175.901C380.792 177.191 380.69 178.528 380.442 179.817C380.322 180.439 381.994 180.975 382.29 180.415C383.281 178.545 384.344 176.9 385.338 176.085C389.023 173.062 393.618 177.371 392.002 181.855C391.42 183.472 390.817 184.981 390.248 186.131C389.144 188.357 387.793 190.72 386.694 192.563C385.4 194.735 383.334 196.327 380.868 196.884C375.336 198.133 364.466 199.828 353.267 197.313Z" fill="#92E3A9" stroke="#263238" stroke-linecap="round" stroke-linejoin="round"/>
<path d="M383.59 248.933C383.169 254.681 378.383 259.13 372.619 259.13H362.791C357.028 259.13 352.241 254.681 351.821 248.933L348.888 208.891C348.421 202.516 353.467 197.088 359.859 197.088H375.552C381.943 197.088 386.989 202.516 386.522 208.891L383.59 248.933Z" fill="#263238" stroke="#263238" stroke-linecap="round" stroke-linejoin="round"/>
<path d="M387.074 195.431H348.157C347.102 195.431 346.247 196.286 346.247 197.34V198.232C346.247 199.286 347.102 200.141 348.157 200.141H387.074C388.129 200.141 388.984 199.286 388.984 198.232V197.34C388.984 196.286 388.129 195.431 387.074 195.431Z" fill="#A1A1A1" stroke="#263238" stroke-linecap="round" stroke-linejoin="round"/>
<path d="M304.815 223.492V156.78" stroke="#263238" stroke-linecap="round" stroke-linejoin="round"/>
<path d="M320.991 249.856C320.122 255.176 315.526 259.083 310.135 259.083H299.781C294.391 259.083 289.794 255.176 288.925 249.856L286.292 233.73C285.198 227.036 290.365 220.957 297.148 220.957H312.769C319.551 220.957 324.718 227.036 323.625 233.73L320.991 249.856Z" fill="#263238" stroke="#263238" stroke-linecap="round" stroke-linejoin="round"/>
<path d="M-nan -nanL308.88 203.76C308.88 203.76 308.734 195.631 318.194 191.267C327.654 186.902 335.663 194.127 338.371 199.396C339.856 202.336 336 205.396 332.963 204.121C330.39 203.041 327.574 202.25 324.846 202.25C319.49 202.276 314.146 202.781 308.88 203.76L-nan -nanZ" fill="#92E3A9" stroke="#263238" stroke-linecap="round" stroke-linejoin="round"/>
<path d="M315.958 202.556L320.03 196.835" stroke="#263238" stroke-linecap="round" stroke-linejoin="round"/>
<path d="M324.846 202.257L329.816 198.192" stroke="#263238" stroke-linecap="round" stroke-linejoin="round"/>
<path d="M-nan -nanL304.103 198.425C304.103 198.425 301.782 190.634 291.417 189.351C281.052 188.067 275.637 197.374 274.652 203.215C273.824 208.375 277.262 209.47 281.244 206.084C283.375 204.271 285.827 202.659 288.436 201.831C293.547 200.23 298.79 199.09 304.103 198.425L-nan -nanZ" fill="#92E3A9" stroke="#263238" stroke-linecap="round" stroke-linejoin="round"/>
<path d="M296.992 199.423L291.384 195.205" stroke="#263238" stroke-linecap="round" stroke-linejoin="round"/>
<path d="M288.436 201.831L282.469 199.462" stroke="#263238" stroke-linecap="round" stroke-linejoin="round"/>
<path d="M283.58 180.789C289.812 178.841 292.648 172.046 286.183 171.138C286.094 171.125 286.005 171.114 285.915 171.103C277.879 170.105 273.674 177.329 272.909 181.86C272.103 186.811 274.189 187.338 278.01 184.087C279.662 182.682 281.561 181.432 283.58 180.789Z" fill="#92E3A9" stroke="#263238" stroke-linecap="round" stroke-linejoin="round"/>
<path d="M290.239 178.919L285.889 175.646" stroke="#263238" stroke-linecap="round" stroke-linejoin="round"/>
<path d="M283.6 180.789L278.97 178.953" stroke="#263238" stroke-linecap="round" stroke-linejoin="round"/>
<path d="M-nan -nanL311.654 174.376C311.654 174.376 313.457 168.328 321.5 167.331C329.543 166.333 333.741 173.557 334.506 178.094C334.912 180.622 331.339 181.98 329.39 180.32C327.737 178.913 325.835 177.661 323.815 177.017C319.848 175.776 315.778 174.892 311.654 174.376L-nan -nanZ" fill="#92E3A9" stroke="#263238" stroke-linecap="round" stroke-linejoin="round"/>
<path d="M317.176 175.154L321.526 171.881" stroke="#263238" stroke-linecap="round" stroke-linejoin="round"/>
<path d="M323.815 177.017L328.445 175.181" stroke="#263238" stroke-linecap="round" stroke-linejoin="round"/>
<path d="M311.406 202.435C308.772 202.468 306.047 202.194 303.413 202.144C302.612 202.128 301.808 202.206 301.015 202.377C298.881 202.837 296.946 203.956 295.482 205.576C290.06 211.297 294.577 220.212 298.342 224.869C298.415 224.959 298.488 225.048 298.561 225.138C302.369 229.795 310.089 230.625 314.219 226.25C315.752 224.626 317.155 222.82 318.067 220.95C321.227 214.477 322.724 209.508 318.672 205.137C316.618 202.92 313.742 202.405 311.406 202.435Z" fill="#92E3A9" stroke="#263238" stroke-linecap="round" stroke-linejoin="round"/>
<path d="M307.376 203.008C307.376 203.008 304.216 220.305 305.121 231.022" stroke="#263238" stroke-linecap="round" stroke-linejoin="round"/>
<path d="M306.472 210.991L309.638 216.114" stroke="#263238" stroke-linecap="round" stroke-linejoin="round"/>
<path d="M305.72 216.866L301.655 223.192" stroke="#263238" stroke-linecap="round" stroke-linejoin="round"/>
<path d="M306.924 206.627L301.655 207.831" stroke="#263238" stroke-linecap="round" stroke-linejoin="round"/>
<path d="M311.654 174.376C311.654 174.376 306.625 175.606 305.121 179.219" stroke="#263238" stroke-linecap="round" stroke-linejoin="round"/>
<path d="M295.754 178.148C295.754 178.148 303.91 179.817 304.815 184.488" stroke="#263238" stroke-linecap="round" stroke-linejoin="round"/>
<path d="M-nan -nanL304.968 189.005C304.968 189.005 308.734 181.926 314.002 181.175C319.74 180.356 319.842 188.346 314.418 190.39C312.991 190.928 311.717 191.28 310.829 191.28C308.655 191.308 306.554 190.492 304.968 189.005L-nan -nanZ" fill="#92E3A9" stroke="#263238" stroke-linecap="round" stroke-linejoin="round"/>
<path d="M294.231 191.921C299.95 191.117 301.525 183.877 295.781 183.283C293.727 183.071 291.616 183.948 289.739 185.176C285.903 187.687 287.291 192.379 291.869 192.151C292.645 192.113 293.438 192.032 294.231 191.921Z" fill="#92E3A9" stroke="#263238" stroke-linecap="round" stroke-linejoin="round"/>
<path d="M310.395 167.339C308.856 173.284 300.664 173.333 298.481 167.594C297.984 166.286 297.646 164.921 297.584 163.559C297.204 155.179 310.227 156.367 310.689 164.743C310.736 165.588 310.622 166.464 310.395 167.339Z" fill="#92E3A9" stroke="#263238" stroke-linecap="round" stroke-linejoin="round"/>
<path d="M304.815 170.783L302.407 167.324" stroke="#263238" stroke-linecap="round" stroke-linejoin="round"/>
<path d="M305.121 162.807L306.778 159.939" stroke="#263238" stroke-linecap="round" stroke-linejoin="round"/>
<path d="M57.7615 213.402C57.7127 212.913 57.6479 212.425 57.6414 211.934C57.6283 210.956 57.7943 209.025 58.9156 206.275C60.2178 203.019 64.4705 203.106 65.7449 206.372C65.9121 206.801 66.0727 207.232 66.2268 207.665C66.6718 209.007 66.9985 210.384 67.2039 211.78C67.4525 213.469 67.0977 215.185 66.2678 216.678C65.537 217.992 64.5636 219.527 63.6389 220.305C61.8294 221.829 60.439 221.07 59.2216 219.241C58.3009 217.857 57.9015 214.807 57.7615 213.402Z" fill="#92E3A9" stroke="#263238" stroke-linecap="round" stroke-linejoin="round"/>
<path d="M52.3695 217.391C52.0005 215.744 51.8462 214.056 51.9104 212.369C51.9104 211.846 51.9442 211.28 52.0017 210.695C52.3203 207.455 56.2068 206.58 57.6982 209.475C58.1031 210.323 58.594 211.388 59.0967 212.493C60.1177 214.739 63.6024 214.646 64.8564 212.522C65.4198 211.582 66.2117 210.554 67.0583 209.562C68.7248 207.609 71.7152 208.883 71.7152 211.45C71.7116 212.3 71.6501 213.147 71.532 213.984C71.0898 217.12 68.9211 220.193 65.8716 221.047C65.306 221.206 64.6669 221.363 63.945 221.516C58.1572 222.74 53.4339 221.356 52.3695 217.391Z" fill="#92E3A9" stroke="#263238" stroke-linecap="round" stroke-linejoin="round"/>
<path d="M49.6621 225.758C48.3903 224.137 47.0897 222.356 46.4094 220.411C46.1517 219.674 45.9697 218.777 45.9697 217.711C45.9872 216.269 46.108 214.831 46.3306 213.408C46.6107 211.619 47.7288 211.145 49.1299 212.293C49.3294 212.457 49.5441 212.637 49.7749 212.834C51.9038 214.657 56.6338 219.387 56.6338 219.693C56.6338 219.999 57.0861 218.323 58.9156 216.367C59.5288 215.711 60.553 214.743 61.6438 213.744C63.6499 211.908 66.8174 213.041 66.9985 215.755C66.9985 217.265 68.9939 217.789 69.9898 216.653C70.6342 215.918 71.312 215.212 72.0212 214.537C72.6945 213.965 73.3845 213.412 74.0901 212.881C75.9647 211.469 77.9266 212.313 77.8089 214.657C77.6559 217.704 75.5271 223.339 74.9151 224.257C74.303 225.175 72.1742 226.998 68.0629 227.909C63.9516 228.82 56.9398 229.432 53.2875 228.368C51.6909 227.903 50.4985 226.825 49.6621 225.758Z" fill="#92E3A9" stroke="#263238" stroke-linecap="round" stroke-linejoin="round"/>
<path d="M48.5385 229.237C46.8443 228.997 45.2809 228.252 44.1095 227.005C43.4278 226.279 42.5364 225.286 41.3993 223.944C39.2473 221.265 37.5955 218.221 36.523 214.956C36.523 214.956 38.3524 215.109 41.3993 216.952C42.8724 217.843 45.7697 219.973 48.3699 221.936C49.6302 222.888 52.5478 221.06 52.9748 219.54C53.8866 216.691 57.2883 216.33 58.9781 218.799C59.2561 219.205 59.4989 219.611 59.6806 219.999C60.5731 221.906 63.6094 222.006 64.8138 220.279C65.2105 219.711 65.6308 219.158 66.0738 218.622C66.3767 218.296 66.6869 217.978 67.0043 217.668C68.3044 216.395 73.0155 218.262 72.4735 219.999C72.3357 220.441 73.475 221.024 73.771 220.668C74.7158 219.533 75.7616 218.5 76.7379 218.017C80.1409 216.331 83.3998 220.401 81.0022 223.345C80.4861 223.959 79.9589 224.562 79.4206 225.156C77.4 227.385 74.4652 228.866 71.4792 229.231C66.3214 229.861 57.5365 230.508 48.5385 229.237Z" fill="#92E3A9" stroke="#263238" stroke-linecap="round" stroke-linejoin="round"/>
<path d="M-nan -nanL67.6771 259.083H55.2234C52.7471 259.082 50.3535 258.192 48.479 256.574C46.6044 254.956 45.3739 252.718 45.0117 250.268L43.6443 241.056C42.658 234.411 47.8069 228.441 54.5251 228.441H68.3858C75.1027 228.441 80.2513 234.409 79.2671 241.053L77.9021 250.268C77.5382 252.72 76.3054 254.959 74.4284 256.577C72.5514 258.195 70.1553 259.084 67.6771 259.083L-nan -nanZ" fill="#263238" stroke="#263238" stroke-linecap="round" stroke-linejoin="round"/>
<path d="M80.8226 226.785H41.9049C40.8505 226.785 39.9956 227.639 39.9956 228.694V229.585C39.9956 230.64 40.8505 231.495 41.9049 231.495H80.8226C81.877 231.495 82.7318 230.64 82.7318 229.585V228.694C82.7318 227.639 81.877 226.785 80.8226 226.785Z" fill="#A1A1A1" stroke="#263238" stroke-linecap="round" stroke-linejoin="round"/>
<path d="M184.252 68.6107C185.333 68.5142 186.306 69.2527 186.5 70.3201C187.53 75.964 190.816 92.8542 194.602 100.738C194.833 101.22 195.055 101.684 195.268 102.132C198.03 107.936 194.767 114.389 188.438 115.518C184.884 116.152 181.311 116.678 177.724 117.097C171.035 117.828 166.904 117.489 164.588 117.061C163.107 116.788 162.386 115.334 162.756 113.875C163.225 112.029 165.183 110.968 167.059 111.294C169.962 111.797 173.954 111.934 175.921 109.526C179.221 105.488 182.707 90.8125 183.239 87.3265C183.648 84.6503 182.782 75.1636 182.358 70.9006C182.243 69.7425 183.093 68.7141 184.252 68.6107Z" fill="#263238" stroke="#263238" stroke-miterlimit="10"/>
<path d="M158.464 105.538C162.512 107.334 164.675 111.735 163.928 116.1C163.645 117.759 163.434 119.29 163.434 120.184C163.434 122.938 163.76 123.583 165.264 124.588C168.59 126.79 175.722 130.641 182.148 131.56C188.574 132.478 193.344 134.121 194.622 136.329C200.56 146.627 204.765 177.466 206.198 189.276C206.561 192.269 208.18 194.915 211.066 195.787C212.49 196.217 214.321 196.665 216.642 197.061C218.591 197.393 220.195 197.652 221.501 197.854C224.455 198.308 226.878 200.612 227.346 203.563C227.915 207.145 225.426 210.479 221.822 210.884C218.812 211.222 214.836 211.642 210.036 212.089C209.493 212.14 208.96 212.185 208.436 212.227C200.354 212.865 193.794 221.054 196.241 228.783L200.31 241.633C200.811 243.21 201.271 244.893 201.686 246.567C203.3 253.085 198.133 259.063 191.418 259.063H121.514C114.483 259.063 109.255 252.562 110.772 245.696C114.076 230.736 119.079 208.076 119.926 204.199C120.552 201.335 120.918 194.938 121.127 189.134C121.354 182.853 116.136 177.799 109.855 178.049L107.381 178.148C100.41 178.426 94.9653 172.234 96.3307 165.393C98.2147 155.953 100.934 143.853 103.594 137.407C108.364 125.852 110.566 127.867 117.565 126.763C124.563 125.659 135.913 123.277 140.503 120.157C142.154 119.034 143.425 116.154 144.376 112.927C146.16 106.868 152.691 102.977 158.464 105.538Z" fill="#92E3A9" stroke="#263238" stroke-linecap="round" stroke-linejoin="round"/>
<path d="M188.501 206.461C187.603 210.169 188.285 213.053 189.912 215.302C190.684 216.369 192.001 215.487 191.602 214.232C191.295 213.264 192.108 212.282 193.12 212.365C196.146 212.616 202.143 212.888 210.016 212.136C214.813 211.677 218.789 211.256 221.798 210.919C225.4 210.517 227.895 207.186 227.326 203.606C226.858 200.659 224.434 198.358 221.484 197.903C220.177 197.702 218.572 197.442 216.622 197.107C212.41 196.385 209.809 195.496 208.336 194.853C207.221 194.366 206.127 193.781 204.926 193.593C200.992 192.979 191.693 193.054 188.501 206.461Z" fill="white" stroke="#263238" stroke-linecap="round" stroke-linejoin="round"/>
<path d="M200.29 241.653L191.218 212.999C191.03 212.407 190.894 211.804 190.811 211.188C190.46 208.562 189.499 201.136 189.652 199.635C189.838 197.806 195.154 187.707 195.154 180.549C195.154 173.391 188.734 151.943 188.182 150.46C187.691 149.168 179.263 133.875 177.5 130.686C177.408 130.519 177.258 130.397 177.078 130.338C176.464 130.136 175.856 130.735 176.081 131.341L180.514 143.294C182.08 147.519 178.897 151.994 174.392 151.9L148.344 151.354C143.375 151.25 139.093 147.827 137.898 143.004L133.445 125.041C133.217 124.123 132.283 123.585 131.374 123.847C130.488 124.102 129.92 125.011 130.147 125.905C131.834 132.577 136.97 153.469 136.232 156.7C135.556 159.535 127.822 169.53 123.787 174.607C122.23 176.567 121.36 178.972 121.311 181.475C121.189 187.762 120.836 199.943 119.9 204.226C119.052 208.103 114.049 230.763 110.745 245.722C109.228 252.588 114.456 259.09 121.488 259.09H191.399C198.114 259.09 203.281 253.112 201.667 246.594C201.252 244.917 200.791 243.232 200.29 241.653Z" fill="#263238" stroke="#263238" stroke-linecap="round" stroke-linejoin="round"/>
<path d="M158.251 116.811C161.128 117.505 164.287 114.09 164.9 111.195C165.397 108.851 163.879 107.929 161.687 106.961L153.682 103.426C150.254 101.913 146.34 104.18 145.589 107.851C144.961 110.924 146.769 114.042 149.818 114.778L158.251 116.811Z" fill="white" stroke="#263238" stroke-linecap="round" stroke-linejoin="round"/>
<path d="M173.827 69.9514C179.917 69.5362 185.213 74.1589 185.376 80.2607C185.408 81.4739 185.428 82.6469 185.428 83.6942C185.428 89.2025 186.346 94.5179 183.778 101.656C181.21 108.794 177.538 113.771 175.336 114.682C173.134 115.593 167.266 114.682 164.326 113.578C162.655 112.95 157.016 109.66 152.46 106.936C148.637 104.651 146.625 100.257 147.343 95.8608C148.634 87.9502 150.572 76.2563 150.934 75.0525C151.771 72.5937 154.282 71.2838 156.873 71.1072L173.827 69.9514Z" fill="white" stroke="#263238" stroke-linecap="round" stroke-linejoin="round"/>
<path d="M179.374 78.5118C179.374 78.5118 177.904 81.266 178.09 83.6543C178.276 86.0426 182.86 91.1717 182.86 92.0898C182.86 93.0078 180.292 94.6577 177.172 94.6577" stroke="#263238" stroke-linecap="round" stroke-linejoin="round"/>
<path d="M175.156 100.738C175.156 100.738 167.446 100.552 163.96 95.7819" stroke="#263238" stroke-linecap="round" stroke-linejoin="round"/>
<path d="M161.578 79.4498C161.578 79.4498 165.982 76.7023 169.834 77.4541" stroke="#263238" stroke-linecap="round" stroke-linejoin="round"/>
<path d="M180.292 77.2478C181.02 76.7854 181.878 76.5711 182.738 76.637C183.598 76.703 184.413 77.0456 185.062 77.6137" stroke="#263238" stroke-linecap="round" stroke-linejoin="round"/>
<path d="M170.014 85.1644C170.014 86.5814 169.315 87.7323 168.457 87.7323C167.599 87.7323 166.9 86.5814 166.9 85.1644C166.9 83.7474 167.599 82.5965 168.457 82.5965C169.315 82.5965 170.014 83.7208 170.014 85.1644Z" fill="#263238"/>
<path d="M183.133 84.732C183.133 86.1756 182.561 87.3398 181.842 87.3398C181.124 87.3398 180.551 86.1756 180.551 84.732C180.551 83.2884 181.13 82.1175 181.842 82.1175C182.554 82.1175 183.133 83.2884 183.133 84.732Z" fill="#263238"/>
<path d="M142.728 72.1354C149.644 71.9336 155.03 78.0858 153.96 84.9209C152.583 93.7172 150.969 104.472 150.568 109.001C150.122 113.886 150.182 118.804 150.748 123.676C150.748 123.676 144.88 120.55 133.691 117.097C122.501 113.644 113.879 107.743 113.879 105.541C113.879 103.944 122.276 87.2928 126.891 78.2615C128.709 74.704 132.322 72.4389 136.316 72.3224L142.728 72.1354Z" fill="#263238" stroke="#263238" stroke-miterlimit="10"/>
<path d="M142.268 167.708C140.331 165.088 136.92 164.029 133.833 165.071C128.951 166.718 121.84 169.071 118.097 170.091C112.043 171.741 96.995 173.418 93.8749 178.74C90.7549 184.062 90.5486 189.384 90.7615 193.974C90.9744 198.564 94.9793 200.573 98.2789 200.028C101.579 199.482 113.879 197.826 125.069 189.936C131.25 185.578 137.098 180.939 141.095 177.66C144.099 175.196 144.578 170.831 142.268 167.708Z" fill="white" stroke="#263238" stroke-linecap="round" stroke-linejoin="round"/>
<path d="M183.226 139.998V137.43C183.226 136.315 182.322 135.411 181.207 135.411C180.092 135.411 179.188 136.315 179.188 137.43V139.998C179.188 141.113 180.092 142.017 181.207 142.017C182.322 142.017 183.226 141.113 183.226 139.998Z" fill="white" stroke="#263238" stroke-linecap="round" stroke-linejoin="round"/>
<path d="M186.166 137.068H184.696C183.785 137.068 183.046 137.807 183.046 138.718C183.046 139.629 183.785 140.368 184.696 140.368H186.166C187.077 140.368 187.816 139.629 187.816 138.718C187.816 137.807 187.077 137.068 186.166 137.068Z" fill="white" stroke="#263238" stroke-linecap="round" stroke-linejoin="round"/>
<path d="M179.188 144.219V138.897C179.188 136.972 177.627 135.411 175.702 135.411C173.777 135.411 172.216 136.972 172.216 138.897V144.219C172.216 146.145 173.777 147.705 175.702 147.705C177.627 147.705 179.188 146.145 179.188 144.219Z" fill="white" stroke="#263238" stroke-linecap="round" stroke-linejoin="round"/>
<path d="M175.522 192.477C182.503 192.477 188.162 185.207 188.162 176.238C188.162 167.27 182.503 159.999 175.522 159.999C168.541 159.999 162.882 167.27 162.882 176.238C162.882 185.207 168.541 192.477 175.522 192.477Z" stroke="#263238" stroke-linecap="round" stroke-linejoin="round"/>
<path d="M141.654 159.419C138.04 161.104 135.622 164.864 136.813 168.669C137.022 169.336 137.258 169.995 137.523 170.643C138.069 172.013 138.942 173.284 139.897 174.393C142.543 177.465 147.045 177.471 150.578 175.482L150.908 175.296C151.633 174.888 152.401 174.563 153.199 174.328L161.051 172.016C161.252 171.957 161.448 171.893 161.645 171.823C162.741 171.432 166.568 170.068 167.04 169.932C167.592 169.772 180.618 170.663 183.372 170.298C186.126 169.932 188.694 166.971 187.956 165.341C186.733 162.643 183.578 160.939 183.277 157.992C183.168 156.928 183.066 156.046 183.006 155.802C182.827 155.07 187.038 155.249 187.224 151.577C187.396 148.179 186.189 144.06 183.809 141.628C183.527 141.34 183.199 141.102 182.82 140.94C180.252 139.842 176.946 138.944 169.974 140.201C163.002 141.459 156.396 143.528 151.446 149.196C148.738 152.297 146.752 154.744 145.51 156.323C144.477 157.636 143.168 158.713 141.654 159.419Z" fill="white" stroke="#263238" stroke-linecap="round" stroke-linejoin="round"/>
<path d="M183.778 162.933C183.778 162.933 177.358 161.835 173.686 162.754" stroke="#263238" stroke-linecap="round" stroke-linejoin="round"/>
<path d="M183.046 155.782C183.046 155.782 176.074 152.848 172.216 153.786" stroke="#263238" stroke-linecap="round" stroke-linejoin="round"/>
<path d="M185.614 146.608C185.614 146.608 178.296 143.122 171.484 145.503" stroke="#263238" stroke-linecap="round" stroke-linejoin="round"/>
<path d="M232.475 151.178C232.475 151.178 243.079 153.879 248.381 169.978" stroke="#263238" stroke-linecap="round" stroke-linejoin="round"/>
<path d="M246.878 138.472C246.878 138.472 250.204 159.274 249.379 170.677" stroke="#263238" stroke-linecap="round" stroke-linejoin="round"/>
<path d="M263.982 143.707C263.982 143.707 253.477 153.407 251.481 170.111" stroke="#263238" stroke-linecap="round" stroke-linejoin="round"/>
<path d="M245.271 128.57C244.562 128.801 240.426 129.965 239.726 130.222C237.824 130.921 236.586 133.888 237.637 135.285C238.688 136.682 241.123 134.759 240.964 135.631C240.804 136.502 237.471 138.072 238.695 139.995C239.919 141.918 242.361 142.437 243.059 141.039C243.758 139.642 244.277 137.899 244.629 138.944C244.982 139.988 243.578 142.084 245.294 142.61C247.011 143.135 250.357 143.135 250.357 141.385C250.357 139.636 248.96 139.469 250.005 138.944C251.049 138.418 252.273 140.867 253.497 139.469C254.721 138.072 255.593 133.888 253.843 133.362C252.093 132.837 252.1 134.234 250.883 133.189C249.665 132.145 252.626 130.049 249.313 128.832C247.888 128.309 246.397 128.202 245.271 128.57Z" fill="white" stroke="#263238" stroke-linecap="round" stroke-linejoin="round"/>
<path d="M259.487 137.981C259.151 138.65 257.065 142.429 256.75 143.108C255.892 144.965 257.136 147.918 258.866 148.158C260.595 148.397 260.955 145.31 261.447 146.049C261.939 146.787 260.722 150.247 262.944 150.706C265.166 151.165 267.261 149.828 266.762 148.351C266.263 146.874 265.392 145.271 266.383 145.763C267.374 146.255 267.873 148.717 269.477 147.845C271.08 146.974 273.408 144.625 272.171 143.394C270.934 142.164 269.829 143.035 270.175 141.924C270.521 140.813 273.136 141.665 273.002 139.815C272.869 137.966 270.514 134.4 268.918 135.265C267.321 136.13 268.306 137.121 266.702 137.261C265.099 137.401 265.705 133.808 262.505 135.305C261.134 135.946 260.016 136.926 259.487 137.981Z" fill="white" stroke="#263238" stroke-linecap="round" stroke-linejoin="round"/>
<path d="M224.25 145.309C223.913 145.979 221.827 149.753 221.511 150.433C220.653 152.282 221.904 155.243 223.627 155.482C225.35 155.722 225.716 152.642 226.215 153.38C226.714 154.118 225.49 157.571 227.712 158.037C229.934 158.503 232.023 157.159 231.524 155.682C231.025 154.205 230.16 152.602 231.144 153.094C232.129 153.586 232.635 156.048 234.238 155.183C235.841 154.318 238.17 151.956 236.932 150.732C235.695 149.508 234.59 150.366 234.936 149.255C235.282 148.144 237.897 149.003 237.764 147.147C237.631 145.29 235.282 141.731 233.679 142.603C232.076 143.474 233.067 144.452 231.464 144.599C229.86 144.745 230.466 141.153 227.266 142.643C225.896 143.28 224.779 144.257 224.25 145.309Z" fill="white" stroke="#263238" stroke-linecap="round" stroke-linejoin="round"/>
<path d="M248.05 170.301C245.971 170.223 243.669 169.011 241.629 168.601C241.331 168.531 241.032 168.47 240.731 168.42C238.739 168.086 236.848 166.963 238.509 165.814C239.584 165.069 239.49 163.484 238.186 163.378C237.942 163.358 237.697 163.354 237.451 163.366C237.294 163.384 237.137 163.404 236.981 163.426C235.471 163.636 234.046 162.439 234.855 161.148C235.405 160.271 236.176 159.556 237.092 159.075C237.185 159.028 237.278 158.983 237.369 158.941C237.787 158.748 238.777 155.75 238.436 155.441C238.274 155.295 238.271 155.04 238.443 154.907C238.859 154.585 239.334 154.345 239.842 154.2C240.48 154.018 241.152 153.993 241.802 154.125C242.405 154.238 243.355 152.826 242.932 152.381C241.925 151.323 241.064 150.38 240.93 150.114C240.584 149.422 244.07 150.287 246.685 152.03C248.197 152.997 249.454 154.313 250.35 155.868C250.35 155.868 250.696 152.901 251.747 151.158C252.652 149.783 254.506 150.603 254.423 152.247C254.386 152.956 254.362 153.575 254.362 153.946C254.362 155.336 255.48 152.874 258.353 152.076C259.37 151.849 260.408 151.752 261.441 151.783C263.327 151.841 263.353 152.564 261.705 153.481C260.737 154.02 259.778 154.643 259.391 155.17C259.271 155.333 259.146 155.512 259.019 155.7C258.407 156.606 259.191 157.796 260.269 157.977C260.637 158.039 261.012 158.138 261.387 158.266C263.555 159.006 262.471 161.495 260.416 162.507C259.691 162.926 259.021 163.43 258.419 164.007C258.158 164.257 258.529 164.758 258.886 164.702C259.457 164.611 260.041 164.637 260.602 164.776C261.709 165.155 261.415 167.027 260.278 167.305C259.187 167.573 258.087 167.899 257.289 168.269C255.181 169.245 252.868 170.482 250.546 170.395L248.05 170.301Z" fill="#92E3A9" stroke="#263238" stroke-linecap="round" stroke-linejoin="round"/>
<path d="M-nan -nanL255.599 199.449H243.146C240.669 199.449 238.274 198.559 236.398 196.941C234.523 195.323 233.291 193.085 232.927 190.635L231.562 181.419C230.578 174.775 235.727 168.807 242.444 168.807H256.301C263.018 168.807 268.167 174.775 267.183 181.419L265.818 190.635C265.454 193.085 264.222 195.323 262.346 196.941C260.471 198.559 258.076 199.449 255.599 199.449L-nan -nanZ" fill="#263238" stroke="#263238" stroke-linecap="round" stroke-linejoin="round"/>
<path d="M268.745 167.151H229.827C228.773 167.151 227.918 168.006 227.918 169.06V169.952C227.918 171.006 228.773 171.861 229.827 171.861H268.745C269.799 171.861 270.654 171.006 270.654 169.952V169.06C270.654 168.006 269.799 167.151 268.745 167.151Z" fill="#A1A1A1" stroke="#263238" stroke-linecap="round" stroke-linejoin="round"/>
<path d="M221.178 196.969C220.491 196.793 219.753 196.898 219.31 197.451C218.548 198.405 217.513 200.406 217.513 204.246C217.513 210.326 224.485 213.054 225.769 213.42C227.053 213.786 240.445 211.77 251.089 209.568C261.733 207.366 265.585 201.864 265.951 198.558C266.317 195.251 264.301 193.056 262.831 194.706C261.36 196.356 261.367 197.088 258.061 199.11C254.754 201.132 254.209 201.312 249.619 201.106C245.028 200.899 234.943 196.522 234.211 193.954C233.479 191.386 232.215 187.894 228.703 191.014C227.04 192.511 225.514 194.151 224.141 195.915C223.441 196.815 222.283 197.253 221.178 196.969Z" fill="white" stroke="#263238" stroke-linecap="round" stroke-linejoin="round"/>
<path d="M229.283 184.847C229.114 185.393 229.011 185.957 228.849 186.505C228.046 189.215 225.605 197.76 226.528 198.531C227.625 199.449 229.468 200.733 231.297 200.919C233.127 201.106 234.052 196.329 234.97 192.477C235.888 188.625 237.538 185.159 235.701 182.751C234.005 180.526 230.276 181.629 229.283 184.847Z" fill="white" stroke="#263238" stroke-linecap="round" stroke-linejoin="round"/>
<path d="M238.379 186.574C237.101 187.252 236.622 188.792 236.286 190.2C235.344 194.152 233.5 202.38 234.052 204.039C234.783 206.241 238.456 208.257 240.292 207.366C242.128 206.474 242.287 202.596 243.412 195.99C244.536 189.384 245.062 188.439 242.128 186.949C240.414 186.078 239.261 186.107 238.379 186.574Z" fill="white" stroke="#263238" stroke-linecap="round" stroke-linejoin="round"/>
<path d="M251.495 193.196C249.133 190.701 244.895 192.098 244.25 195.471C243.432 199.749 242.168 206.98 242.673 208.257C243.412 210.093 250.75 211.743 251.115 209.541C251.481 207.339 252.586 198.531 252.586 195.571C252.534 194.67 252.144 193.822 251.495 193.196Z" fill="white" stroke="#263238" stroke-linecap="round" stroke-linejoin="round"/>
<path d="M130.962 73.1512C131.062 72.952 131.094 72.7365 131.051 72.5181C130.565 70.0617 127.538 54.4786 128.548 52.1144C129.646 49.5465 141.76 43.3063 158.092 42.0224C174.424 40.7384 180.478 43.1201 181.21 46.4264C181.543 47.9319 182.601 52.6306 183.654 57.3024C185.025 63.3855 181.073 69.3922 174.943 70.5384L166.528 72.112L148.732 73.7619L131.905 74.5954C131.142 74.6332 130.621 73.8347 130.962 73.1512Z" fill="white" stroke="#263238" stroke-linecap="round" stroke-linejoin="round"/>
<path d="M148.732 73.7619L166.528 72.112L179.275 69.7284C183.038 69.0248 185.997 67.6961 185.154 63.9617C184.315 60.2477 180.045 55.6043 176.323 56.4091C162.38 59.4244 147.62 61.0991 137.18 61.9945C132.939 62.3582 129.853 66.2162 130.642 70.3986C130.825 71.3677 130.97 72.1075 131.049 72.5083C131.093 72.7267 131.062 72.952 130.962 73.1511C130.621 73.8347 131.142 74.6332 131.905 74.5954L148.732 73.7619Z" fill="#92E3A9" stroke="#263238" stroke-linecap="round" stroke-linejoin="round"/>
<path d="M115.047 72.7183C113.424 72.6872 111.697 74.8662 113.32 74.8662C114.791 74.8662 125.249 77.0682 150.934 75.0458C176.62 73.0234 188.362 70.4622 195.886 68.2602C203.41 66.0582 205.798 64.7742 205.425 63.1244C205.053 61.4746 207.262 62.0201 205.06 61.4679C202.858 60.9157 200.656 62.2063 198.826 62.7519C198.269 62.9173 197.717 63.0977 197.17 63.293C196.401 63.5676 195.548 63.1211 195.376 62.3224L195.361 62.2503C195.24 61.6891 194.744 61.2883 194.17 61.2883C193.497 61.2883 192.952 61.8336 192.952 62.5063V64.3117C192.952 64.8119 192.647 65.2616 192.182 65.4468L191.707 65.6362C191.039 65.9023 190.335 65.3422 190.444 64.6318C190.513 64.1839 190.249 63.7516 189.819 63.6087L189.523 63.5104C188.871 63.2936 188.163 63.6227 187.908 64.261L187.264 65.8719C186.918 66.6763 186.2 67.2604 185.342 67.4356L179.573 68.6143C178.618 68.8094 177.724 68.0798 177.724 67.1053V67.051C177.724 66.2712 177.12 65.6248 176.342 65.5722C175.568 65.5199 174.885 66.0729 174.775 66.8407L174.66 67.6412C174.516 68.6493 173.739 69.4501 172.736 69.6257L171.511 69.8402C170.659 69.9893 169.782 69.8631 169.007 69.48L166.631 68.3055C166.341 68.1624 165.997 68.1864 165.73 68.3683L165.287 68.6704C164.934 68.9109 164.962 69.4398 165.338 69.642C165.825 69.9041 165.69 70.6374 165.141 70.7079L159.742 71.4002L158.511 71.5229C157.028 71.6707 155.597 70.9276 154.865 69.629L154.064 68.2077C153.835 67.8015 153.391 67.5649 152.926 67.6012C152.12 67.6641 151.606 68.4912 151.906 69.2422L152.098 69.7211C152.443 70.5836 151.903 71.5444 150.986 71.6967L149.984 71.8632C149.284 71.9795 148.732 71.2765 149.011 70.624C149.241 70.086 148.903 69.4753 148.325 69.3838L147.091 69.1883C146.406 69.0798 145.718 69.3588 145.301 69.9135L144.525 70.9481C144.048 71.5831 143.324 71.9861 142.534 72.0568L136.786 72.5705C135.789 72.6596 135.275 71.4064 136.048 70.77C136.391 70.4877 136.512 70.0158 136.346 69.6037L136.322 69.5435C136.085 68.9546 135.403 68.685 134.827 68.9531L132.48 70.0469C131.243 70.6234 129.797 69.8614 129.573 68.515L129.515 68.1618C129.383 67.3703 128.698 66.79 127.896 66.79H127.194C126.548 66.79 126.057 67.3697 126.162 68.0068C126.305 68.8652 125.398 69.512 124.633 69.0973L122.115 67.7326C121.472 67.3843 120.682 67.4629 120.121 67.9309L120.005 68.0277C119.353 68.5714 119.231 69.5261 119.725 70.2168C120.5 71.3019 119.708 72.8075 118.374 72.782L115.047 72.7183Z" fill="white" stroke="#263238" stroke-linecap="round" stroke-linejoin="round"/>
</svg>
